{"_v":2,"glyphs":{"0":{"ha":455,"x_min":51,"x_max":403,"o":"m 227 -8 l 227 -8 q 166 -8 127 34 q 88 75 70 157 q 51 239 51 358 l 51 358 q 51 473 68 555 q 85 637 124 681 q 162 724 227 724 l 227 724 q 294 724 332 680 q 370 636 387 554 q 403 472 403 359 l 403 359 q 403 271 394 203 q 384 134 363 87 q 342 40 309 16 q 275 -8 227 -8 z m 227 28 l 227 28 q 266 28 293 51 q 319 74 335 117 q 351 160 358 222 q 365 283 365 359 l 365 359 q 365 431 359 491 q 352 551 336 596 q 320 640 294 664 q 268 688 227 688 l 227 688 q 187 688 161 665 q 134 641 119 597 q 103 553 97 493 q 90 432 90 359 l 90 359 q 90 283 97 222 q 104 161 121 118 q 137 74 163 51 q 189 28 227 28 z"},"1":{"ha":455,"x_min":76,"x_max":279,"o":"m 279 714 l 279 0 l 242 0 l 242 551 q 242 586 242 614 q 242 641 243 670 l 243 670 q 233 659 223 649 q 213 638 199 625 l 199 625 l 100 533 l 76 559 l 246 714 l 279 714 z"},"2":{"ha":455,"x_min":42,"x_max":397,"o":"m 397 0 l 42 0 l 42 30 l 212 258 q 252 312 280 357 q 308 401 323 445 q 338 489 338 541 l 338 541 q 338 590 321 623 q 303 656 273 672 q 242 688 203 688 l 203 688 q 163 688 131 675 q 98 661 70 641 l 70 641 l 50 670 q 72 687 97 699 q 122 711 149 718 q 176 724 206 724 l 206 724 q 255 724 294 703 q 332 681 355 641 q 377 601 377 543 l 377 543 q 377 484 360 435 q 343 386 313 339 q 283 292 244 241 l 244 241 l 92 38 l 92 36 l 396 36 l 397 0 z"},"3":{"ha":455,"x_min":31,"x_max":389,"o":"m 187 -10 l 187 -10 q 146 -10 105 -3 q 64 4 31 18 l 31 18 l 31 57 q 63 43 101 34 q 139 25 185 25 l 185 25 q 266 25 308 69 q 349 113 349 194 l 349 194 q 349 251 326 286 q 302 320 260 336 q 218 352 163 352 l 163 352 l 114 352 l 114 388 l 167 388 q 217 388 255 408 q 293 428 315 465 q 337 501 337 549 l 337 549 q 337 619 301 654 q 264 689 202 689 l 202 689 q 157 689 121 674 q 85 658 51 634 l 51 634 l 32 664 q 72 693 114 709 q 155 724 204 724 l 204 724 q 256 724 295 705 q 333 685 354 647 q 375 609 375 553 l 375 553 q 375 503 358 467 q 340 430 311 407 q 281 383 244 373 l 244 373 l 244 370 q 311 359 350 315 q 389 270 389 192 l 389 192 q 389 130 366 85 q 342 40 297 15 q 252 -10 187 -10 z"},"4":{"ha":455,"x_min":21,"x_max":437,"o":"m 342 0 l 304 0 l 304 176 l 21 176 l 21 210 l 301 718 l 342 718 l 342 212 l 437 212 l 437 176 l 342 176 l 342 0 z m 258 569 l 61 212 l 304 212 l 304 565 q 304 586 305 602 q 305 617 306 632 q 306 646 306 662 l 306 662 l 304 662 q 293 637 282 615 q 271 592 258 569 l 258 569 z"},"5":{"ha":455,"x_min":54,"x_max":402,"o":"m 190 -10 l 190 -10 q 149 -10 115 -2 q 80 5 54 17 l 54 17 l 54 57 q 80 43 114 35 q 147 26 190 26 l 190 26 q 248 26 287 51 q 325 75 344 119 q 363 163 363 221 l 363 221 q 363 301 326 347 q 288 393 206 393 l 206 393 q 173 393 143 388 q 112 382 87 373 l 87 373 l 66 391 l 91 714 l 362 714 l 362 678 l 125 678 l 105 413 q 126 420 154 424 q 181 428 214 428 l 214 428 q 276 428 318 403 q 360 377 381 331 q 402 285 402 222 l 402 222 q 402 153 378 101 q 354 49 307 20 q 260 -10 190 -10 z"},"6":{"ha":455,"x_min":56,"x_max":408,"o":"m 238 -10 l 238 -10 q 189 -10 155 12 q 120 33 98 74 q 76 115 66 174 q 56 233 56 308 l 56 308 q 56 399 68 468 q 79 537 100 586 q 121 635 151 666 q 181 696 219 711 q 257 725 300 725 l 300 725 q 319 725 338 723 q 356 720 373 716 l 373 716 l 373 679 q 357 684 338 687 q 319 689 300 689 l 300 689 q 236 689 191 651 q 145 613 121 536 q 96 459 94 341 l 94 341 l 96 341 q 105 365 124 388 q 143 411 173 427 q 203 442 244 442 l 244 442 q 299 442 336 416 q 372 389 390 340 q 408 290 408 223 l 408 223 q 408 152 388 99 q 368 46 330 18 q 291 -10 238 -10 z m 236 25 l 236 25 q 301 25 335 77 q 369 128 369 224 l 369 224 q 369 307 339 357 q 308 407 240 407 l 240 407 q 196 407 164 386 q 132 365 115 330 q 97 294 97 251 l 97 251 q 97 219 103 181 q 109 142 124 107 q 139 71 167 48 q 194 25 236 25 z"},"7":{"ha":455,"x_min":35,"x_max":411,"o":"m 158 0 l 118 0 l 369 677 l 35 677 l 35 714 l 411 714 l 411 684 l 158 0 z"},"8":{"ha":455,"x_min":45,"x_max":410,"o":"m 229 -10 l 229 -10 q 173 -10 132 13 q 90 35 68 76 q 45 117 45 172 l 45 172 q 45 224 64 262 q 83 299 116 328 q 149 356 192 378 l 192 378 q 154 401 126 427 q 97 453 81 487 q 64 520 64 561 l 64 561 q 64 611 85 648 q 106 684 143 704 q 180 724 230 724 l 230 724 q 281 724 317 704 q 353 684 373 649 q 392 613 392 563 l 392 563 q 392 517 376 484 q 359 450 330 425 q 300 400 260 378 l 260 378 q 304 354 338 326 q 371 297 391 261 q 410 225 410 176 l 410 176 q 410 120 387 79 q 364 37 324 14 q 283 -10 229 -10 z m 227 25 l 227 25 q 293 25 332 66 q 371 106 371 175 l 371 175 q 371 210 358 240 q 345 270 317 298 q 288 325 243 350 l 243 350 l 224 359 q 184 340 152 314 q 120 288 102 254 q 84 220 84 172 l 84 172 q 84 103 124 64 q 164 25 227 25 z m 229 396 l 229 396 q 267 418 295 440 q 323 462 339 492 q 354 521 354 561 l 354 561 q 354 623 322 656 q 289 689 229 689 l 229 689 q 171 689 137 655 q 102 620 102 560 l 102 560 q 102 523 117 494 q 132 465 161 442 q 189 418 229 396 z"},"9":{"ha":455,"x_min":48,"x_max":399,"o":"m 156 -10 l 156 -10 q 138 -10 117 -8 q 96 -6 81 -1 l 81 -1 l 81 35 q 96 30 116 28 q 135 25 156 25 l 156 25 q 206 25 244 47 q 281 69 307 113 q 333 156 347 222 q 361 287 362 373 l 362 373 l 360 373 q 351 349 332 326 q 313 303 283 288 q 253 272 211 272 l 211 272 q 156 272 120 299 q 83 326 66 376 q 48 425 48 491 l 48 491 q 48 564 68 616 q 88 668 127 697 q 165 725 218 725 l 218 725 q 267 725 302 703 q 336 681 358 640 q 379 599 389 541 q 399 482 399 408 l 399 408 q 399 316 388 247 q 377 177 356 128 q 335 79 305 49 q 275 18 238 4 q 200 -10 156 -10 z m 215 308 l 215 308 q 260 308 292 329 q 323 350 341 386 q 358 422 358 464 l 358 464 q 358 496 353 534 q 347 572 332 608 q 317 644 290 667 q 262 689 219 689 l 219 689 q 155 689 121 638 q 86 587 86 491 l 86 491 q 86 407 117 358 q 148 308 215 308 z"},"\r":{"ha":247,"x_min":0,"x_max":0,"o":""}," ":{"ha":247,"x_min":0,"x_max":0,"o":""},"ഀ":{"ha":0,"x_min":-393,"x_max":-164,"o":"m -393 727 l -393 727 q -393 790 -361 827 q -330 864 -279 864 l -279 864 q -228 864 -196 828 q -164 791 -164 727 l -164 727 q -164 663 -195 626 q -227 589 -279 589 l -279 589 q -330 589 -361 626 q -393 663 -393 727 z m -358 727 l -358 727 q -358 679 -337 651 q -317 622 -279 622 l -279 622 q -240 622 -219 651 q -199 679 -199 727 l -199 727 q -199 775 -219 803 q -240 831 -279 831 l -279 831 q -317 831 -337 803 q -358 775 -358 727 z"},"ഁ":{"ha":0,"x_min":-408,"x_max":-148,"o":"m -279 668 l -279 668 q -337 668 -372 702 q -408 735 -408 808 l -408 808 q -408 819 -406 833 q -405 847 -402 859 l -402 859 l -369 853 q -371 843 -372 831 q -374 818 -374 808 l -374 808 q -374 770 -363 747 q -352 723 -330 713 q -309 702 -279 702 l -279 702 q -246 702 -225 714 q -204 726 -193 750 q -182 773 -182 808 l -182 808 q -182 818 -183 831 q -184 844 -187 854 l -187 854 l -154 859 q -151 847 -149 833 q -148 819 -148 808 l -148 808 q -148 736 -184 702 q -221 668 -279 668 z m -278 775 l -278 775 q -295 775 -301 785 q -308 795 -308 810 l -308 810 q -308 824 -301 835 q -295 845 -278 845 l -278 845 q -261 845 -254 835 q -248 824 -248 810 l -248 810 q -248 795 -254 785 q -261 775 -278 775 z"},"ം":{"ha":357,"x_min":36,"x_max":321,"o":"m 178 -12 l 178 -12 q 134 -12 102 10 q 70 31 53 71 q 36 111 36 168 l 36 168 q 36 225 54 265 q 71 305 103 327 q 135 348 179 348 l 179 348 q 222 348 254 327 q 286 306 304 267 q 321 227 321 169 l 321 169 q 321 111 304 71 q 286 30 254 9 q 222 -12 178 -12 z m 179 314 l 179 314 q 130 314 102 278 q 73 241 73 168 l 73 168 q 73 95 101 59 q 129 22 178 22 l 178 22 q 227 22 256 59 q 284 95 284 169 l 284 169 q 284 242 256 278 q 228 314 179 314 z"},"ഃ":{"ha":273,"x_min":34,"x_max":239,"o":"m 34 434 l 34 434 q 34 493 62 527 q 90 560 136 560 l 136 560 q 182 560 211 527 q 239 493 239 434 l 239 434 q 239 376 211 343 q 182 309 136 309 l 136 309 q 90 309 62 343 q 34 376 34 434 z m 69 435 l 69 435 q 69 391 87 367 q 105 342 136 342 l 136 342 q 168 342 186 367 q 204 391 204 435 l 204 435 q 204 478 186 503 q 168 527 136 527 l 136 527 q 105 527 87 503 q 69 478 69 435 z m 34 113 l 34 113 q 34 172 62 205 q 90 238 136 238 l 136 238 q 182 238 211 205 q 239 172 239 113 l 239 113 q 239 55 211 22 q 182 -12 136 -12 l 136 -12 q 90 -12 62 22 q 34 55 34 113 z m 69 114 l 69 114 q 69 70 87 46 q 105 21 136 21 l 136 21 q 168 21 186 46 q 204 70 204 114 l 204 114 q 204 157 186 182 q 168 206 136 206 l 136 206 q 105 206 87 182 q 69 157 69 114 z"},"ഄ":{"ha":473,"x_min":40,"x_max":434,"o":"m 53 306 l 53 306 l 89 299 q 84 274 81 250 q 77 226 77 201 l 77 201 q 77 120 113 73 q 148 26 236 26 l 236 26 q 325 26 361 73 q 396 120 396 200 l 396 200 q 396 226 393 250 q 390 274 384 299 l 384 299 l 420 306 q 426 285 430 257 q 434 229 434 200 l 434 200 q 434 138 415 91 q 395 43 352 17 q 308 -9 236 -9 l 236 -9 q 166 -9 123 17 q 79 43 60 91 q 40 138 40 200 l 40 200 q 40 229 44 257 q 47 285 53 306 z m 220 161 l 220 393 l 255 393 l 255 161 l 220 161 z"},"അ":{"ha":1168,"x_min":42,"x_max":1127,"o":"m 300 560 l 300 560 q 333 560 368 554 q 402 548 433 534 l 433 534 q 436 532 439 530 q 441 528 444 526 l 444 526 q 475 512 498 491 q 521 469 534 440 q 546 410 546 373 l 546 373 q 546 339 535 313 q 524 286 499 270 q 474 253 430 246 l 430 246 l 430 255 q 491 249 523 216 q 555 182 555 124 l 555 124 q 555 83 539 52 q 523 21 493 5 q 463 -12 420 -12 l 420 -12 q 364 -12 327 17 q 289 45 270 99 q 251 153 251 230 l 251 230 q 251 287 266 342 q 280 396 311 442 q 341 488 387 516 l 387 516 q 391 519 394 522 q 397 525 401 527 l 401 527 q 428 543 458 552 q 488 560 523 560 l 523 560 q 586 560 625 539 q 664 517 685 479 q 705 441 711 391 l 711 391 l 721 288 l 721 0 l 684 0 l 684 304 q 684 378 674 420 q 663 461 637 486 l 637 486 q 618 505 590 516 q 561 526 520 526 l 520 526 q 494 526 473 521 q 452 516 433 507 l 433 507 q 397 491 370 462 q 342 433 324 395 q 306 357 298 315 q 289 273 289 230 l 289 230 q 289 129 321 76 q 352 22 420 22 l 420 22 q 466 22 492 47 q 517 72 517 124 l 517 124 q 517 171 489 202 q 460 233 400 233 l 400 233 l 388 233 l 388 268 l 396 268 q 456 268 483 298 q 509 327 509 372 l 509 372 q 509 427 480 461 q 451 494 406 509 l 406 509 q 379 519 353 523 q 327 526 301 526 l 301 526 q 223 526 175 493 q 126 460 103 406 q 80 351 80 285 l 80 285 q 80 220 95 172 q 109 123 135 86 q 160 49 191 20 l 191 20 l 166 -7 q 136 21 108 60 q 79 98 61 154 q 42 210 42 286 l 42 286 q 42 344 58 394 q 74 443 106 481 q 138 518 187 539 q 235 560 300 560 z m 976 -12 l 976 -12 q 927 -12 896 14 q 864 39 849 85 q 834 131 834 190 l 834 190 q 834 288 874 337 q 914 385 978 385 l 978 385 q 1014 385 1040 370 q 1066 355 1085 331 q 1104 306 1116 276 l 1116 276 l 1105 257 q 1094 281 1078 302 q 1061 323 1038 337 q 1015 350 983 350 l 983 350 q 926 350 899 309 q 872 267 872 190 l 872 190 q 872 140 882 102 q 892 64 916 43 q 939 22 978 22 l 978 22 q 1013 22 1038 43 q 1063 64 1077 112 q 1090 160 1090 240 l 1090 240 q 1090 253 1090 271 q 1089 289 1087 298 l 1087 298 q 1087 301 1088 305 q 1088 308 1087 313 l 1087 313 q 1079 367 1056 416 q 1032 464 990 495 q 947 525 879 525 l 879 525 q 844 525 819 516 q 793 507 774 490 l 774 490 q 757 476 745 454 q 733 431 727 399 q 721 367 721 320 l 721 320 l 721 250 l 695 391 q 702 446 725 484 q 748 521 787 541 q 826 560 878 560 l 878 560 q 940 560 987 537 q 1033 513 1064 470 q 1095 427 1111 369 q 1127 310 1127 239 l 1127 239 q 1127 144 1108 89 q 1088 34 1055 11 q 1021 -12 976 -12 z"},"ആ":{"ha":1280,"x_min":42,"x_max":1253,"o":"m 300 560 l 300 560 q 333 560 368 554 q 402 548 433 534 l 433 534 q 436 532 439 530 q 441 528 444 526 l 444 526 q 475 512 498 491 q 521 469 534 440 q 546 410 546 373 l 546 373 q 546 339 535 313 q 524 286 499 270 q 474 253 430 246 l 430 246 l 430 255 q 491 249 523 216 q 555 182 555 124 l 555 124 q 555 83 539 52 q 523 21 493 5 q 463 -12 420 -12 l 420 -12 q 364 -12 327 17 q 289 45 270 99 q 251 153 251 230 l 251 230 q 251 287 266 342 q 280 396 311 442 q 341 488 387 516 l 387 516 q 391 519 394 522 q 397 525 401 527 l 401 527 q 428 543 458 552 q 488 560 523 560 l 523 560 q 586 560 625 539 q 664 517 685 479 q 705 441 711 391 l 711 391 l 721 288 l 721 0 l 684 0 l 684 304 q 684 378 674 420 q 663 461 637 486 l 637 486 q 618 505 590 516 q 561 526 520 526 l 520 526 q 494 526 473 521 q 452 516 433 507 l 433 507 q 397 491 370 462 q 342 433 324 395 q 306 357 298 315 q 289 273 289 230 l 289 230 q 289 129 321 76 q 352 22 420 22 l 420 22 q 466 22 492 47 q 517 72 517 124 l 517 124 q 517 171 489 202 q 460 233 400 233 l 400 233 l 388 233 l 388 268 l 396 268 q 456 268 483 298 q 509 327 509 372 l 509 372 q 509 427 480 461 q 451 494 406 509 l 406 509 q 379 519 353 523 q 327 526 301 526 l 301 526 q 223 526 175 493 q 126 460 103 406 q 80 351 80 285 l 80 285 q 80 220 95 172 q 109 123 135 86 q 160 49 191 20 l 191 20 l 166 -7 q 136 21 108 60 q 79 98 61 154 q 42 210 42 286 l 42 286 q 42 344 58 394 q 74 443 106 481 q 138 518 187 539 q 235 560 300 560 z m 875 560 l 875 560 q 945 560 991 529 q 1037 498 1065 447 q 1092 395 1102 334 l 1102 334 q 1107 308 1110 280 q 1112 251 1112 224 l 1112 224 q 1112 137 1092 86 q 1071 34 1037 11 q 1003 -12 959 -12 l 959 -12 q 910 -12 880 13 q 850 37 837 77 q 824 117 824 162 l 824 162 q 824 259 879 311 q 933 362 1024 362 l 1024 362 q 1036 362 1049 361 q 1061 359 1072 357 l 1072 357 l 1087 355 q 1144 340 1181 300 q 1217 259 1235 203 q 1253 147 1253 84 l 1253 84 q 1253 16 1237 -37 q 1220 -91 1189 -127 q 1157 -163 1111 -182 q 1065 -201 1006 -201 l 1006 -201 q 973 -201 944 -196 q 914 -191 887 -182 l 887 -182 l 899 -148 q 921 -156 948 -161 q 975 -166 1006 -166 l 1006 -166 q 1060 -166 1100 -148 q 1140 -130 1166 -97 q 1191 -65 1203 -18 q 1215 28 1215 86 l 1215 86 q 1215 137 1203 184 q 1190 231 1163 266 q 1136 301 1094 317 l 1094 317 l 1078 321 q 1066 324 1053 326 q 1040 328 1026 328 l 1026 328 q 978 328 941 311 q 904 294 883 258 q 862 222 862 162 l 862 162 q 862 127 871 95 q 879 63 901 43 q 922 22 960 22 l 960 22 q 1017 22 1046 73 q 1074 124 1074 225 l 1074 225 q 1074 252 1072 280 q 1070 307 1065 335 l 1065 335 l 1062 349 q 1052 395 1030 436 q 1008 476 971 501 q 933 525 875 525 l 875 525 q 843 525 818 516 q 792 507 773 490 l 773 490 q 756 476 745 454 q 733 431 727 399 q 721 366 721 320 l 721 320 l 721 235 l 695 391 q 702 447 726 485 q 749 522 787 541 q 825 560 875 560 z"},"ഇ":{"ha":763,"x_min":41,"x_max":721,"o":"m 253 560 l 253 560 q 303 560 337 544 q 371 527 392 497 q 413 467 423 422 l 423 422 l 412 427 q 428 498 463 529 q 498 560 550 560 l 550 560 q 594 560 626 540 q 658 519 680 484 q 701 448 711 402 q 721 356 721 304 l 721 304 q 721 221 702 160 q 682 98 637 60 l 637 60 q 612 39 581 26 q 549 12 505 6 q 461 0 396 0 l 396 0 l 231 0 q 182 0 154 -5 q 125 -10 108 -26 l 108 -26 q 98 -36 93 -50 q 87 -64 87 -81 l 87 -81 q 87 -102 94 -117 q 101 -132 114 -142 l 114 -142 q 130 -155 157 -160 q 183 -166 228 -166 l 228 -166 l 707 -166 l 707 -201 l 222 -201 q 176 -201 145 -194 q 114 -187 91 -170 l 91 -170 q 70 -156 59 -134 q 48 -112 48 -82 l 48 -82 q 48 -57 57 -37 q 65 -17 81 -3 l 81 -3 q 95 11 113 19 q 131 27 158 31 q 185 34 225 34 l 225 34 l 393 34 q 457 34 498 40 q 538 46 565 58 q 592 69 613 87 l 613 87 q 651 120 667 176 q 683 232 683 303 l 683 303 q 683 361 669 412 q 655 462 626 494 q 596 525 549 525 l 549 525 q 525 525 508 518 q 491 510 478 496 l 478 496 q 455 471 446 431 q 436 391 436 329 l 436 329 l 436 113 l 399 113 l 399 325 q 399 391 388 431 q 376 471 349 495 l 349 495 q 332 510 310 518 q 287 525 252 525 l 252 525 q 210 525 179 509 q 148 493 127 466 q 106 439 94 407 q 81 375 77 343 l 77 343 q 76 341 77 338 q 77 334 77 331 l 77 331 q 76 326 76 319 q 76 311 76 302 l 76 302 q 76 223 97 181 q 118 139 168 139 l 168 139 q 207 139 227 170 q 247 200 247 252 l 247 252 q 247 281 240 305 q 232 329 215 343 q 197 357 167 357 l 167 357 q 134 357 108 341 q 82 324 60 297 l 60 297 l 49 325 q 64 344 82 359 q 100 374 122 383 q 144 391 171 391 l 171 391 q 210 391 235 372 q 260 353 273 322 q 285 291 285 253 l 285 253 q 285 208 272 175 q 258 142 232 124 q 206 105 169 105 l 169 105 q 128 105 99 127 q 70 149 56 193 q 41 237 41 305 l 41 305 q 41 373 66 431 q 90 489 138 525 q 185 560 253 560 z"},"ഈ":{"ha":1358,"x_min":41,"x_max":1314,"o":"m 253 560 l 253 560 q 303 560 337 544 q 371 527 392 497 q 413 467 423 422 l 423 422 l 412 427 q 428 498 463 529 q 498 560 550 560 l 550 560 q 594 560 626 540 q 658 519 680 484 q 701 448 711 402 q 721 356 721 304 l 721 304 q 721 221 702 160 q 682 98 637 60 l 637 60 q 612 39 581 26 q 549 12 505 6 q 461 0 396 0 l 396 0 l 231 0 q 182 0 154 -5 q 125 -10 108 -26 l 108 -26 q 98 -36 93 -50 q 87 -64 87 -81 l 87 -81 q 87 -102 94 -117 q 101 -132 114 -142 l 114 -142 q 130 -155 157 -160 q 183 -166 228 -166 l 228 -166 l 707 -166 l 707 -201 l 222 -201 q 176 -201 145 -194 q 114 -187 91 -170 l 91 -170 q 70 -156 59 -134 q 48 -112 48 -82 l 48 -82 q 48 -57 57 -37 q 65 -17 81 -3 l 81 -3 q 95 11 113 19 q 131 27 158 31 q 185 34 225 34 l 225 34 l 393 34 q 457 34 498 40 q 538 46 565 58 q 592 69 613 87 l 613 87 q 651 120 667 176 q 683 232 683 303 l 683 303 q 683 361 669 412 q 655 462 626 494 q 596 525 549 525 l 549 525 q 525 525 508 518 q 491 510 478 496 l 478 496 q 455 471 446 431 q 436 391 436 329 l 436 329 l 436 113 l 399 113 l 399 325 q 399 391 388 431 q 376 471 349 495 l 349 495 q 332 510 310 518 q 287 525 252 525 l 252 525 q 210 525 179 509 q 148 493 127 466 q 106 439 94 407 q 81 375 77 343 l 77 343 q 76 341 77 338 q 77 334 77 331 l 77 331 q 76 326 76 319 q 76 311 76 302 l 76 302 q 76 223 97 181 q 118 139 168 139 l 168 139 q 207 139 227 170 q 247 200 247 252 l 247 252 q 247 281 240 305 q 232 329 215 343 q 197 357 167 357 l 167 357 q 134 357 108 341 q 82 324 60 297 l 60 297 l 49 325 q 64 344 82 359 q 100 374 122 383 q 144 391 171 391 l 171 391 q 210 391 235 372 q 260 353 273 322 q 285 291 285 253 l 285 253 q 285 208 272 175 q 258 142 232 124 q 206 105 169 105 l 169 105 q 128 105 99 127 q 70 149 56 193 q 41 237 41 305 l 41 305 q 41 373 66 431 q 90 489 138 525 q 185 560 253 560 z m 1166 560 l 1166 560 q 1213 560 1246 530 q 1279 500 1297 443 q 1314 385 1314 302 l 1314 302 q 1314 197 1292 127 q 1269 57 1220 23 q 1171 -12 1092 -12 l 1092 -12 q 1051 -12 1013 -4 q 975 4 937 24 l 937 24 l 955 56 q 989 39 1020 31 q 1051 23 1091 23 l 1091 23 q 1163 23 1203 55 q 1243 87 1260 149 q 1276 211 1276 302 l 1276 302 q 1276 414 1246 470 q 1216 525 1165 525 l 1165 525 q 1142 525 1127 516 q 1111 507 1101 492 l 1101 492 q 1083 466 1078 430 q 1072 394 1072 348 l 1072 348 l 1072 256 l 1035 256 l 1035 350 q 1035 403 1028 437 q 1021 471 1006 492 l 1006 492 q 995 508 979 517 q 962 525 940 525 l 940 525 q 890 525 865 486 q 840 447 840 388 l 840 388 q 840 354 845 323 q 849 291 857 260 l 857 260 l 821 253 q 813 285 808 319 q 802 352 802 390 l 802 390 q 802 438 818 476 q 834 514 865 537 q 895 560 938 560 l 938 560 q 983 560 1014 533 q 1045 506 1057 442 l 1057 442 l 1049 441 q 1060 503 1091 532 q 1122 560 1166 560 z"},"ഉ":{"ha":539,"x_min":41,"x_max":498,"o":"m 271 560 l 271 560 q 327 560 369 540 q 411 519 440 482 q 469 445 484 395 q 498 345 498 286 l 498 286 q 498 205 481 150 q 464 94 424 60 l 424 60 q 401 39 372 26 q 343 12 307 6 q 270 0 221 0 l 221 0 l 214 0 q 178 -1 152 -5 q 125 -10 108 -26 l 108 -26 q 98 -36 93 -50 q 87 -64 87 -81 l 87 -81 q 87 -102 94 -117 q 101 -132 114 -142 l 114 -142 q 130 -155 157 -160 q 183 -166 228 -166 l 228 -166 l 483 -166 l 483 -201 l 222 -201 q 176 -201 145 -194 q 114 -187 91 -170 l 91 -170 q 70 -156 59 -134 q 48 -112 48 -82 l 48 -82 q 48 -57 57 -36 q 65 -16 81 -3 l 81 -3 q 102 17 133 26 q 164 34 214 34 l 214 34 l 219 34 q 267 35 301 41 q 334 46 358 57 q 381 68 398 85 l 398 85 q 434 117 447 168 q 459 218 459 285 l 459 285 q 459 338 448 382 q 436 425 413 458 q 389 490 354 508 q 318 525 271 525 l 271 525 q 222 525 187 509 q 152 493 129 466 q 106 439 94 407 q 82 375 77 343 l 77 343 q 77 341 77 338 q 77 334 77 331 l 77 331 q 76 326 76 319 q 76 311 76 302 l 76 302 q 76 223 97 181 q 118 139 168 139 l 168 139 q 207 139 227 170 q 247 200 247 252 l 247 252 q 247 281 240 305 q 232 329 215 343 q 197 357 167 357 l 167 357 q 135 357 109 341 q 82 324 60 297 l 60 297 l 49 325 q 64 344 82 359 q 100 374 122 383 q 144 391 171 391 l 171 391 q 210 391 235 372 q 260 353 273 322 q 285 291 285 253 l 285 253 q 285 208 272 175 q 258 142 232 124 q 206 105 169 105 l 169 105 q 128 105 99 127 q 70 149 56 193 q 41 237 41 305 l 41 305 q 41 356 55 402 q 69 448 98 484 q 127 519 171 540 q 214 560 271 560 z"},"ഊ":{"ha":1134,"x_min":41,"x_max":1089,"o":"m 271 560 l 271 560 q 327 560 369 540 q 411 519 440 482 q 469 445 484 395 q 498 345 498 286 l 498 286 q 498 205 481 150 q 464 94 424 60 l 424 60 q 401 39 372 26 q 343 12 307 6 q 270 0 221 0 l 221 0 l 214 0 q 178 -1 152 -5 q 125 -10 108 -26 l 108 -26 q 98 -36 93 -50 q 87 -64 87 -81 l 87 -81 q 87 -102 94 -117 q 101 -132 114 -142 l 114 -142 q 130 -155 157 -160 q 183 -166 228 -166 l 228 -166 l 483 -166 l 483 -201 l 222 -201 q 176 -201 145 -194 q 114 -187 91 -170 l 91 -170 q 70 -156 59 -134 q 48 -112 48 -82 l 48 -82 q 48 -57 57 -36 q 65 -16 81 -3 l 81 -3 q 102 17 133 26 q 164 34 214 34 l 214 34 l 219 34 q 267 35 301 41 q 334 46 358 57 q 381 68 398 85 l 398 85 q 434 117 447 168 q 459 218 459 285 l 459 285 q 459 338 448 382 q 436 425 413 458 q 389 490 354 508 q 318 525 271 525 l 271 525 q 222 525 187 509 q 152 493 129 466 q 106 439 94 407 q 82 375 77 343 l 77 343 q 77 341 77 338 q 77 334 77 331 l 77 331 q 76 326 76 319 q 76 311 76 302 l 76 302 q 76 223 97 181 q 118 139 168 139 l 168 139 q 207 139 227 170 q 247 200 247 252 l 247 252 q 247 281 240 305 q 232 329 215 343 q 197 357 167 357 l 167 357 q 135 357 109 341 q 82 324 60 297 l 60 297 l 49 325 q 64 344 82 359 q 100 374 122 383 q 144 391 171 391 l 171 391 q 210 391 235 372 q 260 353 273 322 q 285 291 285 253 l 285 253 q 285 208 272 175 q 258 142 232 124 q 206 105 169 105 l 169 105 q 128 105 99 127 q 70 149 56 193 q 41 237 41 305 l 41 305 q 41 356 55 402 q 69 448 98 484 q 127 519 171 540 q 214 560 271 560 z m 941 560 l 941 560 q 988 560 1021 530 q 1054 500 1072 443 q 1089 385 1089 302 l 1089 302 q 1089 197 1067 127 q 1044 57 995 23 q 946 -12 867 -12 l 867 -12 q 826 -12 788 -4 q 750 4 712 24 l 712 24 l 730 56 q 764 39 795 31 q 826 23 866 23 l 866 23 q 938 23 978 55 q 1018 87 1035 149 q 1051 211 1051 302 l 1051 302 q 1051 414 1021 470 q 991 525 940 525 l 940 525 q 917 525 902 516 q 886 507 876 492 l 876 492 q 858 466 853 430 q 847 394 847 348 l 847 348 l 847 256 l 810 256 l 810 350 q 810 403 803 437 q 796 471 781 492 l 781 492 q 770 508 754 517 q 737 525 715 525 l 715 525 q 665 525 640 486 q 615 447 615 388 l 615 388 q 615 354 620 323 q 624 291 632 260 l 632 260 l 596 253 q 588 285 583 319 q 577 352 577 390 l 577 390 q 577 438 593 476 q 609 514 640 537 q 670 560 713 560 l 713 560 q 758 560 789 533 q 820 506 832 442 l 832 442 l 824 441 q 835 503 866 532 q 897 560 941 560 z"},"ഋ":{"ha":687,"x_min":39,"x_max":648,"o":"m 512 560 l 512 560 q 577 560 613 509 q 648 457 648 364 l 648 364 q 648 306 634 263 q 619 219 592 187 l 592 187 q 556 145 500 125 q 444 104 368 104 l 368 104 l 319 104 q 269 104 228 113 q 186 122 153 140 q 120 158 97 186 l 97 186 q 69 218 54 262 q 39 305 39 362 l 39 362 q 39 423 56 468 q 72 512 104 536 q 135 560 180 560 l 180 560 q 218 560 245 541 q 271 522 285 490 q 298 457 298 415 l 298 415 q 298 372 284 340 q 270 307 243 289 q 215 271 174 271 l 174 271 q 147 271 126 280 q 104 288 86 302 q 67 316 51 333 l 51 333 l 62 364 q 75 348 91 335 q 106 321 126 313 q 145 305 170 305 l 170 305 q 215 305 238 333 q 261 361 261 415 l 261 415 q 261 465 240 495 q 219 525 179 525 l 179 525 q 143 525 120 505 q 97 484 86 448 q 74 411 74 363 l 74 363 q 74 354 75 345 q 76 336 77 327 l 77 327 l 77 315 q 84 266 106 231 q 127 195 161 173 q 195 151 240 140 q 284 129 337 129 l 337 129 l 349 129 q 403 129 448 140 q 492 151 526 173 q 560 195 582 231 q 603 266 611 316 l 611 316 l 610 328 q 611 336 612 346 q 613 355 613 364 l 613 364 q 613 413 602 449 q 591 485 570 505 q 548 525 512 525 l 512 525 q 469 525 448 493 q 426 461 426 411 l 426 411 q 426 360 449 333 q 471 305 515 305 l 515 305 q 541 305 561 313 q 580 321 596 334 q 612 347 625 363 l 625 363 l 636 332 q 621 316 603 302 q 584 288 562 280 q 539 271 511 271 l 511 271 q 471 271 444 289 q 417 307 403 339 q 389 371 389 411 l 389 411 q 389 454 404 487 q 418 520 446 540 q 473 560 512 560 z m 343 -205 l 343 -205 q 247 -205 186 -186 q 124 -168 95 -130 q 65 -93 65 -38 l 65 -38 q 65 5 84 35 q 102 65 135 84 q 168 102 212 110 q 255 118 306 118 l 306 118 l 381 118 q 432 118 476 110 q 519 102 552 84 q 585 66 604 36 q 622 6 622 -38 l 622 -38 q 622 -91 594 -128 q 565 -166 503 -185 q 441 -205 343 -205 z m 344 -170 l 344 -170 q 430 -170 483 -155 q 535 -140 560 -110 q 584 -81 584 -37 l 584 -37 q 584 -3 569 22 q 554 47 525 64 q 495 80 451 88 q 406 95 347 95 l 347 95 l 340 95 q 261 95 209 81 q 156 67 130 38 q 103 8 103 -37 l 103 -37 q 103 -81 127 -110 q 151 -140 204 -155 q 257 -170 344 -170 z"},"ഌ":{"ha":903,"x_min":44,"x_max":862,"o":"m 277 560 l 277 560 q 349 560 389 523 q 429 486 444 419 l 444 419 l 448 378 l 456 283 l 456 0 l 419 0 l 419 321 q 419 390 408 430 q 396 470 369 494 l 369 494 q 353 509 331 517 q 309 525 277 525 l 277 525 q 217 525 173 489 q 129 452 105 388 q 80 323 80 238 l 80 238 l 80 223 q 80 150 93 106 q 106 62 130 43 q 154 23 187 23 l 187 23 q 210 23 229 35 q 248 46 260 74 q 271 102 271 152 l 271 152 q 271 208 249 241 q 226 273 182 273 l 182 273 q 145 273 117 255 q 88 236 64 207 l 64 207 l 54 237 q 85 273 118 290 q 150 307 185 307 l 185 307 q 220 307 248 291 q 276 274 292 240 q 308 206 308 153 l 308 153 q 308 94 292 58 q 276 21 249 5 q 222 -12 187 -12 l 187 -12 q 147 -12 115 10 q 82 32 63 85 q 44 137 44 228 l 44 228 q 44 334 74 408 q 104 482 157 521 q 209 560 277 560 z m 711 -12 l 711 -12 q 662 -12 631 14 q 599 39 584 85 q 569 131 569 190 l 569 190 q 569 288 609 337 q 649 385 713 385 l 713 385 q 749 385 775 370 q 801 355 820 331 q 839 306 851 276 l 851 276 l 840 257 q 829 281 813 302 q 796 323 773 337 q 750 350 718 350 l 718 350 q 661 350 634 309 q 607 267 607 190 l 607 190 q 607 140 617 102 q 627 64 651 43 q 674 22 713 22 l 713 22 q 748 22 773 43 q 798 64 812 112 q 825 160 825 240 l 825 240 q 825 253 825 271 q 824 289 822 298 l 822 298 q 822 301 823 305 q 823 308 822 313 l 822 313 q 814 367 791 416 q 767 464 725 495 q 682 525 614 525 l 614 525 q 579 525 554 516 q 528 507 509 490 l 509 490 q 492 476 480 454 q 468 431 462 399 q 456 367 456 320 l 456 320 l 456 250 l 429 391 q 436 446 460 484 q 483 521 522 541 q 561 560 613 560 l 613 560 q 675 560 722 537 q 768 513 799 470 q 830 427 846 369 q 862 310 862 239 l 862 239 q 862 144 843 89 q 823 34 790 11 q 756 -12 711 -12 z"},"എ":{"ha":975,"x_min":34,"x_max":931,"o":"m 177 331 l 177 331 q 221 331 253 311 q 284 291 302 255 q 319 218 319 169 l 319 169 q 319 123 303 85 q 287 46 262 20 l 262 20 l 262 34 l 675 34 l 676 0 l 247 0 l 230 26 q 255 55 269 90 q 282 125 282 166 l 282 166 q 282 230 254 263 q 225 296 177 296 l 177 296 q 144 296 121 280 q 97 264 85 236 q 72 207 72 169 l 72 169 q 72 119 90 83 q 108 46 135 16 l 135 16 l 109 -8 q 77 27 56 69 q 34 111 34 169 l 34 169 q 34 217 52 254 q 70 290 103 311 q 135 331 177 331 z m 693 560 l 693 560 q 755 560 800 533 q 844 506 873 457 q 902 407 917 339 q 931 271 931 187 l 931 187 q 931 103 916 28 q 900 -47 871 -111 q 842 -175 801 -228 l 801 -228 l 771 -207 q 809 -157 836 -97 q 863 -38 878 33 q 892 103 892 186 l 892 186 q 892 257 882 319 q 871 380 848 427 q 824 473 786 499 q 748 525 692 525 l 692 525 q 628 525 582 481 q 535 437 510 352 q 484 267 484 143 l 484 143 q 484 110 486 81 q 487 52 488 27 l 488 27 q 489 24 489 20 q 489 16 489 13 l 489 13 q 496 -61 511 -107 q 526 -153 549 -173 q 572 -194 602 -194 l 602 -194 q 626 -194 639 -182 l 639 -182 q 653 -171 658 -148 q 663 -126 663 -88 l 663 -88 l 663 413 l 701 413 l 701 -87 q 701 -133 693 -161 q 685 -189 665 -206 l 665 -206 q 654 -216 639 -222 q 623 -228 603 -228 l 603 -228 q 556 -228 521 -193 q 485 -158 466 -76 q 447 5 447 144 l 447 144 q 447 247 464 325 q 481 403 514 455 q 546 507 592 534 q 637 560 693 560 z"},"ഏ":{"ha":975,"x_min":34,"x_max":942,"o":"m 177 331 l 177 331 q 221 331 253 311 q 284 291 302 255 q 319 218 319 169 l 319 169 q 319 123 303 85 q 287 46 262 20 l 262 20 l 262 34 l 675 34 l 676 0 l 247 0 l 230 26 q 255 55 269 90 q 282 125 282 166 l 282 166 q 282 230 254 263 q 225 296 177 296 l 177 296 q 144 296 121 280 q 97 263 85 235 q 72 207 72 169 l 72 169 q 72 119 90 83 q 108 46 135 16 l 135 16 l 109 -8 q 77 27 56 69 q 34 111 34 169 l 34 169 q 34 217 52 254 q 70 290 103 311 q 135 331 177 331 z m 726 560 l 726 560 q 779 560 819 542 q 858 524 884 494 q 909 463 922 424 q 934 384 934 340 l 934 340 q 934 284 918 243 q 902 202 871 175 q 839 148 794 133 l 794 133 l 793 144 q 858 133 900 87 q 942 41 942 -43 l 942 -43 q 942 -110 923 -150 q 904 -191 871 -209 q 838 -228 795 -228 l 795 -228 q 777 -228 761 -226 q 745 -225 732 -221 l 732 -221 l 740 -187 q 751 -191 765 -192 q 779 -193 793 -193 l 793 -193 q 827 -193 852 -179 q 876 -165 890 -132 q 904 -100 904 -43 l 904 -43 q 904 29 868 72 q 831 115 765 118 l 765 118 l 765 153 q 803 165 833 187 q 862 208 879 246 q 896 283 896 339 l 896 339 q 896 390 878 432 q 860 474 823 500 q 785 525 726 525 l 726 525 q 646 525 592 480 q 538 434 511 349 q 484 264 484 143 l 484 143 q 484 110 486 81 q 487 52 488 27 l 488 27 q 488 24 489 20 q 489 16 489 13 l 489 13 q 496 -61 511 -107 q 526 -153 549 -173 q 572 -194 602 -194 l 602 -194 q 626 -194 639 -182 l 639 -182 q 653 -171 658 -148 q 663 -126 663 -88 l 663 -88 l 663 413 l 701 413 l 701 -87 q 701 -133 693 -161 q 685 -189 665 -206 l 665 -206 q 654 -216 639 -222 q 623 -228 603 -228 l 603 -228 q 556 -228 521 -193 q 486 -158 467 -76 q 447 5 447 144 l 447 144 q 447 245 466 323 q 484 400 520 453 q 556 506 608 533 q 660 560 726 560 z"},"ഐ":{"ha":1532,"x_min":42,"x_max":1488,"o":"m 185 -12 l 185 -12 q 145 -12 113 10 q 80 32 61 85 q 42 137 42 229 l 42 229 q 42 309 61 371 q 80 432 114 475 q 148 517 193 539 q 238 560 290 560 l 290 560 q 345 560 388 540 q 430 519 459 482 q 487 445 501 396 q 515 346 515 287 l 515 287 q 515 211 497 156 q 478 101 450 62 q 421 22 389 -8 l 389 -8 l 364 19 q 391 45 417 81 q 443 116 460 166 q 476 215 476 285 l 476 285 q 476 355 456 409 q 435 463 394 494 q 352 525 289 525 l 289 525 q 229 525 181 489 q 133 453 106 387 q 78 321 78 229 l 78 229 q 78 153 91 108 q 104 63 128 43 q 152 23 185 23 l 185 23 q 208 23 227 35 q 246 46 258 75 q 269 103 269 152 l 269 152 q 269 208 247 241 q 224 273 179 273 l 179 273 q 143 273 114 255 q 85 236 62 207 l 62 207 l 52 237 q 83 273 116 290 q 148 307 183 307 l 183 307 q 218 307 246 291 q 274 274 290 240 q 306 206 306 153 l 306 153 q 306 94 290 58 q 274 21 247 5 q 220 -12 185 -12 z m 734 331 l 734 331 q 778 331 810 311 q 841 291 859 255 q 876 218 876 169 l 876 169 q 876 123 860 85 q 844 46 819 20 l 819 20 l 819 34 l 1232 34 l 1233 0 l 804 0 l 787 26 q 812 55 826 90 q 839 125 839 166 l 839 166 q 839 230 811 263 q 782 296 734 296 l 734 296 q 701 296 678 280 q 654 264 642 236 q 629 207 629 169 l 629 169 q 629 119 647 83 q 665 46 692 16 l 692 16 l 666 -8 q 634 27 613 69 q 591 111 591 169 l 591 169 q 591 217 609 254 q 627 290 660 311 q 692 331 734 331 z m 1250 560 l 1250 560 q 1312 560 1357 533 q 1401 506 1430 457 q 1459 407 1474 339 q 1488 271 1488 187 l 1488 187 q 1488 103 1473 28 q 1457 -47 1428 -111 q 1399 -175 1358 -228 l 1358 -228 l 1328 -207 q 1366 -157 1393 -97 q 1420 -38 1435 33 q 1449 103 1449 186 l 1449 186 q 1449 257 1439 319 q 1428 380 1405 427 q 1381 473 1343 499 q 1305 525 1249 525 l 1249 525 q 1185 525 1139 481 q 1092 437 1067 352 q 1041 267 1041 143 l 1041 143 q 1041 110 1043 81 q 1044 52 1045 27 l 1045 27 q 1046 24 1046 20 q 1046 16 1046 13 l 1046 13 q 1053 -61 1068 -107 q 1083 -153 1106 -173 q 1129 -194 1159 -194 l 1159 -194 q 1183 -194 1196 -182 l 1196 -182 q 1210 -171 1215 -148 q 1220 -126 1220 -88 l 1220 -88 l 1220 413 l 1258 413 l 1258 -87 q 1258 -133 1250 -161 q 1242 -189 1222 -206 l 1222 -206 q 1211 -216 1196 -222 q 1180 -228 1160 -228 l 1160 -228 q 1113 -228 1078 -193 q 1042 -158 1023 -76 q 1004 5 1004 144 l 1004 144 q 1004 247 1021 325 q 1038 403 1071 455 q 1103 507 1149 534 q 1194 560 1250 560 z"},"ഒ":{"ha":591,"x_min":41,"x_max":554,"o":"m 354 560 l 354 560 q 421 560 463 539 q 505 517 526 481 q 546 444 546 401 l 546 401 q 546 367 534 339 q 521 311 494 293 q 467 274 421 268 l 421 268 l 421 275 q 482 269 518 232 q 554 194 554 132 l 554 132 q 554 65 519 28 q 483 -10 416 -10 l 416 -10 q 397 -10 378 -7 q 358 -4 342 0 l 342 0 l 350 33 q 367 29 383 27 q 398 24 413 24 l 413 24 q 463 24 490 49 q 516 74 516 132 l 516 132 q 516 164 506 187 q 495 209 476 224 l 476 224 q 458 239 433 247 q 408 254 372 254 l 372 254 l 365 254 l 365 288 l 373 288 q 409 288 435 296 q 460 304 477 320 l 477 320 q 492 334 500 355 q 507 375 507 401 l 507 401 q 507 459 468 492 q 428 525 354 525 l 354 525 q 286 525 235 501 q 183 477 148 436 q 113 395 95 342 q 77 288 77 228 l 77 228 l 77 217 q 77 147 90 104 q 103 61 127 42 q 151 23 184 23 l 184 23 q 207 23 226 35 q 245 46 257 75 q 268 103 268 152 l 268 152 q 268 208 246 241 q 223 273 178 273 l 178 273 q 143 273 114 255 q 85 237 62 208 l 62 208 l 53 240 q 84 274 116 291 q 148 307 182 307 l 182 307 q 217 307 245 291 q 273 274 289 240 q 305 206 305 153 l 305 153 q 305 94 289 58 q 273 21 246 5 q 219 -12 184 -12 l 184 -12 q 144 -12 112 10 q 79 32 60 83 q 41 133 41 220 l 41 220 q 41 291 62 353 q 82 415 122 461 q 161 507 220 534 q 278 560 354 560 z"},"ഓ":{"ha":987,"x_min":41,"x_max":943,"o":"m 354 560 l 354 560 q 421 560 463 539 q 505 517 526 481 q 546 444 546 401 l 546 401 q 546 367 534 339 q 521 311 494 293 q 467 274 421 268 l 421 268 l 421 275 q 482 269 518 232 q 554 194 554 132 l 554 132 q 554 65 519 28 q 483 -10 416 -10 l 416 -10 q 397 -10 378 -7 q 358 -4 342 0 l 342 0 l 350 33 q 367 29 383 27 q 398 24 413 24 l 413 24 q 463 24 490 49 q 516 74 516 132 l 516 132 q 516 164 506 187 q 495 209 476 224 l 476 224 q 458 239 433 247 q 408 254 372 254 l 372 254 l 365 254 l 365 288 l 373 288 q 409 288 435 296 q 460 304 477 320 l 477 320 q 492 334 500 355 q 507 375 507 401 l 507 401 q 507 459 468 492 q 428 525 354 525 l 354 525 q 286 525 235 501 q 183 477 148 436 q 113 395 95 342 q 77 288 77 228 l 77 228 l 77 217 q 77 147 90 104 q 103 61 127 42 q 151 23 184 23 l 184 23 q 207 23 226 35 q 245 46 257 75 q 268 103 268 152 l 268 152 q 268 208 246 241 q 223 273 178 273 l 178 273 q 143 273 114 255 q 85 237 62 208 l 62 208 l 53 240 q 84 274 116 291 q 148 307 182 307 l 182 307 q 217 307 245 291 q 273 274 289 240 q 305 206 305 153 l 305 153 q 305 94 289 58 q 273 21 246 5 q 219 -12 184 -12 l 184 -12 q 144 -12 112 10 q 79 32 60 83 q 41 133 41 220 l 41 220 q 41 291 62 353 q 82 415 122 461 q 161 507 220 534 q 278 560 354 560 z m 942 276 l 942 276 q 942 209 933 156 q 924 102 904 65 q 884 28 853 8 q 821 -12 777 -12 l 777 -12 q 739 -12 712 2 q 685 15 666 40 q 647 64 635 96 q 622 127 615 163 l 615 163 l 653 170 q 661 130 676 96 q 690 62 714 42 q 738 22 775 22 l 775 22 q 822 22 850 52 q 878 81 891 138 q 904 194 904 276 l 904 276 q 904 356 891 412 q 878 467 850 496 q 822 525 778 525 l 778 525 q 742 525 718 505 q 694 485 679 453 q 664 420 655 380 l 655 380 l 618 387 q 626 422 639 454 q 651 485 671 509 q 690 533 717 547 q 744 560 780 560 l 780 560 q 823 560 854 540 q 885 519 905 482 q 924 445 933 393 q 942 340 942 276 z"},"ഔ":{"ha":1183,"x_min":41,"x_max":1139,"o":"m 354 560 l 354 560 q 421 560 463 539 q 505 517 526 481 q 546 444 546 401 l 546 401 q 546 367 534 339 q 521 311 494 293 q 467 274 421 268 l 421 268 l 421 275 q 482 269 518 232 q 554 194 554 132 l 554 132 q 554 65 519 28 q 483 -10 416 -10 l 416 -10 q 397 -10 378 -7 q 358 -4 342 0 l 342 0 l 350 33 q 367 29 383 27 q 398 24 413 24 l 413 24 q 463 24 490 49 q 516 74 516 132 l 516 132 q 516 164 506 187 q 495 209 476 224 l 476 224 q 458 239 433 247 q 408 254 372 254 l 372 254 l 365 254 l 365 288 l 373 288 q 409 288 435 296 q 460 304 477 320 l 477 320 q 492 334 500 355 q 507 375 507 401 l 507 401 q 507 459 468 492 q 428 525 354 525 l 354 525 q 286 525 235 501 q 183 477 148 436 q 113 395 95 342 q 77 288 77 228 l 77 228 l 77 217 q 77 147 90 104 q 103 61 127 42 q 151 23 184 23 l 184 23 q 207 23 226 35 q 245 46 257 75 q 268 103 268 152 l 268 152 q 268 208 246 241 q 223 273 178 273 l 178 273 q 143 273 114 255 q 85 237 62 208 l 62 208 l 53 240 q 84 274 116 291 q 148 307 182 307 l 182 307 q 217 307 245 291 q 273 274 289 240 q 305 206 305 153 l 305 153 q 305 94 289 58 q 273 21 246 5 q 219 -12 184 -12 l 184 -12 q 144 -12 112 10 q 79 32 60 83 q 41 133 41 220 l 41 220 q 41 291 62 353 q 82 415 122 461 q 161 507 220 534 q 278 560 354 560 z m 991 560 l 991 560 q 1038 560 1071 530 q 1104 500 1122 443 q 1139 385 1139 302 l 1139 302 q 1139 197 1117 127 q 1094 57 1045 23 q 996 -12 917 -12 l 917 -12 q 876 -12 838 -4 q 800 4 762 24 l 762 24 l 780 56 q 814 39 845 31 q 876 23 916 23 l 916 23 q 988 23 1028 55 q 1068 87 1085 149 q 1101 211 1101 302 l 1101 302 q 1101 414 1071 470 q 1041 525 990 525 l 990 525 q 967 525 952 516 q 936 507 926 492 l 926 492 q 908 466 903 430 q 897 394 897 348 l 897 348 l 897 256 l 860 256 l 860 350 q 860 403 853 437 q 846 471 831 492 l 831 492 q 820 508 804 517 q 787 525 765 525 l 765 525 q 715 525 690 486 q 665 447 665 388 l 665 388 q 665 354 670 323 q 674 291 682 260 l 682 260 l 646 253 q 638 285 633 319 q 627 352 627 390 l 627 390 q 627 438 643 476 q 659 514 690 537 q 720 560 763 560 l 763 560 q 808 560 839 533 q 870 506 882 442 l 882 442 l 874 441 q 885 503 916 532 q 947 560 991 560 z"},"ക":{"ha":819,"x_min":34,"x_max":785,"o":"m 176 -12 l 176 -12 q 112 -12 73 28 q 34 67 34 143 l 34 143 q 34 183 49 212 q 63 241 90 261 l 90 261 q 112 278 139 288 q 166 298 202 303 q 238 307 285 307 l 285 307 l 540 307 q 611 307 655 298 q 698 288 730 264 l 730 264 q 756 245 771 215 q 785 184 785 141 l 785 141 q 785 71 749 30 q 713 -12 644 -12 l 644 -12 q 629 -12 611 -9 q 592 -7 573 -2 l 573 -2 l 581 31 q 597 27 613 25 q 628 23 643 23 l 643 23 q 697 23 722 54 q 747 85 747 141 l 747 141 q 747 175 736 199 q 725 223 705 238 l 705 238 q 678 259 640 266 q 602 273 539 273 l 539 273 l 282 273 q 220 273 180 265 q 139 256 112 234 l 112 234 q 92 218 82 196 q 72 173 72 142 l 72 142 q 72 97 87 71 q 102 45 126 34 q 150 23 178 23 l 178 23 q 211 23 239 33 q 267 43 301 71 l 301 71 l 323 44 q 298 25 276 13 q 253 0 230 -6 q 206 -12 176 -12 z m 411 560 l 411 560 q 470 560 507 527 q 544 494 562 431 q 580 368 580 276 l 580 276 q 580 171 559 108 q 538 44 500 16 q 461 -12 410 -12 l 410 -12 q 370 -12 341 4 q 312 19 292 47 l 292 47 q 264 86 253 146 q 241 205 241 275 l 241 275 q 241 418 285 489 q 328 560 411 560 z m 411 525 l 411 525 q 345 525 312 465 q 278 405 278 275 l 278 275 q 278 182 294 127 q 309 71 339 47 q 369 22 409 22 l 409 22 q 452 22 482 47 q 511 71 527 127 q 543 183 543 276 l 543 276 q 543 366 528 421 q 512 476 483 501 q 454 525 411 525 z"},"ഖ":{"ha":788,"x_min":42,"x_max":720,"o":"m 293 560 l 293 560 q 348 560 390 540 q 431 519 459 483 q 487 446 502 396 q 516 346 516 287 l 516 287 q 516 215 499 163 q 482 111 459 77 q 435 43 413 22 l 413 22 l 418 0 l 391 0 l 374 28 q 397 50 421 84 q 445 118 461 168 q 477 217 477 285 l 477 285 q 477 355 457 409 q 436 463 395 494 q 354 525 292 525 l 292 525 q 226 525 178 487 q 130 449 104 383 q 78 317 78 233 l 78 233 l 78 218 q 78 148 91 105 q 104 62 128 43 q 152 23 185 23 l 185 23 q 208 23 228 35 q 247 46 258 75 q 269 103 269 152 l 269 152 q 269 208 247 241 q 224 273 180 273 l 180 273 q 144 273 116 255 q 87 237 63 208 l 63 208 l 54 240 q 85 274 117 291 q 149 307 183 307 l 183 307 q 218 307 246 291 q 274 274 291 240 q 307 206 307 153 l 307 153 q 307 94 291 58 q 274 21 247 5 q 220 -12 185 -12 l 185 -12 q 145 -12 113 10 q 80 32 61 84 q 42 135 42 224 l 42 224 q 42 329 74 404 q 106 479 163 520 q 219 560 293 560 z m 683 548 l 720 548 l 720 0 l 403 0 l 404 34 l 683 34 l 683 548 z"},"ഗ":{"ha":696,"x_min":42,"x_max":654,"o":"m 479 560 l 479 560 q 534 560 574 528 q 613 496 634 438 q 654 380 654 299 l 654 299 q 654 222 638 167 q 621 111 594 70 q 566 28 535 -8 l 535 -8 l 507 18 q 538 51 563 90 q 587 129 602 180 q 616 231 616 299 l 616 299 q 616 366 601 417 q 585 468 555 497 q 524 525 480 525 l 480 525 q 452 525 434 517 q 415 508 402 492 l 402 492 q 381 467 374 426 q 367 384 367 316 l 367 316 l 367 216 q 367 173 363 139 q 359 104 350 78 q 340 51 321 31 l 321 31 q 304 11 279 0 q 253 -12 217 -12 l 217 -12 q 162 -12 123 20 q 83 51 63 110 q 42 169 42 249 l 42 249 q 42 326 59 382 q 75 437 103 479 q 130 521 161 556 l 161 556 l 189 530 q 159 497 134 458 q 109 419 95 368 q 80 317 80 249 l 80 249 q 80 181 96 130 q 112 79 142 51 q 172 23 216 23 l 216 23 q 244 23 263 32 q 281 40 294 55 l 294 55 q 315 80 322 122 q 329 164 329 234 l 329 234 l 329 330 q 329 395 338 441 q 347 486 374 517 l 374 517 q 392 536 418 548 q 444 560 479 560 z"},"ഘ":{"ha":1023,"x_min":33,"x_max":955,"o":"m 175 560 l 175 560 q 219 560 251 540 q 283 520 301 485 q 318 449 318 400 l 318 400 q 318 355 303 317 q 287 279 261 253 l 261 253 l 262 268 l 428 268 l 432 233 l 246 233 l 229 260 q 253 288 267 323 q 280 357 280 397 l 280 397 q 280 461 252 493 q 223 525 175 525 l 175 525 q 142 525 119 509 q 95 493 83 465 q 70 436 70 399 l 70 399 q 70 351 88 315 q 105 279 132 250 l 132 250 l 106 226 q 74 260 54 301 q 33 342 33 400 l 33 400 q 33 448 51 484 q 69 520 101 540 q 133 560 175 560 z m 918 548 l 955 548 l 955 0 l 412 0 l 412 333 q 412 405 427 450 q 442 494 474 520 l 474 520 q 495 540 524 550 q 553 560 589 560 l 589 560 q 625 560 653 551 q 681 542 701 524 l 701 524 q 732 498 748 453 q 763 407 763 338 l 763 338 l 763 233 l 449 233 l 449 34 l 918 34 l 918 548 z m 589 525 l 589 525 q 519 525 484 481 q 449 436 449 332 l 449 332 l 449 268 l 725 268 l 725 331 q 725 435 692 480 q 659 525 589 525 z"},"ങ":{"ha":826,"x_min":44,"x_max":788,"o":"m 277 560 l 277 560 q 349 560 390 523 q 431 485 444 414 l 444 414 l 448 365 l 456 263 l 456 0 l 419 0 l 419 321 q 419 390 408 430 q 396 470 369 494 l 369 494 q 353 509 331 517 q 309 525 277 525 l 277 525 q 217 525 173 489 q 129 452 105 388 q 80 323 80 238 l 80 238 l 80 223 q 80 150 93 106 q 106 62 130 43 q 154 23 187 23 l 187 23 q 210 23 229 35 q 248 46 260 74 q 271 102 271 152 l 271 152 q 271 208 249 241 q 226 273 182 273 l 182 273 q 145 273 117 255 q 88 236 64 207 l 64 207 l 54 237 q 85 273 118 290 q 150 307 185 307 l 185 307 q 220 307 248 291 q 276 274 292 240 q 308 206 308 153 l 308 153 q 308 94 292 58 q 276 21 249 5 q 222 -12 187 -12 l 187 -12 q 147 -12 115 10 q 82 32 63 85 q 44 137 44 228 l 44 228 q 44 334 74 408 q 104 482 157 521 q 209 560 277 560 z m 624 560 l 624 560 q 673 560 708 541 q 743 521 762 488 q 780 455 780 411 l 780 411 q 780 373 768 343 q 756 313 729 294 q 701 275 655 268 l 655 268 l 655 275 q 717 269 753 232 q 788 194 788 132 l 788 132 q 788 65 753 28 q 717 -10 650 -10 l 650 -10 q 631 -10 612 -7 q 592 -4 576 0 l 576 0 l 584 33 q 601 29 617 27 q 632 24 647 24 l 647 24 q 697 24 724 49 q 750 73 750 132 l 750 132 q 750 164 740 187 q 730 209 711 224 l 711 224 q 692 239 667 247 q 641 254 601 254 l 601 254 l 591 254 l 591 288 l 602 288 q 641 288 667 296 q 693 304 711 321 l 711 321 q 725 335 734 356 q 742 377 742 409 l 742 409 q 742 465 710 495 q 678 525 624 525 l 624 525 q 589 525 562 514 q 534 503 514 482 l 514 482 q 495 465 483 440 q 470 414 463 380 q 456 346 456 300 l 456 300 l 456 221 l 432 224 l 427 317 l 433 384 q 441 440 467 479 q 493 518 534 539 q 574 560 624 560 z"},"ച":{"ha":730,"x_min":16,"x_max":662,"o":"m 625 548 l 662 548 l 662 0 l 16 0 l 16 34 l 323 34 l 299 22 q 327 52 348 94 q 368 135 368 189 l 368 189 q 368 249 343 282 q 317 314 270 314 l 270 314 q 224 314 198 283 q 172 251 172 192 l 172 192 q 172 180 173 166 q 174 152 176 140 l 176 140 l 140 135 q 138 148 136 163 q 134 178 134 194 l 134 194 q 134 269 173 309 q 212 348 270 348 l 270 348 q 303 348 328 337 q 353 325 371 304 q 388 283 397 254 q 406 225 406 190 l 406 190 q 406 151 397 120 q 387 89 373 65 q 358 40 343 22 l 343 22 l 330 34 l 625 34 l 625 548 z"},"ഛ":{"ha":1054,"x_min":16,"x_max":1013,"o":"m 270 348 l 270 348 q 303 348 328 337 q 353 325 371 304 q 388 283 397 254 q 406 225 406 190 l 406 190 q 406 151 397 120 q 387 89 373 65 q 358 40 343 22 l 343 22 l 330 34 l 635 34 l 639 0 l 16 0 l 16 34 l 323 34 l 299 22 q 327 52 348 94 q 368 135 368 189 l 368 189 q 368 249 343 282 q 317 314 270 314 l 270 314 q 224 314 198 283 q 172 251 172 192 l 172 192 q 172 180 173 166 q 174 152 176 140 l 176 140 l 140 135 q 138 148 136 163 q 134 178 134 194 l 134 194 q 134 269 173 309 q 212 348 270 348 z m 764 560 l 764 560 q 826 560 873 537 q 919 513 950 470 q 981 427 997 369 q 1013 310 1013 239 l 1013 239 q 1013 144 994 89 q 974 34 941 11 q 907 -12 862 -12 l 862 -12 q 813 -12 782 14 q 750 39 735 85 q 720 131 720 190 l 720 190 q 720 288 760 337 q 800 385 864 385 l 864 385 q 900 385 926 370 q 952 355 971 331 q 990 306 1002 276 l 1002 276 l 991 257 q 979 281 963 302 q 946 323 924 337 q 901 350 869 350 l 869 350 q 812 350 785 309 q 758 267 758 190 l 758 190 q 758 140 768 102 q 778 64 802 43 q 825 22 864 22 l 864 22 q 899 22 924 43 q 949 64 963 112 q 976 160 976 240 l 976 240 q 976 253 976 271 q 975 289 973 298 l 973 298 q 973 302 974 306 q 974 309 973 313 l 973 313 q 965 368 942 417 q 918 465 875 495 q 832 525 765 525 l 765 525 q 702 525 656 494 q 610 463 586 409 q 562 355 562 285 l 562 285 q 562 222 576 174 q 590 126 614 91 q 638 55 665 28 l 665 28 l 648 0 l 626 0 l 620 27 q 600 49 578 83 q 555 116 540 166 q 524 216 524 287 l 524 287 q 524 343 539 392 q 554 441 584 479 q 614 517 660 539 q 705 560 764 560 z"},"ജ":{"ha":736,"x_min":34,"x_max":695,"o":"m 234 560 l 234 560 q 279 560 313 546 q 347 532 370 502 q 393 472 404 424 l 404 424 l 389 414 q 402 494 442 527 q 481 560 537 560 l 537 560 q 590 560 625 535 q 660 509 678 468 q 695 427 695 381 l 695 381 q 695 339 684 307 q 673 274 651 251 q 628 227 593 213 l 593 213 l 548 204 l 509 193 q 489 189 463 186 q 436 183 399 183 l 399 183 l 210 183 q 167 183 141 178 q 114 173 97 160 l 97 160 q 84 151 78 138 q 72 124 72 104 l 72 104 q 72 75 84 57 q 95 39 115 31 q 135 22 160 22 l 160 22 q 191 22 219 30 q 246 37 276 54 q 306 71 344 99 l 344 99 q 378 124 401 141 q 423 157 440 168 q 456 178 470 186 q 484 193 501 201 l 501 201 q 510 206 520 210 q 529 214 539 217 q 548 220 558 222 q 567 223 575 223 l 575 223 q 603 223 626 212 q 649 200 663 175 q 676 150 676 110 l 676 110 q 676 46 645 17 q 614 -12 568 -12 l 568 -12 q 529 -12 506 5 q 482 22 472 50 q 461 77 461 109 l 461 109 q 461 141 472 164 q 482 186 505 212 l 505 212 l 531 211 q 521 200 513 185 q 504 170 499 152 q 494 134 494 110 l 494 110 q 494 67 513 44 q 531 21 567 21 l 567 21 q 603 21 622 43 q 640 64 640 111 l 640 111 q 640 145 630 164 q 619 183 603 191 q 586 198 567 198 l 567 198 q 550 198 533 191 q 515 184 498 169 l 498 169 l 493 174 q 481 164 467 152 q 452 139 430 121 q 407 103 370 75 l 370 75 q 327 44 294 25 q 260 5 229 -3 q 197 -12 159 -12 l 159 -12 q 128 -12 99 0 q 70 11 52 37 q 34 63 34 104 l 34 104 q 34 131 44 151 q 53 171 70 184 l 70 184 q 91 202 122 210 q 152 217 205 217 l 205 217 l 431 217 q 476 217 510 221 q 543 225 567 234 q 591 243 608 257 l 608 257 q 632 277 645 307 q 657 337 657 379 l 657 379 q 657 414 645 448 q 633 481 607 503 q 580 525 535 525 l 535 525 q 508 525 490 518 q 471 511 458 498 l 458 498 q 434 473 425 435 q 416 396 416 336 l 416 336 l 416 258 l 380 258 l 380 334 q 380 393 369 433 q 358 472 330 496 l 330 496 q 312 511 289 519 q 265 526 232 526 l 232 526 q 179 526 142 505 q 105 484 86 445 l 86 445 q 85 442 85 438 q 84 434 83 430 l 83 430 q 79 419 77 407 q 75 394 75 381 l 75 381 q 75 323 98 300 q 120 277 152 277 l 152 277 q 179 277 194 290 q 209 302 215 322 q 221 342 221 365 l 221 365 q 221 405 204 426 q 186 446 151 446 l 151 446 q 125 446 102 434 q 78 421 56 397 l 56 397 l 58 428 q 76 449 102 463 q 128 476 156 476 l 156 476 q 191 476 214 461 q 236 446 248 422 q 259 397 259 366 l 259 366 q 259 331 247 304 q 234 276 210 261 q 186 245 152 245 l 152 245 q 101 245 71 280 q 41 315 41 382 l 41 382 q 41 431 63 471 q 85 511 128 536 q 171 560 234 560 z"},"ഝ":{"ha":1293,"x_min":42,"x_max":1252,"o":"m 518 560 l 518 560 q 555 560 585 550 q 615 539 636 520 l 636 520 q 672 488 686 440 q 699 391 699 310 l 699 310 l 699 220 q 699 154 707 116 q 714 78 734 54 l 734 54 q 747 39 766 31 q 784 23 810 23 l 810 23 q 834 23 852 30 q 869 37 881 51 l 881 51 q 903 75 911 115 q 919 155 919 216 l 919 216 l 919 548 l 956 548 l 956 221 q 956 158 966 118 q 975 78 998 54 l 998 54 q 1011 39 1030 31 q 1048 23 1075 23 l 1075 23 q 1120 23 1151 54 q 1181 85 1197 137 q 1213 188 1213 248 l 1213 248 q 1213 317 1199 368 q 1185 418 1160 457 q 1135 496 1105 529 l 1105 529 l 1133 554 q 1164 519 1191 478 q 1218 437 1235 382 q 1252 326 1252 248 l 1252 248 q 1252 174 1231 115 q 1210 56 1170 22 q 1130 -12 1073 -12 l 1073 -12 q 1016 -12 983 21 q 949 53 934 119 l 934 119 l 942 124 q 935 78 918 48 q 901 17 874 3 q 846 -12 808 -12 l 808 -12 q 775 -12 750 0 q 724 11 707 30 l 707 30 q 691 49 681 72 q 671 94 667 127 q 662 160 662 208 l 662 208 l 662 299 q 662 351 658 388 q 653 424 642 450 q 630 476 611 493 l 611 493 q 594 508 571 517 q 547 526 516 526 l 516 526 q 487 526 462 517 q 437 508 414 493 l 414 493 l 403 484 q 365 455 340 409 q 314 362 302 310 q 289 257 289 206 l 289 206 q 289 136 303 96 q 316 55 340 39 q 364 22 395 22 l 395 22 q 427 22 451 39 q 474 56 488 97 q 501 137 501 207 l 501 207 q 501 257 489 311 q 476 364 450 411 q 424 457 385 486 l 385 486 l 376 493 q 354 510 329 518 q 303 525 274 525 l 274 525 q 209 525 166 493 q 122 460 101 406 q 80 351 80 285 l 80 285 q 80 220 95 172 q 109 123 135 86 q 160 49 191 20 l 191 20 l 166 -7 q 136 21 108 60 q 79 98 61 154 q 42 210 42 286 l 42 286 q 42 344 57 394 q 72 444 102 481 q 131 518 174 539 q 217 560 273 560 l 273 560 q 311 560 343 548 q 375 536 404 513 l 404 513 l 416 504 q 474 456 507 377 q 540 298 540 207 l 540 207 q 540 128 522 80 q 503 32 471 10 q 438 -12 395 -12 l 395 -12 q 353 -12 320 10 q 287 32 269 80 q 251 128 251 206 l 251 206 q 251 264 265 320 q 278 375 306 423 q 334 471 375 504 l 375 504 l 385 512 q 414 536 448 548 q 481 560 518 560 z"},"ഞ":{"ha":1120,"x_min":44,"x_max":1079,"o":"m 277 560 l 277 560 q 349 560 390 523 q 431 485 444 414 l 444 414 l 448 368 l 456 250 l 456 0 l 419 0 l 419 321 q 419 390 408 430 q 396 470 369 494 l 369 494 q 353 509 331 517 q 309 525 277 525 l 277 525 q 217 525 173 489 q 129 452 105 388 q 80 323 80 238 l 80 238 l 80 223 q 80 150 93 106 q 106 62 130 43 q 154 23 187 23 l 187 23 q 210 23 229 35 q 248 46 260 74 q 271 102 271 152 l 271 152 q 271 208 249 241 q 226 273 182 273 l 182 273 q 145 273 117 255 q 88 236 64 207 l 64 207 l 54 237 q 85 273 118 290 q 150 307 185 307 l 185 307 q 220 307 248 291 q 276 274 292 240 q 308 206 308 153 l 308 153 q 308 94 292 58 q 276 21 249 5 q 222 -12 187 -12 l 187 -12 q 147 -12 115 10 q 82 32 63 85 q 44 137 44 228 l 44 228 q 44 334 74 408 q 104 482 157 521 q 209 560 277 560 z m 602 560 l 602 560 q 640 560 672 549 q 704 537 733 514 l 733 514 l 745 504 q 803 456 836 377 q 868 298 868 207 l 868 207 q 868 128 850 80 q 832 32 799 10 q 766 -12 724 -12 l 724 -12 q 681 -12 649 10 q 616 32 598 80 q 579 128 579 206 l 579 206 q 579 264 594 320 q 608 375 637 423 q 665 471 706 504 l 706 504 l 715 512 q 745 535 780 548 q 814 560 855 560 l 855 560 q 909 560 951 539 q 993 518 1022 482 q 1050 445 1065 395 q 1079 345 1079 286 l 1079 286 q 1079 210 1061 156 q 1042 101 1014 62 q 985 22 953 -8 l 953 -8 l 927 19 q 955 45 981 80 q 1007 115 1024 165 q 1040 215 1040 284 l 1040 284 q 1040 353 1019 408 q 998 462 957 494 q 915 525 853 525 l 853 525 q 821 525 795 517 q 768 508 745 492 l 745 492 l 734 484 q 696 454 670 408 q 644 362 631 310 q 618 257 618 206 l 618 206 q 618 136 632 96 q 645 55 669 39 q 693 22 724 22 l 724 22 q 755 22 779 39 q 803 56 817 97 q 830 137 830 207 l 830 207 q 830 258 817 312 q 804 365 779 412 q 753 458 715 487 l 715 487 l 705 493 q 691 504 675 512 q 658 519 641 522 q 623 525 603 525 l 603 525 q 572 525 549 517 q 525 509 508 493 l 508 493 q 479 467 468 425 q 456 383 456 320 l 456 320 l 456 59 l 425 59 l 427 237 l 430 400 q 438 455 462 490 q 485 525 521 543 q 557 560 602 560 z"},"ട":{"ha":429,"x_min":20,"x_max":401,"o":"m 219 560 l 219 560 q 271 560 315 549 q 358 538 401 518 l 401 518 l 381 487 q 340 507 302 516 q 264 525 219 525 l 219 525 q 165 525 132 509 q 99 492 85 466 q 71 439 71 408 l 71 408 q 71 380 78 361 q 85 341 99 328 l 99 328 q 118 310 147 304 q 175 297 216 297 l 216 297 l 219 297 q 268 296 302 286 q 335 275 358 251 l 358 251 q 376 233 386 208 q 395 182 395 146 l 395 146 q 395 101 375 65 q 355 29 314 9 q 272 -12 206 -12 l 206 -12 q 159 -12 113 -1 q 67 9 20 32 l 20 32 l 40 63 q 65 51 91 42 q 116 33 145 28 q 173 23 206 23 l 206 23 q 264 23 297 40 q 329 56 343 84 q 357 112 357 146 l 357 146 q 357 174 350 195 q 343 215 329 228 l 329 228 q 311 246 284 254 q 257 261 217 262 l 217 262 l 214 262 q 161 262 126 273 q 91 284 69 306 l 69 306 q 51 325 42 350 q 32 375 32 408 l 32 408 q 32 448 52 483 q 72 517 114 539 q 155 560 219 560 z"},"ഠ":{"ha":516,"x_min":42,"x_max":475,"o":"m 259 560 l 259 560 q 327 560 375 527 q 423 493 449 430 q 475 366 475 274 l 475 274 q 475 184 449 120 q 422 56 373 22 q 324 -12 256 -12 l 256 -12 q 187 -12 139 23 q 91 57 67 122 q 42 186 42 275 l 42 275 q 42 365 69 429 q 95 492 144 526 q 192 560 259 560 z m 257 23 l 257 23 q 316 23 356 54 q 396 85 416 142 q 436 198 436 274 l 436 274 q 436 355 416 411 q 395 467 356 496 q 317 525 259 525 l 259 525 q 175 525 128 459 q 80 393 80 274 l 80 274 q 80 152 126 88 q 172 23 257 23 z"},"ഡ":{"ha":961,"x_min":42,"x_max":919,"o":"m 476 -12 l 476 -12 q 442 -12 417 0 q 391 11 374 30 l 374 30 q 358 49 348 72 q 338 94 334 127 q 329 160 329 208 l 329 208 l 329 315 q 329 384 322 426 q 315 467 294 492 l 294 492 q 281 508 263 517 q 245 525 216 525 l 216 525 q 172 525 142 497 q 112 468 96 417 q 80 366 80 299 l 80 299 q 80 231 95 180 q 109 129 134 90 q 159 51 189 17 l 189 17 l 161 -8 q 130 28 103 69 q 75 110 59 166 q 42 222 42 298 l 42 298 q 42 379 63 438 q 83 496 123 528 q 162 560 218 560 l 218 560 q 253 560 279 549 q 304 537 321 518 l 321 518 q 340 497 350 470 q 359 443 363 409 q 366 375 366 331 l 366 331 l 366 220 q 366 154 374 116 q 382 77 402 54 l 402 54 q 415 39 434 31 q 452 23 478 23 l 478 23 q 501 23 519 30 q 537 37 549 51 l 549 51 q 570 75 578 115 q 586 155 586 216 l 586 216 l 586 548 l 623 548 l 623 221 q 623 158 633 118 q 642 78 665 54 l 665 54 q 679 39 697 31 q 715 23 742 23 l 742 23 q 787 23 818 54 q 849 85 865 137 q 881 188 881 249 l 881 249 q 881 317 867 368 q 852 418 828 457 q 803 496 772 529 l 772 529 l 800 554 q 831 519 859 478 q 886 437 903 382 q 919 326 919 248 l 919 248 q 919 174 898 115 q 877 56 837 22 q 797 -12 740 -12 l 740 -12 q 684 -12 650 20 q 616 52 601 119 l 601 119 l 609 124 q 600 54 566 21 q 532 -12 476 -12 z"},"ഢ":{"ha":1043,"x_min":42,"x_max":999,"o":"m 476 -12 l 476 -12 q 442 -12 417 0 q 391 11 374 30 l 374 30 q 358 49 348 72 q 338 94 334 127 q 329 160 329 208 l 329 208 l 329 315 q 329 384 322 426 q 315 467 294 492 l 294 492 q 281 508 263 517 q 245 525 216 525 l 216 525 q 172 525 142 497 q 112 468 96 418 q 80 367 80 299 l 80 299 q 80 231 95 180 q 109 129 134 90 q 159 51 189 17 l 189 17 l 161 -8 q 130 28 103 70 q 75 111 59 167 q 42 222 42 299 l 42 299 q 42 379 63 438 q 83 496 123 528 q 162 560 218 560 l 218 560 q 253 560 279 549 q 304 537 321 518 l 321 518 q 340 497 350 470 q 359 443 363 409 q 366 375 366 331 l 366 331 l 366 220 q 366 154 374 116 q 382 78 402 54 l 402 54 q 415 39 434 31 q 452 23 478 23 l 478 23 q 501 23 519 30 q 537 37 549 51 l 549 51 q 570 75 578 115 q 586 155 586 216 l 586 216 l 586 548 l 623 548 l 623 245 l 609 124 q 600 54 566 21 q 532 -12 476 -12 z m 856 560 l 856 560 q 896 560 929 538 q 961 515 980 463 q 999 411 999 319 l 999 319 q 999 214 969 140 q 939 66 887 27 q 834 -12 766 -12 l 766 -12 q 694 -12 653 26 q 612 63 599 133 l 599 133 l 595 241 l 596 521 l 623 521 l 623 227 q 623 158 635 118 q 647 78 673 54 l 673 54 q 690 39 712 31 q 734 23 766 23 l 766 23 q 826 23 870 60 q 914 96 938 161 q 962 226 962 310 l 962 310 l 962 324 q 962 398 949 442 q 936 486 912 506 q 888 525 855 525 l 855 525 q 833 525 814 514 q 795 502 784 474 q 772 446 772 396 l 772 396 q 772 340 794 308 q 816 275 861 275 l 861 275 q 897 275 926 294 q 955 312 978 340 l 978 340 l 988 310 q 958 275 925 258 q 892 241 857 241 l 857 241 q 823 241 795 258 q 767 274 751 308 q 734 342 734 395 l 734 395 q 734 454 750 490 q 766 526 794 543 q 822 560 856 560 z"},"ണ":{"ha":1066,"x_min":44,"x_max":1025,"o":"m 277 560 l 277 560 q 349 560 388 524 q 427 488 442 421 l 442 421 l 432 422 q 445 491 481 526 q 516 560 575 560 l 575 560 q 633 560 669 527 q 705 494 715 424 l 715 424 l 707 428 q 721 495 756 528 q 790 560 847 560 l 847 560 q 903 560 943 526 q 983 492 1004 433 q 1025 374 1025 299 l 1025 299 q 1025 222 1008 167 q 991 111 964 70 q 937 29 905 -6 l 905 -6 l 878 19 q 909 52 934 91 q 958 130 972 181 q 986 231 986 299 l 986 299 q 986 361 970 412 q 954 463 924 494 q 893 525 848 525 l 848 525 q 820 525 802 517 q 784 509 770 494 l 770 494 q 748 470 739 430 q 729 390 729 326 l 729 326 l 729 0 l 692 0 l 692 328 q 692 393 684 431 q 675 469 654 493 l 654 493 q 641 508 622 517 q 602 525 574 525 l 574 525 q 547 525 528 516 q 509 507 495 493 l 495 493 q 473 468 465 430 q 456 391 456 327 l 456 327 l 456 0 l 419 0 l 419 320 q 419 390 408 430 q 396 470 369 494 l 369 494 q 353 509 331 517 q 308 525 277 525 l 277 525 q 217 525 173 489 q 129 452 105 388 q 80 323 80 238 l 80 238 l 80 223 q 80 150 93 106 q 106 62 130 43 q 154 23 187 23 l 187 23 q 210 23 229 35 q 248 46 260 74 q 271 102 271 152 l 271 152 q 271 208 249 241 q 226 273 182 273 l 182 273 q 145 273 117 255 q 88 236 64 207 l 64 207 l 54 237 q 85 273 118 290 q 150 307 185 307 l 185 307 q 220 307 248 291 q 276 274 292 240 q 308 206 308 153 l 308 153 q 308 94 292 58 q 276 21 249 5 q 222 -12 187 -12 l 187 -12 q 147 -12 115 10 q 82 32 63 85 q 44 137 44 228 l 44 228 q 44 334 74 408 q 104 482 157 521 q 209 560 277 560 z"},"ത":{"ha":792,"x_min":42,"x_max":750,"o":"m 395 -12 l 395 -12 q 353 -12 320 10 q 287 32 269 80 q 251 128 251 206 l 251 206 q 251 264 266 320 q 280 375 309 423 q 337 471 378 504 l 378 504 l 387 512 q 416 535 451 548 q 486 560 527 560 l 527 560 q 581 560 623 539 q 664 518 693 482 q 721 445 736 395 q 750 345 750 286 l 750 286 q 750 210 732 156 q 714 101 685 62 q 656 22 624 -8 l 624 -8 l 599 19 q 626 45 652 80 q 678 115 695 165 q 711 215 711 284 l 711 284 q 711 353 691 408 q 670 462 629 494 q 587 525 525 525 l 525 525 q 492 525 466 517 q 439 508 417 492 l 417 492 l 405 484 q 367 454 341 408 q 315 362 302 310 q 289 257 289 206 l 289 206 q 289 136 303 96 q 316 55 340 39 q 364 22 395 22 l 395 22 q 427 22 451 39 q 474 56 488 97 q 501 137 501 207 l 501 207 q 501 257 489 311 q 476 364 450 411 q 424 457 385 486 l 385 486 l 376 493 q 354 510 329 518 q 303 525 274 525 l 274 525 q 209 525 166 493 q 122 461 101 406 q 80 351 80 285 l 80 285 q 80 220 95 172 q 109 123 135 86 q 160 49 191 20 l 191 20 l 166 -7 q 136 21 108 60 q 79 98 61 154 q 42 210 42 286 l 42 286 q 42 344 57 394 q 72 444 102 481 q 131 518 174 539 q 217 560 273 560 l 273 560 q 311 560 343 548 q 375 536 404 513 l 404 513 l 416 504 q 474 456 507 377 q 540 298 540 207 l 540 207 q 540 128 522 80 q 503 32 471 10 q 438 -12 395 -12 z"},"ഥ":{"ha":707,"x_min":68,"x_max":645,"o":"m 68 548 l 105 548 l 105 34 l 305 34 l 305 0 l 68 0 l 68 548 z m 466 560 l 466 560 q 507 560 537 548 q 567 535 587 515 l 587 515 q 622 481 634 434 q 645 387 645 320 l 645 320 l 645 0 l 285 0 l 285 326 q 285 368 291 403 q 296 437 309 465 q 321 493 344 515 l 344 515 q 364 535 395 548 q 426 560 466 560 z m 466 525 l 466 525 q 434 525 409 515 q 383 505 367 487 l 367 487 q 340 459 331 416 q 322 373 322 311 l 322 311 l 322 34 l 608 34 l 608 311 q 608 372 599 416 q 590 460 563 488 l 563 488 q 546 505 523 515 q 499 525 466 525 z"},"ദ":{"ha":499,"x_min":48,"x_max":462,"o":"m 296 560 l 296 560 q 345 560 381 542 q 416 523 435 490 q 453 456 453 411 l 453 411 q 453 350 424 315 q 394 279 333 269 l 333 269 l 332 275 q 392 268 427 231 q 462 193 462 132 l 462 132 q 462 63 424 27 q 386 -10 317 -10 l 317 -10 q 293 -10 273 -7 q 252 -4 236 0 l 236 0 l 244 34 q 261 30 278 27 q 295 24 316 24 l 316 24 q 367 24 395 49 q 423 74 423 132 l 423 132 q 423 163 414 185 q 404 207 386 223 l 386 223 q 368 238 342 246 q 316 254 272 254 l 272 254 l 250 254 l 250 288 l 271 288 q 312 288 338 296 q 364 303 382 319 l 382 319 q 398 333 407 355 q 415 376 415 409 l 415 409 q 415 467 383 496 q 350 525 295 525 l 295 525 q 227 525 181 486 q 134 447 111 379 q 87 310 87 222 l 87 222 q 87 161 94 107 q 101 53 112 2 l 112 2 l 76 -5 q 64 47 56 106 q 48 164 48 220 l 48 220 q 48 322 78 399 q 108 475 164 518 q 219 560 296 560 z"},"ധ":{"ha":712,"x_min":42,"x_max":670,"o":"m 490 -12 l 490 -12 q 452 -12 425 3 q 397 17 380 47 q 362 77 352 120 l 352 120 l 360 120 q 346 52 312 20 q 277 -12 220 -12 l 220 -12 q 163 -12 124 22 q 84 56 63 115 q 42 174 42 248 l 42 248 q 42 326 59 382 q 75 437 103 478 q 130 519 161 554 l 161 554 l 189 529 q 159 496 134 457 q 109 418 95 368 q 80 317 80 248 l 80 248 q 80 188 96 137 q 112 85 143 54 q 174 23 219 23 l 219 23 q 247 23 265 31 q 283 39 296 54 l 296 54 q 319 78 329 118 q 338 158 338 221 l 338 221 l 338 548 l 375 548 l 375 222 q 375 158 384 118 q 393 78 416 54 l 416 54 q 429 39 447 31 q 465 23 490 23 l 490 23 q 536 23 568 53 q 599 83 616 135 q 632 187 632 250 l 632 250 q 632 318 618 368 q 603 418 579 457 q 554 496 524 529 l 524 529 l 552 554 q 583 519 610 478 q 637 437 654 382 q 670 327 670 250 l 670 250 q 670 172 648 113 q 626 54 586 21 q 545 -12 490 -12 z"},"ന":{"ha":712,"x_min":42,"x_max":670,"o":"m 223 560 l 223 560 q 260 560 288 545 q 316 530 334 501 q 352 472 360 428 l 360 428 l 352 428 q 367 495 402 528 q 436 560 492 560 l 492 560 q 549 560 589 526 q 628 492 649 433 q 670 374 670 299 l 670 299 q 670 222 654 167 q 637 111 610 70 q 582 29 551 -6 l 551 -6 l 524 19 q 554 52 579 91 q 603 130 618 181 q 632 231 632 299 l 632 299 q 632 361 616 412 q 600 463 569 494 q 538 525 493 525 l 493 525 q 466 525 448 517 q 430 509 416 494 l 416 494 q 393 470 384 430 q 375 390 375 326 l 375 326 l 375 0 l 337 0 l 337 326 q 337 389 328 430 q 319 470 297 494 l 297 494 q 283 509 266 517 q 248 525 223 525 l 223 525 q 177 525 145 495 q 113 464 97 413 q 80 361 80 298 l 80 298 q 80 230 95 180 q 109 129 134 91 q 158 52 188 19 l 188 19 l 161 -6 q 130 28 103 69 q 75 110 59 166 q 42 221 42 298 l 42 298 q 42 376 64 435 q 86 494 127 527 q 167 560 223 560 z"},"ഩ":{"ha":794,"x_min":44,"x_max":752,"o":"m 277 560 l 277 560 q 349 560 389 524 q 428 488 442 423 l 442 423 l 434 429 q 449 496 483 528 q 517 560 574 560 l 574 560 q 630 560 670 526 q 710 492 731 433 q 752 374 752 299 l 752 299 q 752 222 736 167 q 719 111 692 70 q 664 29 633 -6 l 633 -6 l 605 19 q 636 52 661 91 q 685 130 700 181 q 714 231 714 299 l 714 299 q 714 361 698 412 q 682 463 651 494 q 620 525 575 525 l 575 525 q 548 525 530 517 q 511 509 498 494 l 498 494 q 475 470 466 430 q 456 390 456 326 l 456 326 l 456 0 l 419 0 l 419 321 q 419 390 408 430 q 396 470 369 494 l 369 494 q 353 509 331 517 q 309 525 277 525 l 277 525 q 217 525 173 489 q 129 452 105 388 q 80 323 80 238 l 80 238 l 80 223 q 80 150 93 106 q 106 62 130 43 q 154 23 187 23 l 187 23 q 210 23 229 35 q 248 46 260 74 q 271 102 271 152 l 271 152 q 271 208 249 241 q 226 273 182 273 l 182 273 q 145 273 117 255 q 88 236 64 207 l 64 207 l 54 237 q 85 273 118 290 q 150 307 185 307 l 185 307 q 220 307 248 291 q 276 274 292 240 q 308 206 308 153 l 308 153 q 308 94 292 58 q 276 21 249 5 q 222 -12 187 -12 l 187 -12 q 147 -12 115 10 q 82 32 63 85 q 44 137 44 228 l 44 228 q 44 334 74 408 q 104 482 157 521 q 209 560 277 560 z"},"പ":{"ha":699,"x_min":34,"x_max":631,"o":"m 177 331 l 177 331 q 221 331 253 311 q 285 291 302 255 q 319 218 319 169 l 319 169 q 319 123 303 85 q 287 46 262 20 l 262 20 l 262 34 l 594 34 l 594 548 l 631 548 l 631 0 l 247 0 l 230 26 q 254 55 268 90 q 282 125 282 166 l 282 166 q 282 230 254 263 q 225 296 177 296 l 177 296 q 144 296 121 280 q 97 263 85 235 q 72 207 72 169 l 72 169 q 72 119 90 83 q 108 46 135 16 l 135 16 l 109 -8 q 77 28 56 70 q 34 111 34 169 l 34 169 q 34 217 52 254 q 70 290 103 311 q 135 331 177 331 z"},"ഫ":{"ha":887,"x_min":34,"x_max":825,"o":"m 177 331 l 177 331 q 221 331 253 311 q 285 291 302 255 q 319 218 319 169 l 319 169 q 319 123 303 85 q 287 46 262 20 l 262 20 l 262 34 l 492 34 l 492 0 l 247 0 l 230 26 q 254 55 268 90 q 282 125 282 166 l 282 166 q 282 230 254 263 q 225 296 177 296 l 177 296 q 144 296 121 280 q 97 263 85 235 q 72 207 72 169 l 72 169 q 72 119 90 83 q 108 46 135 16 l 135 16 l 109 -8 q 77 27 56 69 q 34 111 34 169 l 34 169 q 34 217 52 254 q 70 290 103 311 q 135 331 177 331 z m 646 560 l 646 560 q 686 560 716 548 q 746 535 767 515 l 767 515 q 802 481 814 434 q 825 387 825 320 l 825 320 l 825 0 l 465 0 l 465 326 q 465 368 470 403 q 475 437 488 465 q 501 493 523 515 l 523 515 q 544 535 575 548 q 606 560 646 560 z m 646 525 l 646 525 q 614 525 589 515 q 563 505 546 487 l 546 487 q 520 459 511 416 q 502 373 502 311 l 502 311 l 502 34 l 788 34 l 788 311 q 788 372 779 416 q 770 460 742 488 l 742 488 q 726 505 703 515 q 679 525 646 525 z"},"ബ":{"ha":1024,"x_min":44,"x_max":956,"o":"m 277 560 l 277 560 q 349 560 389 524 q 428 488 442 423 l 442 423 l 449 379 l 456 268 l 456 0 l 419 0 l 419 321 q 419 390 408 430 q 396 470 369 494 l 369 494 q 353 509 331 517 q 309 525 277 525 l 277 525 q 217 525 173 489 q 129 452 105 388 q 80 323 80 238 l 80 238 l 80 223 q 80 150 93 106 q 106 62 130 43 q 154 23 187 23 l 187 23 q 210 23 229 35 q 248 46 260 74 q 271 102 271 152 l 271 152 q 271 208 249 241 q 226 273 182 273 l 182 273 q 145 273 117 255 q 88 236 64 207 l 64 207 l 54 237 q 85 273 118 290 q 150 307 185 307 l 185 307 q 220 307 248 291 q 276 274 292 240 q 308 206 308 153 l 308 153 q 308 94 292 58 q 276 21 249 5 q 222 -12 187 -12 l 187 -12 q 147 -12 115 10 q 82 32 63 85 q 44 137 44 228 l 44 228 q 44 334 74 408 q 104 482 157 521 q 209 560 277 560 z m 919 548 l 956 548 l 956 0 l 632 0 l 616 26 q 642 59 664 96 q 686 133 700 183 q 714 232 714 299 l 714 299 q 714 361 698 412 q 682 463 651 494 q 620 525 575 525 l 575 525 q 548 525 530 517 q 511 509 498 494 l 498 494 q 475 470 466 430 q 456 390 456 326 l 456 326 l 456 9 l 422 9 l 422 270 l 434 370 l 434 429 q 449 496 483 528 q 517 560 574 560 l 574 560 q 630 560 670 526 q 710 492 731 433 q 752 374 752 299 l 752 299 q 752 228 738 177 q 724 125 702 89 q 680 53 657 25 l 657 25 l 651 34 l 919 34 l 919 548 z"},"ഭ":{"ha":509,"x_min":48,"x_max":476,"o":"m 314 560 l 314 560 q 362 560 399 544 q 436 528 456 498 q 476 468 476 427 l 476 427 q 476 404 470 385 q 464 366 451 353 l 451 353 q 437 340 416 333 q 395 326 361 326 l 361 326 l 349 326 q 323 325 306 322 q 289 319 278 311 l 278 311 q 267 304 261 293 q 255 282 255 267 l 255 267 q 255 235 278 222 q 300 208 345 208 l 345 208 l 349 208 q 382 208 409 200 q 435 191 452 172 l 452 172 q 463 160 470 143 q 476 126 476 104 l 476 104 q 476 69 462 43 q 448 17 417 3 q 385 -12 334 -12 l 334 -12 q 317 -12 294 -9 q 270 -7 247 -1 q 223 4 203 12 l 203 12 l 217 45 q 246 33 276 28 q 305 23 337 23 l 337 23 q 395 23 417 45 q 439 66 439 103 l 439 103 q 439 138 417 156 q 395 173 349 174 l 349 174 l 343 174 q 307 174 284 181 q 261 187 247 200 l 247 200 q 233 211 226 228 q 218 245 218 266 l 218 266 q 218 288 226 306 q 234 323 250 334 l 250 334 q 267 347 290 353 q 313 359 350 360 l 350 360 l 363 360 q 405 361 422 376 q 439 391 439 427 l 439 427 q 439 471 407 498 q 375 525 313 525 l 313 525 q 236 525 186 486 q 135 447 111 379 q 87 310 87 222 l 87 222 q 87 161 94 107 q 101 53 112 2 l 112 2 l 76 -5 q 64 47 56 106 q 48 164 48 220 l 48 220 q 48 322 79 399 q 109 475 169 518 q 228 560 314 560 z"},"മ":{"ha":563,"x_min":58,"x_max":505,"o":"m 284 560 l 284 560 q 335 560 374 545 q 412 530 438 502 l 438 502 q 462 478 477 445 q 492 411 499 369 q 505 327 505 271 l 505 271 l 505 0 l 58 0 l 58 270 q 58 324 65 367 q 71 409 86 442 q 100 474 122 499 l 122 499 q 150 528 190 544 q 230 560 284 560 z m 245 521 l 245 521 q 215 521 190 508 q 165 495 147 471 l 147 471 q 122 440 109 391 q 95 342 95 260 l 95 260 l 95 33 l 104 34 q 166 93 217 156 q 268 218 298 282 q 328 346 328 406 l 328 406 q 328 437 321 463 q 313 489 295 505 q 277 521 245 521 z m 366 405 l 366 405 q 366 340 336 275 q 306 209 255 146 q 203 82 137 17 l 137 17 l 138 32 q 164 34 200 34 q 236 34 266 34 l 266 34 l 468 34 l 468 265 q 468 347 452 404 q 435 461 398 493 q 360 525 297 528 l 297 528 l 295 531 q 335 516 351 483 q 366 449 366 405 z"},"യ":{"ha":816,"x_min":41,"x_max":771,"o":"m 529 -12 l 529 -12 q 493 -12 462 -3 q 431 6 404 24 l 404 24 q 401 26 398 29 q 394 31 391 33 l 391 33 q 348 67 320 117 q 292 166 279 225 q 265 283 265 343 l 265 343 q 265 387 273 425 q 281 463 298 491 l 298 491 l 305 501 q 318 520 335 533 q 351 546 371 553 q 391 560 416 560 l 416 560 q 485 560 525 505 q 565 449 565 341 l 565 341 q 565 239 534 158 q 502 77 437 33 l 437 33 q 434 31 431 29 q 427 27 424 24 l 424 24 q 396 7 363 -2 q 330 -12 289 -12 l 289 -12 q 230 -12 184 12 q 138 36 106 81 q 74 126 58 189 q 41 251 41 328 l 41 328 q 41 405 64 457 q 86 508 124 534 q 161 560 206 560 l 206 560 q 251 560 280 541 q 309 521 330 497 l 330 497 l 304 472 q 286 496 263 511 q 240 525 208 525 l 208 525 q 174 525 145 505 q 115 485 98 442 q 80 398 80 326 l 80 326 q 80 236 104 168 q 128 99 175 61 q 222 22 290 22 l 290 22 q 321 22 346 28 q 371 33 392 44 l 392 44 q 396 46 400 48 q 404 50 407 52 l 407 52 q 449 78 476 123 q 502 167 515 224 q 527 280 527 340 l 527 340 q 527 406 513 447 q 499 487 474 506 q 449 525 416 525 l 416 525 q 381 525 356 505 q 330 484 317 444 q 303 403 303 341 l 303 341 q 303 289 316 234 q 328 178 354 130 q 379 82 420 53 l 420 53 q 424 51 428 50 q 431 48 434 46 l 434 46 q 454 34 478 28 q 501 22 529 22 l 529 22 q 602 22 647 56 q 691 90 712 152 q 733 213 733 296 l 733 296 q 733 366 713 429 q 693 492 658 541 l 658 541 l 691 559 q 728 504 750 439 q 771 373 771 298 l 771 298 q 771 228 757 171 q 742 113 713 72 q 683 31 638 10 q 592 -12 529 -12 z"},"ര":{"ha":572,"x_min":42,"x_max":530,"o":"m 282 560 l 282 560 q 344 560 390 537 q 436 513 468 470 q 499 427 515 369 q 530 310 530 239 l 530 239 q 530 144 511 89 q 492 34 458 11 q 424 -12 380 -12 l 380 -12 q 331 -12 300 14 q 268 39 253 85 q 238 131 238 190 l 238 190 q 238 288 278 337 q 318 385 382 385 l 382 385 q 418 385 444 370 q 470 355 489 331 q 508 306 520 276 l 520 276 l 509 257 q 497 281 481 302 q 464 323 441 337 q 418 350 387 350 l 387 350 q 330 350 303 309 q 276 267 276 190 l 276 190 q 276 140 286 102 q 296 64 320 43 q 343 22 381 22 l 381 22 q 416 22 441 43 q 466 64 480 112 q 494 160 494 240 l 494 240 q 494 253 493 271 q 492 289 491 298 l 491 298 q 491 302 492 306 q 492 309 491 313 l 491 313 q 482 368 459 417 q 435 465 393 495 q 350 525 283 525 l 283 525 q 219 525 174 494 q 128 463 104 409 q 80 355 80 285 l 80 285 q 80 221 95 172 q 109 123 135 87 q 160 50 191 20 l 191 20 l 166 -6 q 136 21 108 60 q 79 99 61 155 q 42 210 42 286 l 42 286 q 42 342 57 392 q 72 441 102 479 q 132 517 177 539 q 222 560 282 560 z"},"റ":{"ha":526,"x_min":42,"x_max":484,"o":"m 266 560 l 266 560 q 319 560 360 540 q 400 519 428 482 q 456 445 470 396 q 484 346 484 287 l 484 287 q 484 211 466 156 q 448 101 419 62 q 390 22 358 -8 l 358 -8 l 333 19 q 360 45 386 81 q 412 116 429 166 q 446 215 446 285 l 446 285 q 446 355 426 409 q 405 463 365 494 q 324 525 264 525 l 264 525 q 204 525 163 493 q 122 460 101 406 q 80 351 80 285 l 80 285 q 80 221 95 172 q 109 123 135 87 q 160 50 191 20 l 191 20 l 166 -6 q 136 21 108 60 q 79 99 61 155 q 42 210 42 286 l 42 286 q 42 344 57 394 q 71 444 100 481 q 129 518 171 539 q 212 560 266 560 z"},"ല":{"ha":674,"x_min":63,"x_max":606,"o":"m 568 548 l 606 548 l 606 0 l 63 0 l 63 333 q 63 396 75 439 q 86 481 110 508 l 110 508 q 134 535 167 548 q 199 560 240 560 l 240 560 q 282 560 314 548 q 345 535 366 510 l 366 510 q 390 483 402 441 q 413 399 413 338 l 413 338 l 413 233 l 100 233 l 100 34 l 568 34 l 568 548 z m 239 525 l 239 525 q 170 525 135 481 q 100 436 100 332 l 100 332 l 100 268 l 376 268 l 376 331 q 376 435 343 480 q 310 525 239 525 z"},"ള":{"ha":566,"x_min":41,"x_max":529,"o":"m 319 525 l 319 525 q 263 525 221 511 q 179 496 150 470 q 120 444 103 412 q 85 379 78 344 l 78 344 q 78 341 78 337 q 78 333 78 329 l 78 329 q 77 322 77 314 q 76 306 76 298 l 76 298 q 76 222 97 181 q 118 139 168 139 l 168 139 q 207 139 227 170 q 247 200 247 252 l 247 252 q 247 281 240 305 q 232 329 215 343 q 197 357 167 357 l 167 357 q 135 357 109 341 q 82 324 60 297 l 60 297 l 49 325 q 64 344 82 359 q 100 373 122 382 q 144 391 171 391 l 171 391 q 210 391 235 372 q 260 353 273 322 q 285 291 285 253 l 285 253 q 285 208 272 175 q 258 142 232 124 q 206 105 169 105 l 169 105 q 128 105 99 127 q 70 148 56 191 q 41 233 41 297 l 41 297 q 41 349 58 396 q 75 443 110 480 q 144 517 197 539 q 249 560 320 560 l 320 560 q 387 560 432 539 q 476 518 498 482 q 520 446 520 400 l 520 400 q 520 372 510 343 q 499 314 471 293 q 442 272 389 266 l 389 266 l 343 270 l 343 288 l 349 288 q 381 288 405 294 q 428 300 445 314 l 445 314 q 462 327 472 348 q 482 368 482 399 l 482 399 q 482 437 464 466 q 445 494 409 510 q 373 525 319 525 z m 529 142 l 529 142 q 529 109 519 82 q 509 55 489 38 l 489 38 q 473 24 454 16 q 435 7 411 4 q 386 0 350 0 l 350 0 l 231 0 q 182 0 154 -5 q 125 -10 108 -26 l 108 -26 q 98 -36 93 -50 q 87 -64 87 -81 l 87 -81 q 87 -102 94 -117 q 101 -132 114 -142 l 114 -142 q 130 -155 157 -160 q 183 -166 228 -166 l 228 -166 l 506 -166 l 506 -201 l 222 -201 q 176 -201 145 -194 q 114 -187 91 -170 l 91 -170 q 70 -156 59 -134 q 48 -112 48 -82 l 48 -82 q 48 -57 57 -37 q 65 -17 81 -3 l 81 -3 q 95 11 113 19 q 131 27 158 31 q 185 34 225 34 l 225 34 l 349 34 q 394 34 420 41 q 445 47 461 63 l 461 63 q 476 76 483 97 q 490 117 490 143 l 490 143 q 490 172 480 194 q 469 215 449 229 l 449 229 q 431 241 408 248 q 385 254 352 254 l 352 254 l 343 254 l 343 273 l 390 277 q 454 272 492 237 q 529 201 529 142 z"},"ഴ":{"ha":516,"x_min":39,"x_max":477,"o":"m 220 417 l 220 417 q 220 478 255 519 q 290 560 348 560 l 348 560 q 392 560 421 538 q 449 515 463 479 q 477 443 477 399 l 477 399 q 477 331 453 278 q 428 225 382 195 q 336 165 273 165 l 273 165 l 264 165 q 197 165 146 191 q 95 216 67 267 q 39 318 39 395 l 39 395 q 39 438 51 479 q 62 520 84 559 l 84 559 l 115 541 q 95 502 86 467 q 77 432 77 395 l 77 395 q 77 326 101 283 q 125 240 167 220 q 209 200 263 200 l 263 200 l 273 200 q 328 200 365 226 q 401 252 420 297 q 439 342 439 399 l 439 399 q 439 454 417 490 q 395 525 348 525 l 348 525 q 319 525 299 511 q 278 496 268 471 q 258 446 258 416 l 258 416 q 258 374 269 336 q 280 298 295 262 q 310 226 321 190 q 332 154 332 116 l 332 116 q 332 81 320 52 q 308 23 281 6 q 253 -12 206 -12 l 206 -12 q 176 -12 144 -5 q 112 2 85 17 l 85 17 l 100 49 q 124 36 151 30 q 177 23 205 23 l 205 23 q 254 23 275 48 q 295 72 295 117 l 295 117 q 295 155 284 190 q 272 225 258 261 q 243 297 232 336 q 220 374 220 417 z"},"വ":{"ha":756,"x_min":42,"x_max":688,"o":"m 266 560 l 266 560 q 319 560 360 540 q 400 519 428 482 q 456 445 470 396 q 484 346 484 287 l 484 287 q 484 215 467 163 q 450 111 427 77 q 403 42 380 21 l 380 21 l 381 34 l 651 34 l 651 548 l 688 548 l 688 0 l 359 0 l 342 28 q 365 50 389 84 q 413 118 430 168 q 446 217 446 285 l 446 285 q 446 355 426 409 q 405 463 365 494 q 324 525 264 525 l 264 525 q 204 525 163 493 q 122 460 101 406 q 80 351 80 285 l 80 285 q 80 221 95 172 q 109 123 135 87 q 160 50 191 20 l 191 20 l 166 -6 q 136 21 108 60 q 79 99 61 155 q 42 210 42 286 l 42 286 q 42 344 57 394 q 71 444 100 481 q 129 518 171 539 q 213 560 266 560 z"},"ശ":{"ha":804,"x_min":42,"x_max":762,"o":"m 524 560 l 524 560 q 583 560 627 537 q 671 513 702 471 q 732 428 747 369 q 762 310 762 239 l 762 239 q 762 144 743 89 q 724 34 690 11 q 656 -12 612 -12 l 612 -12 q 563 -12 532 14 q 500 39 485 85 q 470 131 470 190 l 470 190 q 470 288 510 337 q 550 385 614 385 l 614 385 q 650 385 676 370 q 702 355 721 331 q 740 306 752 276 l 752 276 l 741 257 q 729 281 713 302 q 696 323 673 337 q 650 350 619 350 l 619 350 q 562 350 535 309 q 508 267 508 190 l 508 190 q 508 140 518 102 q 528 64 552 43 q 575 22 613 22 l 613 22 q 648 22 673 43 q 698 64 712 112 q 726 160 726 240 l 726 240 q 726 253 725 271 q 724 289 723 298 l 723 298 q 723 302 724 306 q 724 309 723 313 l 723 313 q 714 368 691 417 q 668 465 627 495 q 586 525 524 525 l 524 525 q 491 525 465 516 q 439 507 420 490 l 420 490 q 391 463 379 421 q 366 378 366 299 l 366 299 l 366 215 q 366 151 357 107 q 348 62 320 31 l 320 31 q 303 11 278 0 q 252 -12 216 -12 l 216 -12 q 162 -12 123 20 q 83 51 63 110 q 42 169 42 249 l 42 249 q 42 326 59 382 q 75 437 103 479 q 130 521 161 556 l 161 556 l 189 530 q 159 497 134 458 q 109 419 95 368 q 80 317 80 249 l 80 249 q 80 181 96 130 q 112 79 142 51 q 172 23 215 23 l 215 23 q 243 23 262 32 q 280 40 293 55 l 293 55 q 314 80 321 122 q 328 164 328 232 l 328 232 l 328 316 q 328 389 343 435 q 357 480 391 512 l 391 512 q 414 534 449 547 q 483 560 524 560 z"},"ഷ":{"ha":891,"x_min":34,"x_max":824,"o":"m 177 331 l 177 331 q 221 331 253 311 q 284 291 302 255 q 319 218 319 169 l 319 169 q 319 123 303 85 q 287 46 262 20 l 262 20 l 262 34 l 539 34 l 542 0 l 247 0 l 230 26 q 255 55 269 90 q 282 125 282 166 l 282 166 q 282 230 254 263 q 225 296 177 296 l 177 296 q 144 296 121 280 q 97 263 85 235 q 72 207 72 169 l 72 169 q 72 119 90 83 q 108 46 135 16 l 135 16 l 109 -8 q 77 28 56 70 q 34 111 34 169 l 34 169 q 34 217 52 254 q 70 290 103 311 q 135 331 177 331 z m 824 0 l 523 0 l 523 398 q 523 443 518 470 q 512 496 497 510 l 497 510 q 490 517 480 521 q 470 525 456 525 l 456 525 q 423 525 403 497 q 382 468 382 417 l 382 417 q 382 374 396 344 q 410 314 440 299 q 470 284 517 284 l 517 284 l 535 284 q 581 284 618 302 q 655 319 685 353 q 715 386 741 435 q 766 484 788 548 l 788 548 l 824 548 l 824 0 z m 457 560 l 457 560 q 477 560 493 554 q 509 548 521 537 l 521 537 q 545 517 553 485 q 561 452 561 401 l 561 401 l 561 34 l 787 34 l 787 381 q 787 398 787 418 q 787 437 788 456 q 789 475 790 489 l 790 489 l 794 487 q 767 407 730 355 q 693 302 644 276 q 595 250 535 250 l 535 250 l 522 250 q 463 250 424 270 q 384 289 365 327 q 345 364 345 418 l 345 418 q 345 455 358 487 q 370 519 395 540 q 420 560 457 560 z"},"സ":{"ha":961,"x_min":42,"x_max":919,"o":"m 486 560 l 486 560 q 518 560 544 549 q 570 537 587 518 l 587 518 q 604 500 614 477 q 623 454 628 422 q 632 389 632 339 l 632 339 l 632 232 q 632 163 639 122 q 646 80 667 55 l 667 55 q 680 40 699 32 q 717 23 745 23 l 745 23 q 789 23 820 51 q 850 79 866 130 q 881 181 881 249 l 881 249 q 881 317 867 368 q 852 419 828 458 q 803 497 772 530 l 772 530 l 800 556 q 831 521 859 479 q 886 437 903 382 q 919 326 919 249 l 919 249 q 919 169 899 110 q 878 51 839 20 q 799 -12 744 -12 l 744 -12 q 709 -12 683 0 q 657 11 640 31 l 640 31 q 621 51 612 78 q 602 104 598 139 q 594 173 594 216 l 594 216 l 594 328 q 594 394 587 433 q 579 471 559 494 l 559 494 q 547 509 528 517 q 509 525 483 525 l 483 525 q 460 525 443 518 q 425 510 412 496 l 412 496 q 391 474 383 434 q 375 394 375 332 l 375 332 l 375 0 l 337 0 l 337 326 q 337 390 328 430 q 319 470 296 494 l 296 494 q 282 509 264 517 q 246 525 219 525 l 219 525 q 174 525 143 494 q 112 463 96 412 q 80 361 80 299 l 80 299 q 80 231 95 181 q 109 130 134 91 q 159 52 189 19 l 189 19 l 161 -6 q 130 28 103 70 q 75 111 59 167 q 42 222 42 300 l 42 300 q 42 374 63 433 q 84 492 124 526 q 164 560 220 560 l 220 560 q 277 560 311 528 q 345 495 359 428 l 359 428 l 352 424 q 362 494 396 527 q 430 560 486 560 z"},"ഹ":{"ha":930,"x_min":34,"x_max":888,"o":"m 177 331 l 177 331 q 221 331 253 311 q 284 291 302 255 q 319 218 319 169 l 319 169 q 319 123 303 85 q 287 46 262 20 l 262 20 l 262 34 l 559 34 l 567 0 l 247 0 l 230 26 q 255 55 269 90 q 282 125 282 166 l 282 166 q 282 230 254 263 q 225 296 177 296 l 177 296 q 144 296 121 280 q 97 263 85 235 q 72 207 72 169 l 72 169 q 72 119 90 83 q 108 46 135 16 l 135 16 l 109 -8 q 77 28 56 70 q 34 111 34 169 l 34 169 q 34 217 52 254 q 70 290 103 311 q 135 331 177 331 z m 669 560 l 669 560 q 723 560 764 540 q 804 519 832 482 q 860 445 874 396 q 888 346 888 287 l 888 287 q 888 211 870 156 q 851 101 823 62 q 794 22 762 -8 l 762 -8 l 737 19 q 764 45 790 80 q 816 115 833 165 q 849 215 849 285 l 849 285 q 849 355 829 409 q 808 463 768 494 q 728 525 668 525 l 668 525 q 608 525 567 493 q 525 460 505 406 q 484 351 484 285 l 484 285 q 484 222 498 175 q 512 127 536 91 q 559 55 587 28 l 587 28 l 569 0 l 550 0 l 540 29 q 521 51 499 84 q 477 117 462 167 q 446 216 446 286 l 446 286 q 446 344 461 394 q 475 444 504 481 q 533 518 575 539 q 616 560 669 560 z"},"ഺ":{"ha":608,"x_min":23,"x_max":592,"o":"m 64 34 l 592 34 l 592 0 l 356 0 l 356 -202 l 318 -202 l 318 0 l 48 0 l 23 30 l 223 557 l 258 545 l 64 34 z"},"഻":{"ha":0,"x_min":-296,"x_max":-262,"o":"m -296 582 l -296 864 l -262 864 l -262 582 l -296 582 z"},"഼":{"ha":0,"x_min":-193,"x_max":12,"o":"m -193 724 l -193 724 q -193 783 -164 816 q -136 849 -91 849 l -91 849 q -45 849 -16 816 q 12 783 12 724 l 12 724 q 12 666 -16 633 q -45 599 -91 599 l -91 599 q -137 599 -165 633 q -193 666 -193 724 z m -158 725 l -158 725 q -158 681 -140 657 q -122 632 -91 632 l -91 632 q -58 632 -40 657 q -23 681 -23 725 l -23 725 q -23 768 -41 793 q -59 817 -91 817 l -91 817 q -122 817 -140 793 q -158 768 -158 725 z"},"ഽ":{"ha":357,"x_min":-62,"x_max":419,"o":"m 290 786 l 290 786 q 328 786 354 768 q 380 749 396 717 q 412 685 419 645 l 419 645 l 382 638 q 375 669 365 695 q 354 720 337 736 q 319 751 290 751 l 290 751 q 271 751 258 746 q 244 741 233 730 l 233 730 q 211 710 204 673 q 197 635 197 579 l 197 579 l 197 -44 q 197 -113 187 -150 q 176 -188 151 -212 l 151 -212 q 135 -228 114 -236 q 92 -244 66 -244 l 66 -244 q 29 -244 3 -225 q -23 -207 -39 -175 q -55 -143 -62 -104 l -62 -104 l -26 -96 q -19 -127 -8 -153 q 3 -179 21 -194 q 39 -210 67 -210 l 67 -210 q 85 -210 99 -204 q 113 -199 124 -189 l 124 -189 q 146 -168 153 -131 q 159 -94 159 -38 l 159 -38 l 159 585 q 159 655 171 693 q 182 730 205 753 l 205 753 q 222 770 244 778 q 265 786 290 786 z"},"ാ":{"ha":395,"x_min":23,"x_max":350,"o":"m 350 276 l 350 276 q 350 209 341 156 q 332 102 312 65 q 292 28 261 8 q 229 -12 185 -12 l 185 -12 q 147 -12 120 2 q 93 15 74 40 q 55 64 43 96 q 30 127 23 163 l 23 163 l 61 170 q 69 130 84 96 q 98 62 122 42 q 146 22 183 22 l 183 22 q 230 22 258 52 q 286 81 299 138 q 312 194 312 276 l 312 276 q 312 356 299 412 q 286 467 258 496 q 230 525 186 525 l 186 525 q 150 525 126 505 q 102 485 87 453 q 72 420 63 380 l 63 380 l 26 387 q 34 422 47 454 q 59 485 79 509 q 98 533 125 547 q 152 560 188 560 l 188 560 q 231 560 262 540 q 293 519 313 482 q 332 445 341 393 q 350 340 350 276 z"},"ി":{"ha":173,"x_min":-164,"x_max":105,"o":"m -35 843 l -35 843 q -10 843 12 836 q 33 829 49 815 l 49 815 q 70 797 82 772 q 94 746 100 708 q 105 669 105 613 l 105 613 l 105 0 l 68 0 l 68 594 q 68 641 65 678 q 62 715 54 742 q 45 769 27 786 l 27 786 q 15 797 1 803 q -14 809 -35 809 l -35 809 q -60 809 -81 797 q -102 785 -114 761 q -126 736 -126 698 l -126 698 q -126 679 -124 664 q -122 648 -120 636 l -120 636 l -158 631 q -160 644 -162 661 q -164 677 -164 698 l -164 698 q -164 744 -147 777 q -130 809 -101 826 q -72 843 -35 843 z"},"ീ":{"ha":173,"x_min":-230,"x_max":105,"o":"m -90 843 l -90 843 q -56 843 -27 835 q 1 826 23 811 l 23 811 q 70 778 88 724 q 105 669 105 580 l 105 580 l 105 0 l 68 0 l 68 562 q 68 616 64 656 q 60 696 48 726 q 35 756 10 777 l 10 777 q -8 794 -32 803 q -56 811 -93 811 l -93 811 q -119 811 -142 801 q -166 790 -180 768 q -194 746 -194 712 l -194 712 q -194 668 -176 648 q -158 628 -127 628 l -127 628 q -92 628 -75 650 q -59 672 -59 709 l -59 709 q -59 742 -72 770 q -85 797 -107 817 l -107 817 l -67 817 q -50 798 -37 772 q -25 745 -25 709 l -25 709 q -25 678 -36 652 q -47 625 -69 610 q -92 594 -127 594 l -127 594 q -156 594 -179 608 q -203 621 -216 648 q -230 674 -230 712 l -230 712 q -230 754 -211 784 q -193 813 -161 828 q -129 843 -90 843 z"},"ു":{"ha":250,"x_min":-15,"x_max":253,"o":"m 119 -221 l 119 -221 q 56 -221 21 -176 q -15 -132 -15 -54 l -15 -54 q -15 -2 2 35 q 18 72 48 92 q 78 112 118 112 l 118 112 q 160 112 191 93 q 221 73 237 36 q 253 -2 253 -54 l 253 -54 q 253 -105 237 -142 q 220 -180 190 -200 q 160 -221 119 -221 z m 119 -188 l 119 -188 q 164 -188 190 -154 q 216 -121 216 -54 l 216 -54 q 216 11 191 45 q 165 79 118 79 l 118 79 q 73 79 48 45 q 22 11 22 -55 l 22 -55 q 22 -119 48 -153 q 73 -188 119 -188 z m 76 560 l 76 560 q 119 560 146 541 q 172 521 184 488 q 196 455 196 414 l 196 414 q 196 347 180 263 q 163 178 140 86 l 140 86 l 104 94 q 127 186 142 268 q 157 349 157 410 l 157 410 q 157 466 137 496 q 117 525 72 525 l 72 525 q 59 525 45 523 q 31 521 19 517 l 19 517 l 10 550 q 23 554 41 557 q 58 560 76 560 z"},"ൂ":{"ha":250,"x_min":-15,"x_max":253,"o":"m 119 -221 l 119 -221 q 56 -221 21 -176 q -15 -132 -15 -54 l -15 -54 q -15 -2 2 35 q 18 72 48 92 q 78 112 118 112 l 118 112 q 160 112 191 93 q 221 73 237 36 q 253 -2 253 -54 l 253 -54 q 253 -105 237 -142 q 220 -180 190 -200 q 160 -221 119 -221 z m 118 80 l 118 80 q 72 80 45 49 q 18 17 18 -55 l 18 -55 q 18 -120 45 -154 q 71 -188 119 -188 l 119 -188 q 165 -188 193 -154 q 220 -121 220 -54 l 220 -54 q 220 18 194 49 q 167 80 118 80 z m 119 -87 l 119 -87 q 69 -87 48 -59 q 26 -32 26 8 l 26 8 q 26 32 37 52 q 48 71 64 91 l 64 91 l 81 79 q 64 64 57 48 q 49 32 49 12 l 49 12 q 49 -4 56 -19 q 62 -35 78 -44 q 94 -54 119 -54 l 119 -54 q 144 -54 159 -44 q 174 -35 181 -20 q 188 -5 188 12 l 188 12 q 188 32 181 48 q 173 64 156 79 l 156 79 l 174 91 q 191 71 202 52 q 212 32 212 9 l 212 9 q 212 -17 203 -39 q 194 -61 174 -74 q 154 -87 119 -87 z m 76 560 l 76 560 q 119 560 146 541 q 172 521 184 488 q 196 455 196 414 l 196 414 q 196 347 180 263 q 163 178 140 86 l 140 86 l 104 94 q 127 186 142 268 q 157 349 157 410 l 157 410 q 157 466 137 496 q 117 525 72 525 l 72 525 q 59 525 45 523 q 31 521 19 517 l 19 517 l 10 550 q 23 554 41 557 q 59 560 76 560 z"},"ൃ":{"ha":183,"x_min":-114,"x_max":176,"o":"m 20 -302 l 20 -302 q -19 -302 -49 -286 q -79 -271 -96 -241 q -114 -212 -114 -169 l -114 -169 q -114 -111 -78 -76 q -42 -41 15 -41 l 15 -41 q 60 -41 97 -59 q 133 -78 164 -110 l 164 -110 l 157 -144 q 122 -109 88 -92 q 53 -75 16 -75 l 16 -75 q -24 -75 -50 -98 q -77 -122 -77 -171 l -77 -171 q -77 -220 -50 -243 q -23 -267 20 -267 l 20 -267 q 53 -267 81 -253 q 108 -239 124 -208 q 140 -177 140 -125 l 140 -125 q 140 -93 135 -63 q 129 -33 118 5 q 107 42 89 93 l 89 93 q 69 150 57 199 q 45 247 45 299 l 45 299 q 45 365 63 426 q 81 486 110 548 l 110 548 l 150 548 q 127 499 112 459 q 97 419 90 381 q 83 343 83 301 l 83 301 q 83 250 94 206 q 105 162 124 105 l 124 105 q 144 47 155 8 q 166 -32 171 -63 q 176 -94 176 -125 l 176 -125 q 176 -186 156 -225 q 135 -264 100 -283 q 65 -302 20 -302 z"},"ൄ":{"ha":183,"x_min":-209,"x_max":176,"o":"m -26 -302 l -26 -302 q -79 -302 -120 -285 q -162 -269 -185 -235 q -209 -202 -209 -150 l -209 -150 q -209 -104 -185 -75 q -161 -46 -121 -46 l -121 -46 q -94 -46 -76 -62 q -59 -79 -52 -108 l -52 -108 l -59 -106 q -50 -77 -31 -61 q -12 -46 14 -46 l 14 -46 q 35 -46 50 -54 q 65 -63 74 -77 q 83 -92 88 -111 q 92 -130 92 -150 l 92 -150 l 92 -174 l 59 -174 l 59 -155 q 59 -120 48 -99 q 36 -79 12 -79 l 12 -79 q -15 -79 -26 -99 q -38 -119 -38 -155 l -38 -155 l -38 -174 l -71 -174 l -71 -155 q -71 -119 -82 -99 q -94 -79 -120 -79 l -120 -79 q -144 -79 -159 -97 q -174 -115 -174 -150 l -174 -150 q -174 -211 -133 -239 q -93 -267 -25 -267 l -25 -267 q 52 -267 96 -234 q 139 -202 139 -124 l 139 -124 q 139 -93 134 -63 q 129 -33 118 5 q 107 42 89 93 l 89 93 q 69 150 57 197 q 45 244 45 298 l 45 298 q 45 365 61 425 q 77 485 105 548 l 105 548 l 145 548 q 123 499 109 459 q 95 418 89 380 q 82 341 82 299 l 82 299 q 82 242 95 199 q 107 155 124 105 l 124 105 q 144 48 155 8 q 166 -32 171 -63 q 176 -94 176 -126 l 176 -126 q 176 -188 151 -227 q 125 -266 80 -284 q 34 -302 -26 -302 z"},"െ":{"ha":557,"x_min":42,"x_max":515,"o":"m 185 -12 l 185 -12 q 145 -12 113 10 q 80 32 61 85 q 42 137 42 229 l 42 229 q 42 309 61 371 q 80 432 114 475 q 148 517 193 539 q 238 560 290 560 l 290 560 q 345 560 388 540 q 430 519 459 482 q 487 445 501 396 q 515 346 515 287 l 515 287 q 515 211 497 156 q 478 101 450 62 q 421 22 389 -8 l 389 -8 l 364 19 q 391 45 417 81 q 443 116 460 166 q 476 215 476 285 l 476 285 q 476 355 456 409 q 435 463 394 494 q 352 525 289 525 l 289 525 q 229 525 181 489 q 133 453 106 387 q 78 321 78 229 l 78 229 q 78 153 91 108 q 104 63 128 43 q 152 23 185 23 l 185 23 q 208 23 227 35 q 246 46 258 75 q 269 103 269 152 l 269 152 q 269 208 247 241 q 224 273 179 273 l 179 273 q 143 273 114 255 q 85 236 62 207 l 62 207 l 52 237 q 83 273 116 290 q 148 307 183 307 l 183 307 q 218 307 246 291 q 274 274 290 240 q 306 206 306 153 l 306 153 q 306 94 290 58 q 274 21 247 5 q 220 -12 185 -12 z"},"േ":{"ha":460,"x_min":41,"x_max":425,"o":"m 281 -12 l 281 -12 q 233 -12 190 5 q 147 22 114 57 q 80 92 61 147 q 41 202 41 278 l 41 278 q 41 352 63 405 q 84 458 119 492 q 154 526 197 543 q 240 560 285 560 l 285 560 q 333 560 364 543 q 395 525 410 495 q 425 465 425 428 l 425 428 q 425 389 412 363 q 399 336 377 323 q 354 310 326 310 l 326 310 q 290 310 267 325 q 243 340 232 366 q 220 392 220 426 l 220 426 q 220 460 232 488 q 244 516 262 537 l 262 537 l 300 538 q 281 519 268 489 q 255 459 255 428 l 255 428 q 255 389 272 366 q 288 343 325 343 l 325 343 q 357 343 373 365 q 389 386 389 427 l 389 427 q 389 475 363 501 q 336 527 291 527 l 291 527 q 285 527 279 527 q 272 527 265 527 l 265 527 q 209 521 167 488 q 125 454 103 400 q 80 346 80 278 l 80 278 q 80 200 102 145 q 124 90 164 60 q 204 29 258 21 l 258 21 q 265 21 272 21 q 279 21 286 21 l 286 21 q 316 21 338 33 q 360 44 372 67 q 384 89 384 121 l 384 121 q 384 161 368 183 q 351 204 319 204 l 319 204 q 283 204 267 181 q 250 158 250 121 l 250 121 q 250 90 263 60 q 275 30 294 11 l 294 11 l 255 12 q 240 33 228 61 q 215 89 215 123 l 215 123 q 215 156 227 182 q 238 207 262 223 q 285 238 319 238 l 319 238 q 348 238 371 225 q 394 212 408 186 q 421 160 421 121 l 421 121 q 421 83 405 53 q 389 23 358 6 q 327 -12 281 -12 z"},"ൈ":{"ha":1114,"x_min":42,"x_max":1072,"o":"m 185 -12 l 185 -12 q 145 -12 113 10 q 80 32 61 85 q 42 137 42 229 l 42 229 q 42 309 61 371 q 80 432 114 475 q 148 517 193 539 q 238 560 290 560 l 290 560 q 345 560 388 540 q 430 519 459 482 q 487 445 501 396 q 515 346 515 287 l 515 287 q 515 211 497 156 q 478 101 450 62 q 421 22 389 -8 l 389 -8 l 364 19 q 391 45 417 81 q 443 116 460 166 q 476 215 476 285 l 476 285 q 476 355 456 409 q 435 463 394 494 q 352 525 289 525 l 289 525 q 229 525 181 489 q 133 453 106 387 q 78 321 78 229 l 78 229 q 78 153 91 108 q 104 63 128 43 q 152 23 185 23 l 185 23 q 208 23 227 35 q 246 46 258 75 q 269 103 269 152 l 269 152 q 269 208 247 241 q 224 273 179 273 l 179 273 q 143 273 114 255 q 85 236 62 207 l 62 207 l 52 237 q 83 273 116 290 q 148 307 183 307 l 183 307 q 218 307 246 291 q 274 274 290 240 q 306 206 306 153 l 306 153 q 306 94 290 58 q 274 21 247 5 q 220 -12 185 -12 z m 742 -12 l 742 -12 q 702 -12 670 10 q 637 32 618 85 q 599 137 599 229 l 599 229 q 599 309 618 371 q 637 432 671 475 q 705 517 750 539 q 795 560 847 560 l 847 560 q 902 560 945 540 q 987 519 1016 482 q 1044 445 1058 396 q 1072 346 1072 287 l 1072 287 q 1072 211 1054 156 q 1035 101 1007 62 q 978 22 946 -8 l 946 -8 l 921 19 q 948 45 974 81 q 1000 116 1017 166 q 1033 215 1033 285 l 1033 285 q 1033 355 1013 409 q 992 463 951 494 q 909 525 846 525 l 846 525 q 786 525 738 489 q 690 453 663 387 q 635 321 635 229 l 635 229 q 635 153 648 108 q 661 63 685 43 q 709 23 742 23 l 742 23 q 765 23 784 35 q 803 46 815 75 q 826 103 826 152 l 826 152 q 826 208 804 241 q 781 273 736 273 l 736 273 q 700 273 671 255 q 642 236 619 207 l 619 207 l 609 237 q 640 273 673 290 q 705 307 740 307 l 740 307 q 775 307 803 291 q 831 274 847 240 q 863 206 863 153 l 863 153 q 863 94 847 58 q 831 21 804 5 q 777 -12 742 -12 z"},"ൊ":{"ha":1057,"x_min":42,"x_max":1012,"o":"m 185 -12 l 185 -12 q 145 -12 113 10 q 80 32 61 85 q 42 137 42 229 l 42 229 q 42 309 61 371 q 80 432 114 475 q 148 517 193 539 q 238 560 290 560 l 290 560 q 345 560 388 540 q 430 519 459 482 q 487 445 501 396 q 515 346 515 287 l 515 287 q 515 211 497 156 q 478 101 450 62 q 421 22 389 -8 l 389 -8 l 364 19 q 391 45 417 81 q 443 116 460 166 q 476 215 476 285 l 476 285 q 476 355 456 409 q 435 463 394 494 q 352 525 289 525 l 289 525 q 229 525 181 489 q 133 453 106 387 q 78 321 78 229 l 78 229 q 78 153 91 108 q 104 63 128 43 q 152 23 185 23 l 185 23 q 208 23 227 35 q 246 46 258 75 q 269 103 269 152 l 269 152 q 269 208 247 241 q 224 273 179 273 l 179 273 q 143 273 114 255 q 85 236 62 207 l 62 207 l 52 237 q 83 273 116 290 q 148 307 183 307 l 183 307 q 218 307 246 291 q 274 274 290 240 q 306 206 306 153 l 306 153 q 306 94 290 58 q 274 21 247 5 q 220 -12 185 -12 z m 613 260 l 613 260 q 596 260 589 271 q 582 281 582 298 l 582 298 q 582 315 589 326 q 596 336 613 336 l 613 336 q 633 336 640 326 q 646 315 646 298 l 646 298 q 646 281 640 271 q 633 260 613 260 z m 1012 276 l 1012 276 q 1012 209 1003 156 q 994 102 974 65 q 954 28 923 8 q 891 -12 847 -12 l 847 -12 q 809 -12 782 2 q 755 15 736 40 q 717 64 705 96 q 692 127 685 163 l 685 163 l 723 170 q 731 130 746 96 q 760 62 784 42 q 808 22 845 22 l 845 22 q 892 22 920 52 q 948 81 961 138 q 974 194 974 276 l 974 276 q 974 356 961 412 q 948 467 920 496 q 892 525 848 525 l 848 525 q 812 525 788 505 q 764 485 749 453 q 734 420 725 380 l 725 380 l 688 387 q 696 422 709 454 q 721 485 741 509 q 760 533 787 547 q 814 560 850 560 l 850 560 q 893 560 924 540 q 955 519 975 482 q 994 445 1003 393 q 1012 340 1012 276 z"},"ോ":{"ha":947,"x_min":42,"x_max":903,"o":"m 281 -12 l 281 -12 q 233 -12 190 5 q 147 22 114 57 q 80 92 61 147 q 41 202 41 278 l 41 278 q 41 352 63 405 q 84 458 119 492 q 154 526 197 543 q 240 560 285 560 l 285 560 q 333 560 364 543 q 395 525 410 495 q 425 465 425 428 l 425 428 q 425 389 412 363 q 399 336 377 323 q 354 310 326 310 l 326 310 q 290 310 267 325 q 243 340 232 366 q 220 392 220 426 l 220 426 q 220 460 232 488 q 244 516 262 537 l 262 537 l 300 538 q 281 519 268 489 q 255 459 255 428 l 255 428 q 255 389 272 366 q 288 343 325 343 l 325 343 q 357 343 373 365 q 389 386 389 427 l 389 427 q 389 475 363 501 q 336 527 291 527 l 291 527 q 285 527 279 527 q 272 527 265 527 l 265 527 q 209 521 167 488 q 125 454 103 400 q 80 346 80 278 l 80 278 q 80 200 102 145 q 124 90 164 60 q 204 29 258 21 l 258 21 q 265 21 272 21 q 279 21 286 21 l 286 21 q 316 21 338 33 q 360 44 372 67 q 384 89 384 121 l 384 121 q 384 161 368 183 q 351 204 319 204 l 319 204 q 283 204 267 181 q 250 158 250 121 l 250 121 q 250 90 263 60 q 275 30 294 11 l 294 11 l 255 12 q 240 33 228 61 q 215 89 215 123 l 215 123 q 215 156 227 182 q 238 207 262 223 q 285 238 319 238 l 319 238 q 348 238 371 225 q 394 212 408 186 q 421 160 421 121 l 421 121 q 421 83 405 53 q 389 23 358 6 q 327 -12 281 -12 z m 504 260 l 504 260 q 487 260 480 271 q 473 281 473 298 l 473 298 q 473 315 480 326 q 487 336 504 336 l 504 336 q 524 336 531 326 q 537 315 537 298 l 537 298 q 537 281 531 271 q 524 260 504 260 z m 902 276 l 902 276 q 902 209 893 156 q 884 102 864 65 q 844 28 813 8 q 781 -12 737 -12 l 737 -12 q 699 -12 672 2 q 645 15 626 40 q 607 64 595 96 q 582 127 575 163 l 575 163 l 613 170 q 621 130 636 96 q 650 62 674 42 q 698 22 735 22 l 735 22 q 782 22 810 52 q 838 81 851 138 q 864 194 864 276 l 864 276 q 864 356 851 412 q 838 467 810 496 q 782 525 738 525 l 738 525 q 702 525 678 505 q 654 485 639 453 q 624 420 615 380 l 615 380 l 578 387 q 586 422 599 454 q 611 485 631 509 q 650 533 677 547 q 704 560 740 560 l 740 560 q 783 560 814 540 q 845 519 865 482 q 884 445 893 393 q 902 340 902 276 z"},"ൌ":{"ha":1267,"x_min":42,"x_max":1223,"o":"m 185 -12 l 185 -12 q 145 -12 113 10 q 80 32 61 85 q 42 137 42 229 l 42 229 q 42 309 61 371 q 80 432 114 475 q 148 517 193 539 q 238 560 290 560 l 290 560 q 345 560 388 540 q 430 519 459 482 q 487 445 501 396 q 515 346 515 287 l 515 287 q 515 211 497 156 q 478 101 450 62 q 421 22 389 -8 l 389 -8 l 364 19 q 391 45 417 81 q 443 116 460 166 q 476 215 476 285 l 476 285 q 476 355 456 409 q 435 463 394 494 q 352 525 289 525 l 289 525 q 229 525 181 489 q 133 453 106 387 q 78 321 78 229 l 78 229 q 78 153 91 108 q 104 63 128 43 q 152 23 185 23 l 185 23 q 208 23 227 35 q 246 46 258 75 q 269 103 269 152 l 269 152 q 269 208 247 241 q 224 273 179 273 l 179 273 q 143 273 114 255 q 85 236 62 207 l 62 207 l 52 237 q 83 273 116 290 q 148 307 183 307 l 183 307 q 218 307 246 291 q 274 274 290 240 q 306 206 306 153 l 306 153 q 306 94 290 58 q 274 21 247 5 q 220 -12 185 -12 z m 613 260 l 613 260 q 596 260 589 271 q 582 281 582 298 l 582 298 q 582 315 589 326 q 596 336 613 336 l 613 336 q 633 336 640 326 q 646 315 646 298 l 646 298 q 646 281 640 271 q 633 260 613 260 z m 1075 560 l 1075 560 q 1122 560 1155 530 q 1188 500 1206 443 q 1223 385 1223 302 l 1223 302 q 1223 197 1201 127 q 1178 57 1129 23 q 1080 -12 1001 -12 l 1001 -12 q 960 -12 922 -4 q 884 4 846 24 l 846 24 l 864 56 q 898 39 929 31 q 960 23 1000 23 l 1000 23 q 1072 23 1112 55 q 1152 87 1169 149 q 1185 211 1185 302 l 1185 302 q 1185 414 1155 470 q 1125 525 1074 525 l 1074 525 q 1051 525 1036 516 q 1020 507 1010 492 l 1010 492 q 992 466 987 430 q 981 394 981 348 l 981 348 l 981 256 l 944 256 l 944 350 q 944 403 937 437 q 930 471 915 492 l 915 492 q 904 508 888 517 q 871 525 849 525 l 849 525 q 799 525 774 486 q 749 447 749 388 l 749 388 q 749 354 754 323 q 758 291 766 260 l 766 260 l 730 253 q 722 285 717 319 q 711 352 711 390 l 711 390 q 711 438 727 476 q 743 514 774 537 q 804 560 847 560 l 847 560 q 892 560 923 533 q 954 506 966 442 l 966 442 l 958 441 q 969 503 1000 532 q 1031 560 1075 560 z"},"്":{"ha":0,"x_min":-222,"x_max":41,"o":"m -91 599 l -91 599 q -131 599 -160 615 q -190 631 -206 663 q -222 695 -222 744 l -222 744 q -222 761 -219 778 q -217 795 -214 808 l -214 808 l -179 802 q -183 789 -184 775 q -186 760 -186 744 l -186 744 q -186 702 -174 678 q -162 653 -140 643 q -119 633 -91 633 l -91 633 q -62 633 -40 644 q -18 654 -6 679 q 6 703 6 744 l 6 744 q 6 760 4 775 q 2 790 -1 802 l -1 802 l 33 808 q 36 796 39 779 q 41 762 41 744 l 41 744 q 41 695 25 663 q 9 630 -21 615 q -51 599 -91 599 z"},"ൎ":{"ha":0,"x_min":-302,"x_max":-256,"o":"m -302 799 l -256 799 l -262 625 l -297 625 l -302 799 z"},"൏":{"ha":982,"x_min":49,"x_max":935,"o":"m 461 560 l 461 560 q 533 560 573 524 q 612 488 627 423 l 627 423 l 618 429 q 633 496 668 528 q 702 560 758 560 l 758 560 q 815 560 854 524 q 893 487 914 415 q 935 342 935 234 l 935 234 q 935 87 891 -15 q 846 -117 749 -170 q 652 -224 498 -224 l 498 -224 q 393 -224 317 -199 q 240 -175 189 -131 q 138 -88 107 -30 q 76 27 63 93 q 49 158 49 225 l 49 225 q 49 309 66 382 q 83 454 112 529 l 112 529 l 146 516 q 118 447 103 375 q 87 303 87 226 l 87 226 q 87 165 98 106 q 109 46 136 -7 q 163 -60 210 -101 q 256 -142 327 -165 q 398 -189 499 -189 l 499 -189 q 604 -189 680 -162 q 755 -135 803 -81 q 851 -28 874 52 q 897 131 897 236 l 897 236 q 897 327 882 392 q 866 456 836 491 q 805 525 759 525 l 759 525 q 732 525 714 517 q 696 509 682 494 l 682 494 q 660 470 651 430 q 641 390 641 326 l 641 326 l 641 0 l 604 0 l 604 321 q 604 390 593 430 q 581 470 554 494 l 554 494 q 537 509 515 517 q 493 525 461 525 l 461 525 q 402 525 358 489 q 313 452 289 388 q 265 323 265 238 l 265 238 l 265 223 q 265 150 278 106 q 291 62 315 43 q 339 23 372 23 l 372 23 q 395 23 414 35 q 432 46 444 74 q 455 102 455 152 l 455 152 q 455 208 433 241 q 411 273 366 273 l 366 273 q 330 273 301 255 q 272 236 249 207 l 249 207 l 239 237 q 269 273 302 290 q 335 307 370 307 l 370 307 q 405 307 433 291 q 460 274 477 240 q 493 206 493 153 l 493 153 q 493 94 477 58 q 461 21 434 5 q 407 -12 372 -12 l 372 -12 q 331 -12 299 10 q 267 32 248 85 q 229 137 229 228 l 229 228 q 229 334 259 408 q 288 482 341 521 q 393 560 461 560 z"},"ൔ":{"ha":495,"x_min":41,"x_max":486,"o":"m 117 792 l 117 792 q 142 792 161 786 q 180 779 194 768 l 194 768 q 217 750 226 722 q 235 694 235 645 l 235 645 l 235 514 q 235 455 242 409 q 248 362 265 322 q 281 281 311 237 l 311 237 l 320 226 q 351 187 391 140 q 430 93 486 33 l 486 33 l 469 0 l 58 0 l 58 271 q 58 319 63 358 q 68 397 80 429 q 91 461 110 488 l 110 488 q 134 520 169 539 q 203 558 247 558 l 247 558 q 295 558 327 536 q 358 513 374 475 q 389 437 389 390 l 389 390 q 389 340 371 295 q 353 250 322 207 l 322 207 l 314 197 q 289 164 260 133 q 231 102 200 74 q 168 45 137 18 l 137 18 l 135 30 q 159 32 183 33 q 207 34 238 34 l 238 34 l 375 34 q 391 34 406 34 q 421 34 436 34 q 450 33 462 31 l 462 31 l 444 29 q 398 79 363 120 q 327 161 298 198 l 298 198 l 290 209 q 255 259 235 303 q 215 346 207 395 q 198 444 198 509 l 198 509 l 198 639 q 198 681 192 705 q 185 728 167 742 l 167 742 q 157 749 145 753 q 133 757 115 757 l 115 757 q 98 757 81 754 q 64 751 50 746 l 50 746 l 41 780 q 56 785 77 789 q 98 792 117 792 z m 95 257 l 95 33 l 104 34 q 139 63 173 94 q 207 125 237 158 q 267 191 291 225 l 291 225 l 299 237 q 324 274 337 312 q 350 350 350 390 l 350 390 q 350 430 339 460 q 327 490 303 507 q 279 524 241 524 l 241 524 q 209 524 183 508 q 156 492 139 465 l 139 465 q 122 441 113 411 q 103 381 99 343 q 95 305 95 257 l 95 257 z"},"ൕ":{"ha":806,"x_min":42,"x_max":771,"o":"m 542 -12 l 542 -12 q 513 -12 489 -8 q 465 -4 445 4 q 424 12 406 23 l 406 23 q 403 26 400 29 q 396 31 393 33 l 393 33 q 350 67 322 117 q 293 166 279 225 q 265 283 265 343 l 265 343 q 265 387 273 425 q 281 463 298 491 l 298 491 l 306 501 q 319 520 336 533 q 352 546 372 553 q 392 560 416 560 l 416 560 q 486 560 526 505 q 565 449 565 341 l 565 341 q 565 273 551 214 q 537 155 509 109 q 481 63 437 33 l 437 33 q 435 31 432 29 q 428 27 425 24 l 425 24 q 397 7 364 -2 q 331 -12 290 -12 l 290 -12 q 231 -12 185 12 q 139 36 107 81 q 75 126 59 189 q 42 251 42 328 l 42 328 q 42 405 64 457 q 86 508 124 534 q 161 560 207 560 l 207 560 q 251 560 280 541 q 309 521 330 497 l 330 497 l 304 472 q 287 496 264 511 q 240 525 209 525 l 209 525 q 175 525 146 505 q 116 485 98 442 q 80 398 80 326 l 80 326 q 80 236 104 168 q 128 99 175 61 q 222 22 290 22 l 290 22 q 321 22 347 28 q 372 33 393 44 l 393 44 q 396 46 400 48 q 404 50 408 52 l 408 52 q 449 78 476 123 q 502 167 515 224 q 527 280 527 340 l 527 340 q 527 406 514 447 q 500 487 475 506 q 450 525 416 525 l 416 525 q 381 525 356 505 q 330 484 317 444 q 303 403 303 341 l 303 341 q 303 289 316 234 q 328 178 355 130 q 381 82 422 53 l 422 53 q 426 51 429 50 q 432 48 436 46 l 436 46 q 456 34 481 28 q 506 22 541 22 l 541 22 q 610 22 650 48 q 690 74 708 120 q 726 165 726 225 l 726 225 q 726 266 718 304 q 709 341 693 380 q 676 419 650 464 l 650 464 q 624 511 607 546 q 589 581 581 610 q 572 639 572 667 l 572 667 q 572 700 586 729 q 599 757 626 775 q 653 792 695 792 l 695 792 q 716 792 735 789 q 754 786 771 780 l 771 780 l 762 746 q 746 752 731 755 q 716 757 697 757 l 697 757 q 650 757 630 730 q 610 702 610 666 l 610 666 q 610 643 617 619 q 624 595 640 563 q 656 530 683 480 l 683 480 q 709 435 727 393 q 745 351 755 310 q 764 269 764 227 l 764 227 q 764 184 756 147 q 747 110 730 81 q 713 51 687 31 q 660 10 624 -1 q 588 -12 542 -12 z"},"ൖ":{"ha":548,"x_min":39,"x_max":509,"o":"m 138 145 l 138 145 q 138 111 147 84 q 155 56 178 40 q 201 23 242 23 l 242 23 q 287 23 307 48 q 327 72 327 117 l 327 117 q 327 155 316 190 q 305 225 290 261 q 275 296 264 335 q 253 373 253 417 l 253 417 q 253 457 269 490 q 284 522 313 541 q 341 560 380 560 l 380 560 q 425 560 453 538 q 481 515 495 479 q 509 443 509 399 l 509 399 q 509 331 484 278 q 458 225 409 195 q 360 165 289 165 l 289 165 l 280 165 q 236 165 199 175 q 161 184 131 204 l 131 204 l 118 211 q 93 229 75 256 q 57 283 48 318 q 39 352 39 395 l 39 395 q 39 438 51 479 q 62 520 84 559 l 84 559 l 115 541 q 95 502 86 467 q 77 432 77 395 l 77 395 q 77 343 91 307 q 104 271 129 246 l 129 246 l 140 238 q 166 218 201 209 q 236 200 278 200 l 278 200 l 290 200 q 353 200 393 226 q 433 252 452 298 q 471 343 471 399 l 471 399 q 471 454 449 490 q 427 525 381 525 l 381 525 q 351 525 331 511 q 310 496 300 471 q 290 446 290 416 l 290 416 q 290 374 301 336 q 312 298 327 262 q 342 226 353 190 q 364 154 364 116 l 364 116 q 364 90 358 67 q 351 44 336 26 q 321 8 298 -2 q 275 -12 241 -12 l 241 -12 q 195 -12 164 7 q 132 25 117 61 q 101 96 101 147 l 101 147 q 101 182 111 221 q 120 259 141 311 q 161 363 192 438 l 192 438 q 219 498 234 539 q 248 579 254 610 q 259 640 259 668 l 259 668 q 259 707 241 732 q 222 757 177 757 l 177 757 q 158 757 141 754 q 124 750 109 746 l 109 746 l 100 779 q 118 785 139 789 q 159 792 180 792 l 180 792 q 224 792 250 774 q 275 756 287 729 q 298 702 298 672 l 298 672 q 298 649 295 625 q 291 601 283 573 q 274 544 261 509 q 247 473 226 425 l 226 425 q 200 365 183 323 q 166 281 156 250 q 146 219 142 195 q 138 170 138 145 z"},"ൗ":{"ha":595,"x_min":39,"x_max":551,"o":"m 403 560 l 403 560 q 450 560 483 530 q 516 500 534 443 q 551 385 551 302 l 551 302 q 551 197 529 127 q 506 57 457 23 q 408 -12 329 -12 l 329 -12 q 288 -12 250 -4 q 212 4 174 24 l 174 24 l 192 56 q 226 39 257 31 q 288 23 328 23 l 328 23 q 400 23 440 55 q 480 87 497 149 q 513 211 513 302 l 513 302 q 513 414 483 470 q 453 525 402 525 l 402 525 q 379 525 364 516 q 348 507 338 492 l 338 492 q 320 466 315 430 q 309 394 309 348 l 309 348 l 309 256 l 272 256 l 272 350 q 272 403 265 437 q 258 471 243 492 l 243 492 q 232 508 216 517 q 199 525 177 525 l 177 525 q 127 525 102 486 q 77 447 77 388 l 77 388 q 77 354 82 323 q 86 291 94 260 l 94 260 l 58 253 q 50 285 45 319 q 39 352 39 390 l 39 390 q 39 438 55 476 q 71 514 102 537 q 132 560 175 560 l 175 560 q 220 560 251 533 q 282 506 294 442 l 294 442 l 286 441 q 297 503 328 532 q 359 560 403 560 z"},"൘":{"ha":950,"x_min":42,"x_max":902,"o":"m 474 -12 l 474 -12 q 419 -12 385 22 q 351 55 338 124 l 338 124 l 347 119 q 335 54 302 21 q 268 -12 215 -12 l 215 -12 q 162 -12 123 21 q 84 54 63 113 q 42 172 42 249 l 42 249 q 42 327 59 382 q 75 437 102 478 q 129 519 160 554 l 160 554 l 188 529 q 158 496 134 457 q 109 418 95 368 q 80 318 80 250 l 80 250 q 80 187 96 136 q 111 84 142 54 q 172 23 215 23 l 215 23 q 238 23 256 31 q 273 39 286 54 l 286 54 q 308 79 317 119 q 325 159 325 220 l 325 220 l 325 548 l 362 548 l 362 220 q 362 157 370 118 q 378 79 399 55 l 399 55 q 412 40 431 32 q 450 23 474 23 l 474 23 q 499 23 518 32 q 537 40 549 55 l 549 55 q 570 78 578 117 q 585 155 585 219 l 585 219 l 585 548 l 622 548 l 622 235 l 609 124 q 599 54 564 21 q 529 -12 474 -12 z m 734 -12 l 734 -12 q 682 -12 648 20 q 613 52 600 119 l 600 119 l 594 224 l 594 538 l 622 538 l 622 220 q 622 158 631 120 q 639 81 660 56 l 660 56 q 673 40 691 32 q 709 23 733 23 l 733 23 q 777 23 806 55 q 835 86 850 151 q 864 215 864 315 l 864 315 q 864 412 848 491 q 832 570 802 630 q 771 689 726 729 q 681 768 623 788 q 564 808 492 808 l 492 808 q 441 808 394 803 q 347 797 302 786 l 302 786 l 296 820 q 324 828 355 833 q 386 838 421 841 q 455 843 493 843 l 493 843 q 572 843 637 821 q 701 799 751 756 q 800 713 834 649 q 868 585 885 502 q 902 418 902 315 l 902 315 q 902 200 883 128 q 863 55 825 22 q 787 -12 734 -12 z"},"൙":{"ha":854,"x_min":42,"x_max":833,"o":"m 282 560 l 282 560 q 344 560 391 536 q 437 512 469 469 q 500 425 515 365 q 530 304 530 231 l 530 231 q 530 137 511 84 q 492 31 458 10 q 424 -12 379 -12 l 379 -12 q 333 -12 304 9 q 274 30 260 63 q 246 96 246 134 l 246 134 q 246 175 260 206 q 274 237 299 258 l 299 258 q 320 276 348 287 q 375 298 411 303 q 446 308 492 308 l 492 308 l 526 308 l 526 273 l 491 273 q 434 273 394 265 q 354 257 326 234 l 326 234 q 306 218 295 194 q 284 169 284 136 l 284 136 q 284 84 309 53 q 333 22 378 22 l 378 22 q 417 22 443 43 q 468 63 481 109 q 493 154 493 231 l 493 231 q 493 247 493 261 q 492 275 491 288 l 491 288 l 490 298 q 483 369 457 420 q 431 470 388 498 q 344 525 283 525 l 283 525 q 219 525 174 494 q 128 463 104 409 q 80 355 80 285 l 80 285 q 80 221 95 172 q 109 123 135 87 q 160 50 191 20 l 191 20 l 166 -6 q 136 21 108 60 q 79 99 61 155 q 42 210 42 286 l 42 286 q 42 342 57 392 q 72 441 102 479 q 132 517 177 539 q 222 560 282 560 z m 717 548 l 717 548 q 755 548 781 531 q 806 513 820 484 q 833 455 833 418 l 833 418 q 833 384 823 356 q 812 328 791 310 l 791 310 q 776 297 758 289 q 739 280 715 277 q 691 273 661 273 l 661 273 l 513 273 l 514 308 l 662 308 q 704 308 728 315 q 751 321 766 335 l 766 335 q 781 349 788 370 q 795 391 795 417 l 795 417 q 795 460 776 487 q 756 513 718 513 l 718 513 q 677 513 655 486 q 632 458 632 408 l 632 408 q 632 372 643 343 q 653 313 669 287 l 669 287 l 633 283 q 617 309 606 342 q 595 375 595 413 l 595 413 q 595 455 611 486 q 627 516 655 532 q 683 548 717 548 z"},"൚":{"ha":840,"x_min":42,"x_max":783,"o":"m 561 560 l 561 560 q 612 560 651 545 q 689 530 715 502 l 715 502 q 739 478 754 445 q 769 411 776 369 q 783 327 783 271 l 783 271 l 783 0 l 382 0 l 382 34 q 444 93 495 156 q 545 218 576 282 q 606 346 606 406 l 606 406 q 606 437 598 463 q 590 489 572 505 q 554 521 522 521 l 522 521 q 492 521 468 508 q 443 495 425 470 l 425 470 q 398 437 387 389 q 375 341 375 268 l 375 268 l 375 230 l 337 230 l 337 326 q 337 389 328 430 q 319 470 297 494 l 297 494 q 283 509 266 517 q 248 525 223 525 l 223 525 q 177 525 145 495 q 113 464 97 413 q 80 361 80 298 l 80 298 q 80 230 95 180 q 109 129 134 91 q 158 52 188 19 l 188 19 l 161 -6 q 130 28 103 69 q 75 110 59 166 q 42 221 42 298 l 42 298 q 42 376 64 435 q 86 494 127 527 q 167 560 223 560 l 223 560 q 271 560 301 538 q 330 515 346 477 q 361 439 368 391 l 368 391 l 352 389 q 363 445 391 483 q 419 521 462 541 q 505 560 561 560 z m 644 405 l 644 405 q 644 340 614 275 q 584 209 533 146 q 481 82 415 17 l 415 17 l 416 32 q 441 34 477 34 q 513 34 543 34 l 543 34 l 746 34 l 746 265 q 746 347 729 404 q 712 461 675 493 q 637 525 574 528 l 574 528 l 573 531 q 612 516 628 483 q 644 449 644 405 z"},"൛":{"ha":756,"x_min":68,"x_max":714,"o":"m 490 -12 l 490 -12 q 437 -12 397 9 q 356 29 328 66 q 300 103 286 153 q 272 202 272 260 l 272 260 q 272 334 289 386 q 306 437 330 472 q 354 506 376 527 l 376 527 l 375 513 l 105 513 l 105 0 l 68 0 l 68 548 l 397 548 l 414 519 q 392 498 368 464 q 343 430 327 381 q 310 331 310 263 l 310 263 q 310 193 331 139 q 352 84 392 54 q 432 23 491 23 l 491 23 q 552 23 593 55 q 634 87 655 142 q 676 197 676 263 l 676 263 q 676 327 662 376 q 647 424 622 461 q 597 498 564 527 l 564 527 l 590 554 q 620 527 649 488 q 677 449 696 394 q 714 338 714 262 l 714 262 q 714 203 700 154 q 685 104 656 67 q 627 30 586 9 q 544 -12 490 -12 z"},"൜":{"ha":1194,"x_min":42,"x_max":1152,"o":"m 722 560 l 722 560 q 755 560 781 549 q 806 537 823 517 l 823 517 q 840 498 849 474 q 858 450 862 418 q 865 385 865 341 l 865 341 l 865 232 q 865 163 872 122 q 879 80 900 55 l 900 55 q 913 40 931 32 q 949 23 978 23 l 978 23 q 1022 23 1053 51 q 1083 79 1099 130 q 1114 181 1114 249 l 1114 249 q 1114 317 1100 368 q 1085 419 1061 458 q 1036 497 1005 530 l 1005 530 l 1033 556 q 1064 521 1092 479 q 1119 437 1136 382 q 1152 326 1152 249 l 1152 249 q 1152 169 1132 110 q 1111 51 1072 20 q 1032 -12 977 -12 l 977 -12 q 942 -12 916 0 q 890 11 873 31 l 873 31 q 854 51 844 78 q 834 104 831 139 q 827 173 827 216 l 827 216 l 827 335 q 827 393 821 432 q 815 471 795 494 l 795 494 q 782 509 764 517 q 745 525 722 525 l 722 525 q 698 525 680 517 q 661 509 648 494 l 648 494 q 628 471 622 432 q 616 393 616 334 l 616 334 l 616 207 q 616 164 612 131 q 608 98 599 73 q 590 48 573 29 l 573 29 q 555 10 530 -1 q 505 -12 472 -12 l 472 -12 q 439 -12 414 0 q 388 11 371 31 l 371 31 q 354 49 345 74 q 336 98 333 131 q 329 164 329 207 l 329 207 l 329 315 q 329 384 322 426 q 315 467 294 492 l 294 492 q 281 508 263 517 q 245 525 216 525 l 216 525 q 172 525 142 497 q 112 468 96 418 q 80 367 80 299 l 80 299 q 80 231 95 180 q 109 129 134 90 q 159 51 189 17 l 189 17 l 161 -8 q 130 28 103 69 q 75 110 59 166 q 42 222 42 298 l 42 298 q 42 379 63 438 q 83 496 123 528 q 162 560 218 560 l 218 560 q 253 560 279 549 q 304 537 321 518 l 321 518 q 340 497 350 470 q 359 443 363 409 q 366 374 366 329 l 366 329 l 366 212 q 366 155 373 116 q 379 77 399 53 l 399 53 q 411 39 430 31 q 449 23 472 23 l 472 23 q 496 23 515 31 q 533 39 545 53 l 545 53 q 566 77 572 116 q 578 155 578 213 l 578 213 l 578 340 q 578 384 582 418 q 585 451 595 476 q 604 500 621 519 l 621 519 q 638 537 664 549 q 689 560 722 560 z"},"൝":{"ha":1607,"x_min":10,"x_max":1565,"o":"m 637 560 l 637 560 q 670 560 696 549 q 721 537 738 517 l 738 517 q 755 498 764 474 q 773 450 777 418 q 780 385 780 341 l 780 341 l 780 212 q 780 155 786 116 q 792 77 812 53 l 812 53 q 825 39 844 31 q 862 23 886 23 l 886 23 q 909 23 928 31 q 946 39 959 53 l 959 53 q 979 77 986 116 q 992 155 992 213 l 992 213 l 992 340 q 992 384 996 418 q 999 451 1009 476 q 1018 500 1035 519 l 1035 519 q 1052 537 1077 549 q 1102 560 1135 560 l 1135 560 q 1168 560 1194 549 q 1219 537 1237 517 l 1237 517 q 1253 498 1262 474 q 1271 450 1275 418 q 1278 385 1278 341 l 1278 341 l 1278 232 q 1278 163 1285 122 q 1292 80 1313 55 l 1313 55 q 1326 40 1345 32 q 1363 23 1391 23 l 1391 23 q 1436 23 1466 51 q 1496 79 1512 130 q 1527 181 1527 249 l 1527 249 q 1527 317 1513 368 q 1498 419 1474 458 q 1449 497 1419 530 l 1419 530 l 1446 556 q 1477 521 1505 479 q 1532 437 1549 382 q 1565 326 1565 249 l 1565 249 q 1565 169 1545 110 q 1524 51 1485 20 q 1445 -12 1390 -12 l 1390 -12 q 1355 -12 1329 0 q 1303 11 1286 31 l 1286 31 q 1267 51 1258 78 q 1248 104 1245 139 q 1241 173 1241 216 l 1241 216 l 1241 335 q 1241 393 1235 432 q 1229 471 1208 494 l 1208 494 q 1196 509 1178 517 q 1159 525 1135 525 l 1135 525 q 1111 525 1093 517 q 1074 509 1062 494 l 1062 494 q 1041 471 1035 432 q 1029 393 1029 334 l 1029 334 l 1029 207 q 1029 164 1026 131 q 1022 98 1013 73 q 1003 48 986 29 l 986 29 q 969 10 944 -1 q 918 -12 886 -12 l 886 -12 q 852 -12 827 0 q 801 11 784 31 l 784 31 q 768 49 759 74 q 749 98 746 131 q 743 164 743 207 l 743 207 l 743 335 q 743 393 737 432 q 730 471 710 494 l 710 494 q 698 509 679 517 q 660 525 637 525 l 637 525 q 613 525 595 517 q 576 509 564 494 l 564 494 q 543 471 537 432 q 531 393 531 334 l 531 334 l 531 208 q 531 136 521 97 q 511 58 486 30 l 486 30 q 468 11 443 0 q 417 -12 383 -12 l 383 -12 q 327 -12 293 21 q 259 54 249 125 l 249 125 l 257 119 q 249 77 231 48 q 212 18 184 3 q 155 -12 113 -12 l 113 -12 q 88 -12 61 -6 q 34 0 10 13 l 10 13 l 24 44 q 44 34 66 29 q 88 23 114 23 l 114 23 q 143 23 162 31 q 181 39 194 54 l 194 54 q 217 78 226 118 q 235 158 235 221 l 235 221 l 235 548 l 273 548 l 273 215 q 273 155 281 115 q 289 74 310 51 l 310 51 q 323 37 341 30 q 358 23 382 23 l 382 23 q 408 23 427 32 q 446 40 458 55 l 458 55 q 478 78 486 117 q 493 155 493 222 l 493 222 l 493 340 q 493 384 497 418 q 501 451 510 476 q 519 500 536 519 l 536 519 q 554 537 579 549 q 604 560 637 560 z"},"൞":{"ha":1051,"x_min":42,"x_max":1020,"o":"m 282 560 l 282 560 q 344 560 391 536 q 437 512 469 469 q 500 425 515 365 q 530 304 530 231 l 530 231 q 530 137 511 84 q 492 31 458 10 q 424 -12 379 -12 l 379 -12 q 333 -12 304 9 q 274 30 260 63 q 246 96 246 134 l 246 134 q 246 175 260 206 q 274 237 299 258 l 299 258 q 320 276 348 287 q 375 298 411 303 q 446 308 492 308 l 492 308 l 508 308 l 508 273 l 491 273 q 434 273 394 265 q 354 257 326 234 l 326 234 q 306 218 295 194 q 284 169 284 136 l 284 136 q 284 84 309 53 q 333 22 378 22 l 378 22 q 417 22 443 43 q 468 63 481 109 q 493 154 493 231 l 493 231 q 493 247 493 261 q 492 275 491 288 l 491 288 l 490 298 q 483 369 457 420 q 431 470 388 498 q 344 525 283 525 l 283 525 q 219 525 174 494 q 128 463 104 409 q 80 355 80 285 l 80 285 q 80 221 95 172 q 109 123 135 87 q 160 50 191 20 l 191 20 l 166 -6 q 136 21 108 60 q 79 99 61 155 q 42 210 42 286 l 42 286 q 42 342 57 392 q 72 441 102 479 q 132 517 177 539 q 222 560 282 560 z m 877 217 l 877 217 q 834 217 802 237 q 770 257 753 294 q 735 330 735 379 l 735 379 q 735 425 751 464 q 767 502 792 528 l 792 528 l 792 513 l 608 513 l 621 524 q 642 498 655 469 q 667 439 667 405 l 667 405 q 667 352 645 323 q 622 294 586 284 q 549 273 508 273 l 508 273 l 494 273 l 494 308 l 505 308 q 537 308 566 314 q 594 320 612 341 q 630 361 630 404 l 630 404 q 630 437 618 464 q 605 491 587 514 l 587 514 l 600 548 l 808 548 l 824 521 q 800 492 786 457 q 772 422 772 382 l 772 382 q 772 317 801 284 q 830 251 877 251 l 877 251 q 911 251 935 268 q 958 284 970 313 q 982 342 982 379 l 982 379 q 982 429 965 466 q 947 502 919 531 l 919 531 l 945 555 q 977 520 999 479 q 1020 437 1020 378 l 1020 378 q 1020 331 1002 295 q 984 258 952 238 q 920 217 877 217 z"},"ൟ":{"ha":1036,"x_min":28,"x_max":1008,"o":"m 28 265 l 28 265 q 28 323 56 357 q 84 390 130 390 l 130 390 q 176 390 205 357 q 233 323 233 265 l 233 265 q 233 207 205 174 q 176 140 130 140 l 130 140 q 84 140 56 174 q 28 207 28 265 z m 63 265 l 63 265 q 63 221 81 197 q 98 172 130 172 l 130 172 q 162 172 180 197 q 198 221 198 265 l 198 265 q 198 309 180 333 q 162 357 130 357 l 130 357 q 99 357 81 333 q 63 309 63 265 z m 804 265 l 804 265 q 804 323 832 357 q 860 390 906 390 l 906 390 q 952 390 980 357 q 1008 323 1008 265 l 1008 265 q 1008 207 980 174 q 952 140 906 140 l 906 140 q 860 140 832 174 q 804 207 804 265 z m 839 265 l 839 265 q 839 221 857 197 q 874 172 906 172 l 906 172 q 938 172 956 197 q 973 221 973 265 l 973 265 q 973 309 956 333 q 938 357 906 357 l 906 357 q 874 357 857 333 q 839 309 839 265 z m 514 560 l 514 560 q 576 560 622 537 q 668 513 700 470 q 731 427 747 369 q 762 310 762 239 l 762 239 q 762 144 743 89 q 724 34 690 11 q 656 -12 612 -12 l 612 -12 q 563 -12 532 14 q 500 39 485 85 q 470 131 470 190 l 470 190 q 470 288 510 337 q 550 385 614 385 l 614 385 q 650 385 676 370 q 702 355 721 331 q 740 306 752 276 l 752 276 l 741 257 q 729 281 713 302 q 696 323 673 337 q 650 350 619 350 l 619 350 q 562 350 535 309 q 508 267 508 190 l 508 190 q 508 140 518 102 q 528 64 552 43 q 575 22 613 22 l 613 22 q 648 22 673 43 q 698 64 712 112 q 726 160 726 240 l 726 240 q 726 253 725 271 q 724 289 723 298 l 723 298 q 723 302 724 306 q 724 309 723 313 l 723 313 q 714 368 691 417 q 667 465 625 495 q 582 525 515 525 l 515 525 q 451 525 406 494 q 360 463 336 409 q 312 355 312 285 l 312 285 q 312 221 327 172 q 341 123 366 87 q 391 50 423 20 l 423 20 l 398 -6 q 368 21 340 60 q 311 99 293 155 q 274 210 274 286 l 274 286 q 274 342 289 392 q 304 441 334 479 q 364 517 409 539 q 454 560 514 560 z"},"ൠ":{"ha":687,"x_min":39,"x_max":648,"o":"m 512 560 l 512 560 q 577 560 613 509 q 648 457 648 364 l 648 364 q 648 306 634 263 q 619 219 592 187 l 592 187 q 559 148 508 128 q 457 107 390 106 l 390 106 l 357 106 l 330 106 l 300 105 q 233 107 182 127 q 130 147 97 186 l 97 186 q 69 218 54 262 q 39 305 39 362 l 39 362 q 39 423 56 468 q 72 512 104 536 q 135 560 180 560 l 180 560 q 218 560 245 541 q 271 522 285 490 q 298 457 298 415 l 298 415 q 298 372 284 340 q 270 307 243 289 q 215 271 174 271 l 174 271 q 147 271 126 280 q 104 288 86 302 q 67 316 51 333 l 51 333 l 62 364 q 75 348 91 335 q 106 321 126 313 q 145 305 170 305 l 170 305 q 215 305 238 333 q 261 361 261 415 l 261 415 q 261 465 240 495 q 219 525 179 525 l 179 525 q 143 525 120 505 q 97 484 86 448 q 74 411 74 363 l 74 363 q 74 354 75 345 q 76 336 77 327 l 77 327 l 77 315 q 84 266 106 231 q 127 195 161 173 q 195 151 240 140 q 284 129 337 129 l 337 129 l 349 129 q 403 129 448 140 q 492 151 526 173 q 560 195 582 231 q 603 266 611 316 l 611 316 l 610 328 q 611 336 612 346 q 613 355 613 364 l 613 364 q 613 413 602 449 q 591 485 570 505 q 548 525 512 525 l 512 525 q 469 525 448 493 q 426 461 426 411 l 426 411 q 426 360 449 333 q 471 305 515 305 l 515 305 q 541 305 561 313 q 580 321 596 334 q 612 347 625 363 l 625 363 l 636 332 q 621 316 603 302 q 584 288 562 280 q 539 271 511 271 l 511 271 q 471 271 444 289 q 417 307 403 339 q 389 371 389 411 l 389 411 q 389 454 404 487 q 418 520 446 540 q 473 560 512 560 z m 343 -205 l 343 -205 q 247 -205 186 -186 q 124 -168 95 -130 q 65 -93 65 -38 l 65 -38 q 65 5 84 35 q 102 65 135 84 q 168 102 212 110 q 255 118 306 118 l 306 118 l 381 118 q 432 118 476 110 q 519 102 552 84 q 585 66 604 36 q 622 6 622 -38 l 622 -38 q 622 -91 594 -128 q 565 -166 503 -185 q 441 -205 343 -205 z m 344 -171 l 344 -171 q 430 -171 483 -156 q 535 -141 560 -111 q 584 -81 584 -37 l 584 -37 q 584 -3 569 22 q 554 47 525 64 q 495 80 451 88 q 406 96 347 96 l 347 96 l 340 96 q 261 96 209 82 q 156 67 130 38 q 103 8 103 -37 l 103 -37 q 103 -82 127 -111 q 151 -141 204 -156 q 257 -171 344 -171 z m 409 36 l 409 36 q 432 36 447 27 q 462 17 471 2 q 479 -13 483 -31 q 486 -49 486 -67 l 486 -67 l 486 -101 l 454 -101 l 454 -74 q 454 -33 443 -15 q 431 2 407 2 l 407 2 q 383 2 372 -18 q 360 -38 360 -73 l 360 -73 l 360 -101 l 327 -101 l 327 -74 q 327 -38 316 -18 q 304 2 280 2 l 280 2 q 256 2 245 -15 q 233 -33 233 -74 l 233 -74 l 233 -101 l 200 -101 l 200 -66 q 200 -49 204 -30 q 207 -12 216 3 q 225 17 240 27 q 255 36 278 36 l 278 36 q 302 36 319 23 q 335 9 343 -16 l 343 -16 q 352 8 369 22 q 386 36 409 36 z"},"ൡ":{"ha":1015,"x_min":44,"x_max":988,"o":"m 277 560 l 277 560 q 349 560 389 523 q 429 486 444 419 l 444 419 l 448 377 l 456 283 l 456 0 l 419 0 l 419 321 q 419 390 408 430 q 396 470 369 494 l 369 494 q 353 509 331 517 q 309 525 277 525 l 277 525 q 217 525 173 489 q 129 452 105 388 q 80 323 80 238 l 80 238 l 80 223 q 80 150 93 106 q 106 62 130 43 q 154 23 187 23 l 187 23 q 210 23 229 35 q 248 46 260 74 q 271 102 271 152 l 271 152 q 271 208 249 241 q 226 273 182 273 l 182 273 q 145 273 117 255 q 88 236 64 207 l 64 207 l 54 237 q 85 273 118 290 q 150 307 185 307 l 185 307 q 220 307 248 291 q 276 274 292 240 q 308 206 308 153 l 308 153 q 308 94 292 58 q 276 21 249 5 q 222 -12 187 -12 l 187 -12 q 147 -12 115 10 q 82 32 63 85 q 44 137 44 228 l 44 228 q 44 334 74 408 q 104 482 157 521 q 209 560 277 560 z m 610 560 l 610 560 q 680 560 727 529 q 773 498 800 447 q 827 395 838 334 l 838 334 q 842 308 845 280 q 847 251 847 224 l 847 224 q 847 137 827 86 q 806 34 772 11 q 738 -12 694 -12 l 694 -12 q 645 -12 615 13 q 585 37 572 77 q 559 117 559 162 l 559 162 q 559 259 614 311 q 668 362 759 362 l 759 362 q 772 362 784 361 q 796 359 807 357 l 807 357 l 822 355 q 879 340 916 300 q 952 259 970 203 q 988 147 988 84 l 988 84 q 988 16 972 -37 q 955 -91 924 -127 q 892 -163 846 -182 q 800 -201 741 -201 l 741 -201 q 708 -201 679 -196 q 649 -191 622 -182 l 622 -182 l 634 -148 q 656 -156 683 -161 q 710 -166 741 -166 l 741 -166 q 796 -166 836 -148 q 875 -130 901 -97 q 926 -65 938 -18 q 950 28 950 86 l 950 86 q 950 137 938 184 q 925 231 898 266 q 871 301 829 317 l 829 317 l 813 321 q 801 324 788 326 q 775 328 762 328 l 762 328 q 713 328 676 311 q 639 294 618 258 q 597 222 597 162 l 597 162 q 597 127 606 95 q 614 63 636 43 q 657 22 695 22 l 695 22 q 752 22 781 73 q 809 124 809 225 l 809 225 q 809 252 807 280 q 805 307 800 335 l 800 335 l 798 349 q 787 395 765 436 q 743 476 706 501 q 668 525 610 525 l 610 525 q 578 525 553 516 q 527 507 508 490 l 508 490 q 491 476 480 454 q 468 431 462 399 q 456 366 456 320 l 456 320 l 456 235 l 430 391 q 437 447 461 485 q 484 522 522 541 q 560 560 610 560 z"},"ൢ":{"ha":0,"x_min":-612,"x_max":-38,"o":"m -447 4 l -447 4 q -392 4 -362 -24 q -333 -52 -321 -103 l -321 -103 l -311 -158 l -311 -332 l -346 -332 l -346 -166 q -346 -125 -353 -96 q -360 -68 -378 -51 l -378 -51 q -390 -38 -407 -32 q -424 -26 -446 -26 l -446 -26 q -481 -26 -508 -41 q -536 -57 -553 -85 q -570 -113 -576 -152 l -576 -152 q -577 -160 -577 -168 q -578 -176 -578 -183 l -578 -183 q -578 -244 -561 -274 q -544 -305 -513 -305 l -513 -305 q -480 -305 -466 -282 q -452 -259 -452 -223 l -452 -223 q -452 -182 -468 -163 q -484 -144 -512 -144 l -512 -144 q -534 -144 -553 -154 q -573 -164 -592 -185 l -592 -185 l -600 -158 q -581 -138 -558 -125 q -535 -112 -509 -112 l -509 -112 q -467 -112 -442 -140 q -417 -169 -417 -223 l -417 -223 q -417 -274 -441 -305 q -466 -337 -513 -337 l -513 -337 q -561 -337 -586 -294 q -612 -251 -612 -182 l -612 -182 q -612 -127 -591 -85 q -570 -43 -533 -19 q -496 4 -447 4 z m -199 4 l -199 4 q -142 4 -106 -21 q -71 -47 -54 -90 q -38 -133 -38 -185 l -38 -185 q -38 -269 -67 -303 q -96 -337 -140 -337 l -140 -337 q -174 -337 -196 -321 q -218 -305 -228 -278 q -239 -252 -239 -218 l -239 -218 q -239 -179 -226 -152 q -214 -126 -191 -112 q -168 -98 -139 -98 l -139 -98 q -112 -98 -94 -109 q -76 -121 -63 -138 q -51 -156 -45 -174 l -45 -174 l -55 -189 q -66 -164 -85 -147 q -104 -130 -134 -130 l -134 -130 q -169 -130 -187 -153 q -205 -177 -205 -219 l -205 -219 q -205 -255 -190 -280 q -175 -305 -140 -305 l -140 -305 q -106 -305 -89 -276 q -72 -247 -72 -186 l -72 -186 q -72 -175 -72 -164 q -73 -153 -74 -146 l -74 -146 l -75 -136 q -78 -110 -92 -84 q -106 -59 -132 -42 q -158 -26 -199 -26 l -199 -26 q -224 -26 -242 -33 q -261 -41 -274 -54 l -274 -54 q -294 -75 -302 -105 q -311 -135 -311 -182 l -311 -182 l -337 -137 q -334 -97 -319 -65 q -304 -34 -274 -15 q -244 4 -199 4 z"},"ൣ":{"ha":0,"x_min":-612,"x_max":56,"o":"m -447 4 l -447 4 q -392 4 -362 -24 q -333 -52 -321 -103 l -321 -103 l -311 -158 l -311 -332 l -346 -332 l -346 -166 q -346 -125 -353 -96 q -360 -68 -378 -51 l -378 -51 q -390 -38 -407 -32 q -424 -26 -446 -26 l -446 -26 q -481 -26 -508 -41 q -536 -57 -553 -85 q -570 -113 -576 -152 l -576 -152 q -577 -160 -577 -168 q -578 -176 -578 -183 l -578 -183 q -578 -244 -561 -274 q -544 -305 -513 -305 l -513 -305 q -480 -305 -466 -282 q -452 -259 -452 -223 l -452 -223 q -452 -182 -468 -163 q -484 -144 -512 -144 l -512 -144 q -534 -144 -553 -154 q -573 -164 -592 -185 l -592 -185 l -600 -158 q -581 -138 -558 -125 q -535 -112 -509 -112 l -509 -112 q -467 -112 -442 -140 q -417 -169 -417 -223 l -417 -223 q -417 -274 -441 -305 q -466 -337 -513 -337 l -513 -337 q -561 -337 -586 -294 q -612 -251 -612 -182 l -612 -182 q -612 -127 -591 -85 q -570 -43 -533 -19 q -496 4 -447 4 z m -199 4 l -199 4 q -143 4 -108 -22 q -74 -48 -57 -91 q -41 -134 -41 -184 l -41 -184 q -41 -241 -54 -274 q -67 -308 -90 -322 q -113 -337 -143 -337 l -143 -337 q -174 -337 -195 -322 q -217 -307 -228 -282 q -239 -258 -239 -228 l -239 -228 q -239 -163 -201 -130 q -164 -98 -104 -98 l -104 -98 q -95 -98 -86 -98 q -77 -99 -68 -101 l -68 -101 q -28 -109 0 -131 q 27 -153 42 -187 q 57 -221 57 -265 l 57 -265 q 57 -292 52 -318 q 46 -345 34 -365 l 34 -365 l 3 -352 q 12 -333 17 -311 q 22 -290 22 -267 l 22 -267 q 22 -218 3 -183 q -16 -149 -55 -135 l -55 -135 l -68 -133 q -76 -131 -85 -130 q -95 -129 -103 -129 l -103 -129 q -152 -129 -178 -154 q -205 -179 -205 -229 l -205 -229 q -205 -258 -190 -281 q -176 -305 -142 -305 l -142 -305 q -109 -305 -92 -277 q -75 -249 -75 -185 l -75 -185 q -75 -168 -76 -151 q -78 -134 -83 -119 l -83 -119 l -86 -107 q -94 -83 -110 -65 q -126 -47 -148 -36 q -170 -26 -199 -26 l -199 -26 q -224 -26 -242 -33 q -261 -41 -274 -54 l -274 -54 q -294 -75 -302 -105 q -311 -135 -311 -182 l -311 -182 l -337 -137 q -335 -108 -326 -82 q -317 -57 -300 -37 q -283 -18 -258 -7 q -233 4 -199 4 z"},"൦":{"ha":458,"x_min":43,"x_max":415,"o":"m 228 48 l 228 48 q 172 48 130 76 q 88 103 66 156 q 43 208 43 282 l 43 282 q 43 357 66 409 q 89 461 131 488 q 172 515 228 515 l 228 515 q 285 515 327 488 q 369 461 392 409 q 415 357 415 282 l 415 282 q 415 207 392 155 q 369 102 327 75 q 285 48 228 48 z m 228 83 l 228 83 q 273 83 306 105 q 339 126 358 171 q 376 215 376 282 l 376 282 q 376 383 336 432 q 295 481 228 481 l 228 481 q 163 481 122 432 q 81 383 81 281 l 81 281 q 81 180 122 132 q 163 83 228 83 z"},"൧":{"ha":707,"x_min":13,"x_max":645,"o":"m 308 -166 l 308 -201 l 186 -201 q 140 -201 109 -194 q 78 -187 55 -170 l 55 -170 q 34 -156 24 -134 q 13 -112 13 -82 l 13 -82 q 13 -57 21 -37 q 29 -17 45 -3 l 45 -3 q 59 11 78 19 q 96 27 123 31 q 150 34 189 34 l 189 34 l 315 34 l 315 0 l 195 0 q 146 0 118 -5 q 89 -10 72 -26 l 72 -26 q 62 -36 57 -50 q 51 -64 51 -81 l 51 -81 q 51 -121 78 -142 l 78 -142 q 94 -155 121 -160 q 148 -166 192 -166 l 192 -166 l 308 -166 z m 466 560 l 466 560 q 507 560 537 548 q 567 535 587 515 l 587 515 q 622 481 634 434 q 645 387 645 320 l 645 320 l 645 0 l 285 0 l 285 326 q 285 368 291 403 q 296 437 309 465 q 321 493 344 515 l 344 515 q 364 535 395 548 q 426 560 466 560 z m 466 525 l 466 525 q 434 525 409 515 q 383 505 367 487 l 367 487 q 340 459 331 416 q 322 373 322 311 l 322 311 l 322 34 l 608 34 l 608 311 q 608 372 599 416 q 590 460 563 488 l 563 488 q 546 505 523 515 q 499 525 466 525 z"},"൨":{"ha":681,"x_min":42,"x_max":665,"o":"m 266 560 l 266 560 q 319 560 360 540 q 400 519 428 482 q 456 445 470 396 q 484 346 484 287 l 484 287 q 484 215 467 163 q 450 111 427 77 q 403 42 380 21 l 380 21 l 381 34 l 665 34 l 665 0 l 359 0 l 342 28 q 365 50 389 84 q 413 118 430 168 q 446 217 446 285 l 446 285 q 446 355 426 409 q 405 463 365 494 q 324 525 264 525 l 264 525 q 204 525 163 493 q 122 460 101 406 q 80 351 80 285 l 80 285 q 80 221 95 172 q 109 123 135 87 q 160 50 191 20 l 191 20 l 166 -6 q 136 21 108 60 q 79 99 61 155 q 42 210 42 286 l 42 286 q 42 344 57 394 q 71 444 100 481 q 129 518 171 539 q 213 560 266 560 z"},"൩":{"ha":859,"x_min":42,"x_max":842,"o":"m 223 560 l 223 560 q 260 560 288 545 q 316 530 334 501 q 352 472 360 428 l 360 428 l 352 428 q 367 495 402 528 q 436 560 492 560 l 492 560 q 549 560 589 526 q 628 492 649 433 q 670 374 670 299 l 670 299 q 670 228 656 177 q 642 125 621 89 q 599 53 576 25 l 576 25 l 574 0 l 550 0 l 534 26 q 560 59 583 96 q 605 133 619 183 q 632 232 632 299 l 632 299 q 632 361 616 412 q 600 463 569 494 q 538 525 493 525 l 493 525 q 466 525 448 517 q 430 509 416 494 l 416 494 q 393 470 384 430 q 375 390 375 326 l 375 326 l 375 0 l 337 0 l 337 326 q 337 389 328 430 q 319 470 297 494 l 297 494 q 283 509 266 517 q 248 525 223 525 l 223 525 q 177 525 145 495 q 113 464 97 413 q 80 361 80 298 l 80 298 q 80 230 95 180 q 109 129 134 91 q 158 52 188 19 l 188 19 l 161 -6 q 130 28 103 69 q 75 110 59 166 q 42 221 42 298 l 42 298 q 42 376 64 435 q 86 494 127 527 q 167 560 223 560 z m 563 0 l 573 34 l 842 34 l 842 0 l 563 0 z"},"൪":{"ha":612,"x_min":42,"x_max":607,"o":"m 283 560 l 283 560 q 342 560 387 535 q 431 510 464 469 l 464 469 q 503 419 523 353 q 543 287 543 215 l 543 215 q 543 133 523 83 q 502 33 467 11 q 432 -12 387 -12 l 387 -12 q 336 -12 304 13 q 271 37 256 79 q 240 120 240 170 l 240 170 q 240 229 261 278 q 281 327 325 373 q 369 418 438 465 l 438 465 q 490 500 519 524 q 547 547 558 569 q 569 590 569 620 l 569 620 q 569 645 561 664 q 553 683 541 702 l 541 702 l 575 719 q 588 699 598 675 q 607 650 607 621 l 607 621 q 607 584 593 557 q 579 529 547 502 q 514 475 458 437 l 458 437 q 396 396 356 355 q 316 313 297 268 q 278 223 278 170 l 278 170 q 278 100 306 61 q 333 22 388 22 l 388 22 q 422 22 448 41 q 474 59 489 101 q 504 143 504 214 l 504 214 q 504 277 488 339 q 472 401 437 446 l 437 446 q 410 482 372 504 q 334 525 283 525 l 283 525 q 219 525 174 495 q 128 464 104 410 q 80 356 80 285 l 80 285 q 80 221 95 172 q 109 123 135 87 q 160 50 191 20 l 191 20 l 166 -6 q 136 21 108 60 q 79 99 61 155 q 42 210 42 286 l 42 286 q 42 342 57 392 q 72 441 103 479 q 133 517 178 539 q 223 560 283 560 z"},"൫":{"ha":762,"x_min":48,"x_max":714,"o":"m 392 723 l 392 723 q 475 723 536 690 q 596 656 636 597 q 676 538 695 461 q 714 384 714 297 l 714 297 q 714 212 700 137 q 686 61 657 -12 l 657 -12 l 622 3 q 641 49 653 97 q 664 144 670 195 q 676 245 676 298 l 676 298 q 676 377 660 448 q 643 518 609 572 q 574 626 521 657 q 467 688 392 688 l 392 688 q 305 688 236 641 q 166 593 126 497 q 86 401 86 255 l 86 255 q 86 170 101 97 q 116 24 147 -29 q 177 -83 225 -113 q 272 -143 336 -143 l 336 -143 q 425 -143 471 -93 q 517 -43 517 54 l 517 54 q 517 109 499 150 q 481 191 447 214 q 413 236 364 236 l 364 236 l 357 236 l 357 271 l 367 271 q 406 271 433 279 q 459 286 476 302 l 476 302 q 491 317 499 338 q 507 358 507 388 l 507 388 q 507 447 476 478 q 445 508 395 508 l 395 508 q 346 508 312 480 q 277 451 259 401 q 241 350 241 282 l 241 282 q 241 210 262 144 q 282 77 319 9 l 319 9 l 285 -7 q 247 66 225 134 q 203 202 203 283 l 203 283 q 203 360 227 418 q 250 476 293 510 q 336 543 395 543 l 395 543 q 441 543 475 524 q 508 504 527 470 q 545 436 545 391 l 545 391 q 545 355 533 325 q 520 294 493 275 q 465 255 418 248 l 418 248 l 419 256 q 482 242 519 189 q 555 136 555 54 l 555 54 q 555 -23 529 -74 q 502 -126 453 -152 q 403 -178 335 -178 l 335 -178 q 247 -178 183 -127 q 118 -76 83 21 q 48 117 48 254 l 48 254 q 48 374 75 463 q 101 551 149 609 q 196 666 259 695 q 321 723 392 723 z"},"൬":{"ha":951,"x_min":42,"x_max":903,"o":"m 474 560 l 474 560 q 529 560 564 527 q 599 494 609 424 l 609 424 l 622 312 l 622 0 l 585 0 l 585 329 q 585 393 578 431 q 570 469 549 493 l 549 493 q 537 508 518 517 q 499 525 474 525 l 474 525 q 450 525 431 517 q 412 508 399 493 l 399 493 q 378 469 370 430 q 362 391 362 328 l 362 328 l 362 0 l 325 0 l 325 327 q 325 389 317 429 q 308 469 286 494 l 286 494 q 273 509 256 517 q 238 525 215 525 l 215 525 q 172 525 142 495 q 111 464 96 413 q 80 361 80 298 l 80 298 q 80 230 95 180 q 109 129 134 91 q 158 52 188 19 l 188 19 l 160 -6 q 129 29 102 70 q 75 111 59 166 q 42 221 42 298 l 42 298 q 42 376 63 435 q 84 494 123 527 q 162 560 215 560 l 215 560 q 268 560 302 528 q 335 495 347 429 l 347 429 l 338 423 q 351 494 385 527 q 419 560 474 560 z m 734 560 l 734 560 q 815 560 859 477 q 903 393 903 225 l 903 225 q 903 88 876 -7 q 849 -102 788 -151 q 727 -201 624 -201 l 624 -201 q 605 -201 583 -199 q 560 -197 541 -193 l 541 -193 l 544 -158 q 564 -163 586 -164 q 607 -166 623 -166 l 623 -166 q 695 -166 742 -139 q 788 -112 815 -60 q 842 -9 854 63 q 865 135 865 225 l 865 225 q 865 323 850 390 q 835 456 806 491 q 777 525 733 525 l 733 525 q 709 525 691 517 q 673 508 660 492 l 660 492 q 639 466 631 428 q 622 389 622 328 l 622 328 l 622 10 l 594 10 l 594 324 l 600 428 q 613 495 648 528 q 682 560 734 560 z"},"൭":{"ha":583,"x_min":42,"x_max":537,"o":"m 294 560 l 294 560 q 355 560 401 535 q 446 510 477 464 q 507 418 522 352 q 537 286 537 203 l 537 203 q 537 117 522 43 q 507 -31 474 -85 q 441 -140 386 -170 q 330 -201 250 -201 l 250 -201 q 228 -201 204 -199 q 179 -198 156 -193 l 156 -193 l 160 -158 q 181 -162 203 -164 q 225 -166 250 -166 l 250 -166 q 323 -166 371 -137 q 419 -109 447 -58 q 475 -7 487 60 q 498 127 498 203 l 498 203 q 498 358 447 442 q 395 525 293 525 l 293 525 q 228 525 180 489 q 132 453 105 388 q 78 323 78 234 l 78 234 l 78 221 q 78 150 91 106 q 104 62 128 43 q 152 23 185 23 l 185 23 q 208 23 228 35 q 247 46 258 75 q 269 103 269 152 l 269 152 q 269 208 247 241 q 224 273 180 273 l 180 273 q 144 273 116 255 q 87 237 63 208 l 63 208 l 52 237 q 83 273 116 290 q 149 307 183 307 l 183 307 q 218 307 246 291 q 274 274 291 240 q 307 206 307 153 l 307 153 q 307 94 291 58 q 274 21 247 5 q 220 -12 185 -12 l 185 -12 q 146 -12 113 10 q 80 32 61 85 q 42 137 42 228 l 42 228 q 42 334 75 408 q 107 482 164 521 q 220 560 294 560 z"},"൮":{"ha":756,"x_min":42,"x_max":688,"o":"m 266 560 l 266 560 q 319 560 360 540 q 400 519 428 482 q 456 445 470 396 q 484 346 484 287 l 484 287 q 484 215 467 163 q 450 111 427 77 q 403 42 380 21 l 380 21 l 381 34 l 651 34 l 651 548 l 688 548 l 688 81 l 661 0 l 359 0 l 342 28 q 365 50 389 84 q 413 118 430 168 q 446 217 446 285 l 446 285 q 446 355 426 409 q 405 463 365 494 q 324 525 264 525 l 264 525 q 204 525 163 493 q 122 460 101 406 q 80 351 80 285 l 80 285 q 80 221 95 172 q 109 123 135 87 q 160 50 191 20 l 191 20 l 166 -6 q 136 21 108 60 q 79 99 61 155 q 42 210 42 286 l 42 286 q 42 344 57 394 q 71 444 100 481 q 129 518 171 539 q 213 560 266 560 z m 436 -201 l 436 -201 q 412 -201 388 -199 q 363 -197 342 -191 l 342 -191 l 347 -157 q 365 -161 388 -163 q 411 -166 436 -166 l 436 -166 q 501 -166 542 -150 q 583 -135 606 -108 q 629 -82 639 -47 q 649 -13 651 24 l 651 24 l 688 110 l 688 54 q 688 3 680 -36 q 672 -75 655 -104 q 638 -133 611 -154 l 611 -154 q 580 -177 537 -189 q 493 -201 436 -201 z"},"൯":{"ha":863,"x_min":42,"x_max":858,"o":"m 223 560 l 223 560 q 261 560 290 545 q 318 529 337 498 q 355 467 362 420 l 362 420 l 375 272 l 375 0 l 337 0 l 337 325 q 337 389 328 430 q 319 470 297 494 l 297 494 q 283 509 266 517 q 248 525 223 525 l 223 525 q 177 525 145 495 q 113 464 97 413 q 80 361 80 298 l 80 298 q 80 230 95 180 q 109 129 134 91 q 158 52 188 19 l 188 19 l 161 -6 q 130 28 103 69 q 75 110 59 166 q 42 221 42 298 l 42 298 q 42 376 64 435 q 86 494 127 527 q 167 560 223 560 z m 527 560 l 527 560 q 588 560 635 535 q 681 509 714 468 l 714 468 q 753 418 774 352 q 794 286 794 215 l 794 215 q 794 133 774 83 q 753 33 718 11 q 683 -12 638 -12 l 638 -12 q 587 -12 555 13 q 522 37 506 79 q 490 120 490 170 l 490 170 q 490 229 511 278 q 532 327 576 373 q 620 418 689 465 l 689 465 q 741 500 770 524 q 798 547 809 569 q 820 590 820 620 l 820 620 q 820 645 812 664 q 804 683 792 702 l 792 702 l 826 719 q 839 699 849 675 q 858 650 858 621 l 858 621 q 858 584 844 557 q 830 529 798 502 q 765 475 709 437 l 709 437 q 647 396 607 355 q 566 313 548 268 q 529 223 529 170 l 529 170 q 529 100 557 61 q 584 22 639 22 l 639 22 q 673 22 699 41 q 725 59 740 101 q 755 143 755 214 l 755 214 q 755 279 739 340 q 722 400 687 445 l 687 445 q 660 482 620 504 q 579 525 528 525 l 528 525 q 492 525 467 517 q 442 508 424 490 l 424 490 q 408 475 397 453 q 386 430 381 398 q 375 365 375 318 l 375 318 l 375 158 l 347 158 l 347 283 l 348 397 q 357 455 381 491 q 405 526 442 543 q 478 560 527 560 z"},"൰":{"ha":857,"x_min":-26,"x_max":816,"o":"m 210 548 l 247 548 l 247 120 l 246 86 q 246 11 238 -45 q 229 -102 196 -141 l 196 -141 q 173 -169 136 -185 q 98 -201 43 -201 l 43 -201 q 28 -201 11 -199 q -7 -198 -26 -194 l -26 -194 l -23 -159 q -9 -162 7 -164 q 23 -166 42 -166 l 42 -166 q 88 -166 118 -153 q 148 -140 167 -118 l 167 -118 q 193 -87 202 -41 q 210 5 210 82 l 210 82 l 210 548 z m 635 -12 l 635 -12 q 580 -12 546 21 q 512 53 498 119 l 498 119 l 506 124 q 495 55 459 22 q 423 -12 364 -12 l 364 -12 q 326 -12 298 3 q 269 18 252 49 q 235 80 227 127 l 227 127 l 223 233 l 222 526 l 247 526 l 247 220 q 247 154 256 116 q 264 78 285 55 l 285 55 q 298 40 318 32 q 337 23 365 23 l 365 23 q 392 23 411 32 q 430 41 444 55 l 444 55 q 466 79 475 118 q 483 157 483 220 l 483 220 l 483 548 l 520 548 l 520 221 q 520 158 529 118 q 538 78 561 54 l 561 54 q 574 39 593 31 q 611 23 636 23 l 636 23 q 683 23 714 54 q 745 85 761 137 q 777 188 777 249 l 777 249 q 777 317 763 368 q 748 418 724 457 q 699 496 669 529 l 669 529 l 696 554 q 727 519 755 479 q 782 438 799 383 q 816 327 816 248 l 816 248 q 816 174 795 115 q 773 56 733 22 q 692 -12 635 -12 z"},"൱":{"ha":709,"x_min":42,"x_max":661,"o":"m 223 560 l 223 560 q 262 560 290 544 q 318 528 336 498 q 353 467 360 421 l 360 421 l 375 272 l 375 0 l 337 0 l 337 325 q 337 389 328 430 q 319 470 297 494 l 297 494 q 283 509 266 517 q 248 525 223 525 l 223 525 q 177 525 145 495 q 113 464 97 413 q 80 361 80 298 l 80 298 q 80 230 95 180 q 109 129 134 91 q 158 52 188 19 l 188 19 l 161 -6 q 130 28 103 69 q 75 110 59 166 q 42 221 42 298 l 42 298 q 42 376 64 435 q 86 494 127 527 q 167 560 223 560 z m 489 560 l 489 560 q 545 560 583 523 q 621 486 641 412 q 661 337 661 225 l 661 225 q 661 88 634 -7 q 607 -102 546 -151 q 484 -201 382 -201 l 382 -201 q 362 -201 340 -199 q 317 -197 297 -193 l 297 -193 l 301 -158 q 321 -162 343 -164 q 364 -166 381 -166 l 381 -166 q 453 -166 500 -139 q 546 -112 573 -60 q 600 -9 612 63 q 623 135 623 225 l 623 225 q 623 323 608 390 q 592 457 563 491 q 533 525 489 525 l 489 525 q 465 525 446 517 q 427 509 413 492 l 413 492 q 392 468 384 430 q 375 391 375 329 l 375 329 l 375 10 l 346 10 l 346 321 l 352 428 q 366 496 401 528 q 435 560 489 560 z"},"൲":{"ha":1074,"x_min":42,"x_max":1053,"o":"m 937 548 l 937 548 q 975 548 1001 531 q 1026 513 1040 484 q 1053 455 1053 418 l 1053 418 q 1053 384 1043 356 q 1032 328 1011 310 l 1011 310 q 996 297 978 289 q 959 280 935 277 q 911 273 881 273 l 881 273 l 737 273 l 737 308 l 882 308 q 924 308 948 315 q 971 321 986 335 l 986 335 q 1001 349 1008 370 q 1015 391 1015 417 l 1015 417 q 1015 460 996 487 q 976 513 938 513 l 938 513 q 897 513 875 486 q 852 458 852 408 l 852 408 q 852 372 863 343 q 873 313 889 287 l 889 287 l 853 283 q 837 309 826 342 q 815 375 815 413 l 815 413 q 815 455 831 486 q 847 516 875 532 q 903 548 937 548 z m 223 560 l 223 560 q 262 560 290 545 q 318 529 336 498 q 354 467 362 420 l 362 420 l 375 272 l 375 0 l 337 0 l 337 325 q 337 389 328 430 q 319 470 297 494 l 297 494 q 283 509 266 517 q 248 525 223 525 l 223 525 q 177 525 145 495 q 113 464 97 413 q 80 361 80 298 l 80 298 q 80 230 95 180 q 109 129 134 91 q 158 52 188 19 l 188 19 l 161 -6 q 130 28 103 69 q 75 110 59 166 q 42 221 42 298 l 42 298 q 42 376 64 435 q 86 494 127 527 q 167 560 223 560 z m 521 560 l 521 560 q 573 560 615 538 q 657 516 687 474 q 717 432 734 372 q 750 311 750 234 l 750 234 q 750 138 731 85 q 712 31 678 10 q 644 -12 599 -12 l 599 -12 q 553 -12 524 9 q 494 30 480 64 q 466 97 466 134 l 466 134 q 466 175 480 206 q 494 237 519 258 l 519 258 q 540 276 568 287 q 595 298 631 303 q 666 308 712 308 l 712 308 l 880 308 l 880 273 l 711 273 q 654 273 614 265 q 574 257 546 234 l 546 234 q 527 218 516 194 q 504 169 504 136 l 504 136 q 504 84 529 53 q 553 22 598 22 l 598 22 q 637 22 663 42 q 688 62 701 109 q 713 155 713 233 l 713 233 q 713 248 713 262 q 713 276 711 288 l 711 288 l 710 298 q 704 367 679 418 q 653 469 614 497 q 574 525 520 525 l 520 525 q 492 525 469 517 q 445 509 426 492 l 426 492 q 409 477 398 455 q 386 432 381 400 q 375 368 375 324 l 375 324 l 375 199 l 350 201 l 347 389 q 354 451 379 489 q 403 526 440 543 q 477 560 521 560 z"},"൳":{"ha":625,"x_min":41,"x_max":603,"o":"m 184 -12 l 184 -12 q 144 -12 112 10 q 79 31 60 81 q 41 130 41 215 l 41 215 q 41 294 63 350 q 85 406 128 442 l 128 442 q 158 467 195 483 q 231 498 283 505 q 335 512 408 512 l 408 512 l 603 512 l 603 477 l 415 477 q 345 477 297 471 q 248 465 213 452 q 178 439 152 416 l 152 416 q 118 388 101 347 q 83 305 78 246 l 78 246 l 78 235 q 78 230 78 225 q 78 219 78 212 l 78 212 q 78 145 91 103 q 103 61 127 42 q 151 23 184 23 l 184 23 q 208 23 227 35 q 246 46 257 75 q 268 103 268 152 l 268 152 q 268 208 246 241 q 224 273 179 273 l 179 273 q 143 273 115 255 q 86 237 63 208 l 63 208 l 54 240 q 84 274 117 291 q 149 307 183 307 l 183 307 q 218 307 246 291 q 273 274 290 240 q 306 206 306 153 l 306 153 q 306 94 290 58 q 274 21 247 5 q 219 -12 184 -12 z"},"൴":{"ha":722,"x_min":42,"x_max":680,"o":"m 401 792 l 438 792 l 438 191 q 438 158 440 131 q 442 104 449 83 q 456 62 469 48 l 469 48 q 481 35 497 29 q 513 22 536 22 l 536 22 q 571 22 595 44 q 618 65 630 107 q 641 148 641 208 l 641 208 q 641 265 628 317 q 614 369 587 412 q 560 454 520 483 q 479 511 425 521 l 425 521 l 409 522 q 399 524 388 525 q 377 525 365 525 l 365 525 q 293 525 239 502 q 185 478 150 437 q 114 396 96 343 q 78 290 78 231 l 78 231 l 78 219 q 78 148 91 105 q 104 62 128 43 q 152 23 185 23 l 185 23 q 208 23 227 35 q 246 46 258 75 q 269 103 269 152 l 269 152 q 269 208 247 241 q 224 273 180 273 l 180 273 q 144 273 115 255 q 86 237 63 208 l 63 208 l 54 240 q 85 274 117 291 q 149 307 183 307 l 183 307 q 218 307 246 291 q 274 274 290 240 q 306 206 306 153 l 306 153 q 306 93 290 57 q 274 21 247 5 q 220 -12 185 -12 l 185 -12 q 145 -12 113 10 q 80 32 61 83 q 42 134 42 223 l 42 223 q 42 292 62 353 q 82 414 123 461 q 163 507 224 534 q 284 560 365 560 l 365 560 q 378 560 389 560 q 400 559 411 557 l 411 557 l 427 555 q 486 545 533 516 q 579 486 612 440 q 645 394 663 335 q 680 276 680 208 l 680 208 q 680 136 663 88 q 646 39 614 14 q 581 -12 535 -12 l 535 -12 q 505 -12 482 -2 q 459 8 442 24 l 442 24 q 426 41 417 64 q 408 87 405 118 q 401 149 401 191 l 401 191 l 401 792 z"},"൵":{"ha":945,"x_min":44,"x_max":940,"o":"m 277 560 l 277 560 q 349 560 390 523 q 431 485 444 414 l 444 414 l 447 366 l 456 263 l 456 0 l 419 0 l 419 321 q 419 390 408 430 q 396 470 369 494 l 369 494 q 353 509 331 517 q 309 525 277 525 l 277 525 q 217 525 173 489 q 129 452 105 388 q 80 323 80 238 l 80 238 l 80 223 q 80 150 93 106 q 106 62 130 43 q 154 23 187 23 l 187 23 q 210 23 229 35 q 248 46 260 74 q 271 102 271 152 l 271 152 q 271 208 249 241 q 226 273 182 273 l 182 273 q 145 273 117 255 q 88 236 64 207 l 64 207 l 54 237 q 85 273 118 290 q 150 307 185 307 l 185 307 q 220 307 248 291 q 276 274 292 240 q 308 206 308 153 l 308 153 q 308 94 292 58 q 276 21 249 5 q 222 -12 187 -12 l 187 -12 q 147 -12 115 10 q 82 32 63 85 q 44 137 44 228 l 44 228 q 44 334 74 408 q 104 482 157 521 q 209 560 277 560 z m 609 560 l 609 560 q 670 560 717 535 q 763 509 796 468 l 796 468 q 835 418 855 352 q 875 286 875 215 l 875 215 q 875 133 855 83 q 835 33 800 11 q 764 -12 720 -12 l 720 -12 q 669 -12 636 13 q 603 37 588 79 q 572 120 572 170 l 572 170 q 572 229 593 278 q 614 327 658 373 q 702 418 771 465 l 771 465 q 822 500 851 524 q 879 547 890 569 q 901 590 901 620 l 901 620 q 901 645 894 664 q 886 683 873 702 l 873 702 l 907 719 q 921 699 931 675 q 940 650 940 621 l 940 621 q 940 584 926 557 q 912 529 880 502 q 847 475 790 437 l 790 437 q 728 396 688 355 q 648 313 629 268 q 610 223 610 170 l 610 170 q 610 100 638 61 q 665 22 720 22 l 720 22 q 755 22 781 41 q 807 59 822 101 q 837 143 837 214 l 837 214 q 837 279 821 340 q 804 400 769 445 l 769 445 q 741 482 701 504 q 661 525 609 525 l 609 525 q 574 525 549 517 q 524 508 506 490 l 506 490 q 490 475 479 453 q 467 430 462 398 q 456 365 456 318 l 456 318 l 456 158 l 428 158 l 428 283 l 430 397 q 439 455 463 491 q 486 526 523 543 q 560 560 609 560 z"},"൶":{"ha":1063,"x_min":34,"x_max":1005,"o":"m 177 331 l 177 331 q 221 331 253 311 q 285 291 302 255 q 319 218 319 169 l 319 169 q 319 123 303 85 q 287 46 262 20 l 262 20 l 262 34 l 578 34 l 579 0 l 247 0 l 230 26 q 254 55 268 90 q 282 125 282 166 l 282 166 q 282 230 254 263 q 225 296 177 296 l 177 296 q 144 296 121 280 q 97 263 85 235 q 72 207 72 169 l 72 169 q 72 119 90 83 q 108 46 135 16 l 135 16 l 109 -8 q 77 28 56 70 q 34 111 34 169 l 34 169 q 34 217 52 254 q 70 290 103 311 q 135 331 177 331 z m 783 560 l 783 560 q 835 560 874 545 q 912 530 938 502 l 938 502 q 961 478 976 445 q 991 411 998 369 q 1005 327 1005 271 l 1005 271 l 1005 0 l 558 0 l 558 270 q 558 324 565 367 q 571 409 586 442 q 600 474 622 499 l 622 499 q 650 528 690 544 q 730 560 783 560 z m 745 521 l 745 521 q 715 521 690 508 q 665 495 647 471 l 647 471 q 622 440 609 391 q 595 342 595 260 l 595 260 l 595 33 l 603 34 q 666 93 717 156 q 768 218 798 282 q 828 346 828 406 l 828 406 q 828 437 821 463 q 813 489 795 505 q 776 521 745 521 z m 866 405 l 866 405 q 866 340 836 275 q 806 209 755 146 q 703 82 637 17 l 637 17 l 638 32 q 664 34 700 34 q 736 34 766 34 l 766 34 l 968 34 l 968 265 q 968 347 952 404 q 935 461 898 493 q 860 525 796 528 l 796 528 l 795 531 q 835 516 851 483 q 866 449 866 405 z"},"൷":{"ha":1344,"x_min":34,"x_max":1323,"o":"m 177 331 l 177 331 q 221 331 253 311 q 284 291 302 255 q 319 218 319 169 l 319 169 q 319 123 303 85 q 287 46 262 20 l 262 20 l 262 34 l 554 34 l 562 0 l 247 0 l 230 26 q 255 55 269 90 q 282 125 282 166 l 282 166 q 282 230 254 263 q 225 296 177 296 l 177 296 q 144 296 121 280 q 97 263 85 235 q 72 207 72 169 l 72 169 q 72 119 90 83 q 108 46 135 16 l 135 16 l 109 -8 q 77 28 56 70 q 34 111 34 169 l 34 169 q 34 217 52 254 q 70 290 103 311 q 135 331 177 331 z m 629 560 l 629 560 q 668 560 697 545 q 725 529 743 498 q 761 467 769 420 l 769 420 l 781 311 l 781 230 l 744 230 l 744 325 q 744 389 735 430 q 726 470 703 494 l 703 494 q 690 509 672 517 q 654 525 629 525 l 629 525 q 583 525 552 495 q 520 464 504 414 q 487 363 487 301 l 487 301 q 487 206 516 142 q 544 78 586 27 l 586 27 l 570 0 l 545 0 l 543 27 q 517 60 496 99 q 474 138 461 187 q 448 236 448 301 l 448 301 q 448 377 471 436 q 493 494 534 527 q 574 560 629 560 z m 928 560 l 928 560 q 979 560 1021 538 q 1063 516 1094 474 q 1124 432 1141 372 q 1157 311 1157 234 l 1157 234 q 1157 138 1138 85 q 1119 31 1085 10 q 1050 -12 1006 -12 l 1006 -12 q 960 -12 931 9 q 901 30 887 63 q 873 96 873 134 l 873 134 q 873 175 887 206 q 901 237 926 258 l 926 258 q 947 276 974 287 q 1001 298 1037 303 q 1073 308 1118 308 l 1118 308 l 1139 308 l 1139 273 l 1118 273 q 1061 273 1021 265 q 980 257 953 234 l 953 234 q 933 218 922 194 q 911 169 911 136 l 911 136 q 911 84 935 53 q 959 22 1005 22 l 1005 22 q 1044 22 1069 42 q 1094 62 1107 109 q 1120 155 1120 233 l 1120 233 q 1120 248 1120 262 q 1119 276 1118 288 l 1118 288 l 1117 298 q 1110 367 1085 418 q 1060 469 1020 497 q 980 525 927 525 l 927 525 q 899 525 876 517 q 852 509 833 492 l 833 492 q 816 477 805 455 q 793 432 787 400 q 781 368 781 324 l 781 324 l 781 250 l 757 250 l 754 389 q 761 451 786 489 q 810 526 847 543 q 884 560 928 560 z m 1278 452 l 1315 460 q 1319 447 1321 432 q 1323 417 1323 402 l 1323 402 q 1323 371 1314 348 q 1305 324 1288 309 l 1288 309 q 1265 289 1234 281 q 1203 273 1158 273 l 1158 273 l 1139 273 l 1139 308 l 1154 308 q 1194 308 1219 313 q 1243 318 1259 333 l 1259 333 q 1272 343 1279 361 q 1285 378 1285 403 l 1285 403 q 1285 413 1283 428 q 1281 442 1278 452 l 1278 452 z"},"൸":{"ha":1744,"x_min":10,"x_max":1686,"o":"m 1134 560 l 1134 560 q 1169 560 1194 548 q 1218 535 1234 514 q 1249 492 1258 467 q 1266 441 1268 415 l 1268 415 l 1256 389 q 1267 445 1295 483 q 1322 521 1365 541 q 1408 560 1464 560 l 1464 560 q 1516 560 1555 545 q 1593 530 1619 502 l 1619 502 q 1642 478 1657 445 q 1672 411 1679 369 q 1686 327 1686 271 l 1686 271 l 1686 0 l 1285 0 l 1285 34 q 1347 93 1398 156 q 1449 218 1479 282 q 1509 346 1509 406 l 1509 406 q 1509 437 1502 463 q 1494 489 1476 505 q 1457 521 1426 521 l 1426 521 q 1395 521 1371 508 q 1347 495 1328 471 l 1328 471 q 1302 438 1290 390 q 1278 341 1278 268 l 1278 268 l 1278 230 l 1241 230 l 1241 335 q 1241 393 1235 432 q 1229 470 1208 494 l 1208 494 q 1196 509 1178 517 q 1159 525 1135 525 l 1135 525 q 1111 525 1093 517 q 1074 509 1062 494 l 1062 494 q 1041 471 1035 432 q 1029 393 1029 334 l 1029 334 l 1029 207 q 1029 164 1026 131 q 1022 98 1013 73 q 1003 48 986 29 l 986 29 q 969 10 944 -1 q 918 -12 886 -12 l 886 -12 q 852 -12 827 0 q 801 11 784 31 l 784 31 q 768 49 759 74 q 749 98 746 131 q 743 164 743 207 l 743 207 l 743 335 q 743 393 737 432 q 730 471 710 494 l 710 494 q 698 509 679 517 q 660 525 637 525 l 637 525 q 613 525 595 517 q 576 509 564 494 l 564 494 q 543 471 537 432 q 531 393 531 334 l 531 334 l 531 208 q 531 136 521 97 q 511 58 486 30 l 486 30 q 468 11 443 0 q 417 -12 383 -12 l 383 -12 q 327 -12 293 21 q 259 54 249 125 l 249 125 l 257 119 q 249 77 231 48 q 212 18 184 3 q 155 -12 113 -12 l 113 -12 q 88 -12 61 -6 q 34 0 10 13 l 10 13 l 24 44 q 44 34 66 29 q 88 23 114 23 l 114 23 q 143 23 162 31 q 181 39 194 54 l 194 54 q 217 78 226 118 q 235 158 235 221 l 235 221 l 235 548 l 273 548 l 273 215 q 273 155 281 115 q 289 74 310 51 l 310 51 q 323 37 341 30 q 358 23 382 23 l 382 23 q 408 23 427 32 q 446 40 458 55 l 458 55 q 478 79 486 117 q 493 155 493 222 l 493 222 l 493 340 q 493 384 497 418 q 501 451 510 476 q 519 500 536 519 l 536 519 q 554 537 579 549 q 604 560 637 560 l 637 560 q 670 560 696 549 q 721 537 738 517 l 738 517 q 755 498 764 474 q 773 450 777 418 q 780 385 780 341 l 780 341 l 780 212 q 780 155 786 116 q 792 77 812 53 l 812 53 q 825 39 844 31 q 862 23 886 23 l 886 23 q 909 23 928 31 q 946 39 959 53 l 959 53 q 979 77 986 116 q 992 155 992 213 l 992 213 l 992 340 q 992 384 996 418 q 999 451 1009 476 q 1018 500 1035 519 l 1035 519 q 1052 537 1077 549 q 1102 560 1134 560 z m 1547 405 l 1547 405 q 1547 340 1517 275 q 1487 209 1436 146 q 1384 82 1318 17 l 1318 17 l 1319 32 q 1344 34 1381 34 q 1417 34 1447 34 l 1447 34 l 1649 34 l 1649 265 q 1649 347 1633 404 q 1616 461 1579 493 q 1541 525 1477 528 l 1477 528 l 1476 531 q 1516 516 1532 483 q 1547 449 1547 405 z"},"൹":{"ha":902,"x_min":42,"x_max":880,"o":"m 223 560 l 223 560 q 262 560 290 545 q 318 529 336 498 q 354 467 362 420 l 362 420 l 375 272 l 375 0 l 337 0 l 337 325 q 337 389 328 430 q 319 470 297 494 l 297 494 q 283 509 266 517 q 248 525 223 525 l 223 525 q 177 525 145 495 q 113 464 97 413 q 80 361 80 298 l 80 298 q 80 230 95 180 q 109 129 134 91 q 158 52 188 19 l 188 19 l 161 -6 q 130 28 103 69 q 75 110 59 166 q 42 221 42 298 l 42 298 q 42 376 64 435 q 86 494 127 527 q 167 560 223 560 z m 521 560 l 521 560 q 573 560 615 538 q 657 516 687 474 q 717 432 734 372 q 750 311 750 234 l 750 234 q 750 138 731 85 q 712 31 678 10 q 644 -12 599 -12 l 599 -12 q 553 -12 524 9 q 494 30 480 64 q 466 97 466 134 l 466 134 q 466 175 480 206 q 494 237 519 258 l 519 258 q 540 276 568 287 q 595 298 631 303 q 666 308 712 308 l 712 308 l 880 308 l 880 273 l 711 273 q 654 273 614 265 q 574 257 546 234 l 546 234 q 527 218 516 194 q 504 169 504 136 l 504 136 q 504 84 529 53 q 553 22 598 22 l 598 22 q 637 22 663 42 q 688 62 701 109 q 713 155 713 233 l 713 233 q 713 248 713 262 q 713 276 711 288 l 711 288 l 710 298 q 704 367 679 418 q 653 469 614 497 q 574 525 520 525 l 520 525 q 492 525 469 517 q 445 509 426 492 l 426 492 q 409 477 398 455 q 386 432 381 400 q 375 368 375 324 l 375 324 l 375 199 l 350 201 l 347 389 q 354 451 379 489 q 403 526 440 543 q 477 560 521 560 z"},"ൺ":{"ha":1181,"x_min":44,"x_max":1140,"o":"m 277 560 l 277 560 q 349 560 388 524 q 427 488 442 421 l 442 421 l 432 422 q 445 491 481 526 q 516 560 576 560 l 576 560 q 634 560 670 527 q 706 493 717 422 l 717 422 l 718 398 l 729 326 l 729 0 l 692 0 l 692 328 q 692 393 684 431 q 675 469 654 493 l 654 493 q 641 508 622 517 q 602 525 574 525 l 574 525 q 547 525 528 516 q 509 507 495 493 l 495 493 q 473 468 465 430 q 456 391 456 327 l 456 327 l 456 0 l 419 0 l 419 320 q 419 390 408 430 q 396 470 369 494 l 369 494 q 353 509 331 517 q 308 525 277 525 l 277 525 q 217 525 173 489 q 129 452 105 388 q 80 323 80 238 l 80 238 l 80 223 q 80 150 93 106 q 106 62 130 43 q 154 23 187 23 l 187 23 q 210 23 229 35 q 248 46 260 74 q 271 102 271 152 l 271 152 q 271 208 249 241 q 226 273 182 273 l 182 273 q 145 273 117 255 q 88 236 64 207 l 64 207 l 54 237 q 85 273 118 290 q 150 307 185 307 l 185 307 q 220 307 248 291 q 276 274 292 240 q 308 206 308 153 l 308 153 q 308 94 292 58 q 276 21 249 5 q 222 -12 187 -12 l 187 -12 q 147 -12 115 10 q 82 32 63 85 q 44 137 44 228 l 44 228 q 44 334 74 408 q 104 482 157 521 q 209 560 277 560 z m 997 -12 l 997 -12 q 955 -12 922 10 q 889 31 871 78 q 852 125 852 202 l 852 202 q 852 271 870 327 q 887 382 915 428 q 943 474 974 514 l 974 514 l 983 526 q 1013 565 1032 601 q 1050 636 1050 673 l 1050 673 q 1050 709 1031 733 q 1012 757 968 757 l 968 757 q 949 757 931 754 q 913 750 898 745 l 898 745 l 890 779 q 907 785 928 789 q 949 792 970 792 l 970 792 q 1014 792 1040 775 q 1065 757 1077 730 q 1088 703 1088 676 l 1088 676 q 1088 631 1067 592 q 1046 552 1012 507 l 1012 507 l 1004 496 q 973 455 947 411 q 921 366 906 315 q 890 264 890 202 l 890 202 q 890 131 905 92 q 920 52 944 37 q 968 22 997 22 l 997 22 q 1045 22 1073 65 q 1101 107 1101 207 l 1101 207 q 1101 266 1088 324 q 1075 381 1049 427 q 1022 472 981 499 l 981 499 q 960 512 936 519 q 911 525 880 525 l 880 525 q 845 525 822 517 q 798 509 781 493 l 781 493 q 761 476 750 452 q 738 427 734 394 q 729 361 729 318 l 729 318 l 729 65 l 699 65 l 701 242 l 703 399 q 711 454 735 490 q 758 525 795 543 q 832 560 879 560 l 879 560 q 915 560 944 552 q 973 544 997 528 l 997 528 q 999 527 1002 526 q 1005 524 1007 522 l 1007 522 q 1052 491 1082 442 q 1111 393 1126 333 q 1140 273 1140 208 l 1140 208 q 1140 94 1101 41 q 1062 -12 997 -12 z"},"ൻ":{"ha":827,"x_min":42,"x_max":785,"o":"m 223 560 l 223 560 q 261 560 290 544 q 318 528 336 498 q 354 467 361 420 l 361 420 l 375 288 l 375 0 l 337 0 l 337 325 q 337 389 328 430 q 319 470 297 494 l 297 494 q 283 509 266 517 q 248 525 223 525 l 223 525 q 177 525 145 495 q 113 464 97 413 q 80 361 80 298 l 80 298 q 80 230 95 180 q 109 129 134 91 q 158 52 188 19 l 188 19 l 161 -6 q 130 28 103 69 q 75 110 59 166 q 42 221 42 298 l 42 298 q 42 376 64 435 q 86 494 127 527 q 167 560 223 560 z m 643 -12 l 643 -12 q 601 -12 568 10 q 535 31 517 78 q 498 125 498 202 l 498 202 q 498 271 516 327 q 533 382 561 428 q 589 474 620 514 l 620 514 l 629 526 q 659 565 677 601 q 695 636 695 673 l 695 673 q 695 709 677 733 q 658 757 613 757 l 613 757 q 594 757 577 754 q 560 750 544 745 l 544 745 l 535 779 q 553 785 574 789 q 595 792 616 792 l 616 792 q 660 792 686 775 q 711 757 722 730 q 733 703 733 676 l 733 676 q 733 631 712 592 q 691 552 658 507 l 658 507 l 650 496 q 619 455 593 411 q 567 366 552 315 q 536 264 536 202 l 536 202 q 536 131 551 92 q 565 52 590 37 q 614 22 643 22 l 643 22 q 691 22 719 65 q 747 107 747 207 l 747 207 q 747 266 734 324 q 721 381 695 427 q 668 472 627 499 l 627 499 q 606 512 582 519 q 557 525 526 525 l 526 525 q 491 525 468 517 q 444 509 427 493 l 427 493 q 407 476 396 452 q 384 427 380 394 q 375 361 375 318 l 375 318 l 375 65 l 345 65 l 347 242 l 348 399 q 357 454 381 490 q 404 525 441 543 q 478 560 525 560 l 525 560 q 561 560 590 552 q 618 544 643 528 l 643 528 q 645 527 648 526 q 651 524 653 522 l 653 522 q 698 491 727 442 q 756 393 771 333 q 785 273 785 208 l 785 208 q 785 94 746 41 q 707 -12 643 -12 z"},"ർ":{"ha":574,"x_min":41,"x_max":532,"o":"m 390 -12 l 390 -12 q 348 -12 315 10 q 282 31 264 78 q 245 125 245 202 l 245 202 q 245 271 263 327 q 280 382 309 428 q 337 474 367 514 l 367 514 l 376 526 q 406 566 424 601 q 442 636 442 673 l 442 673 q 442 709 424 733 q 405 757 360 757 l 360 757 q 341 757 324 754 q 306 750 291 745 l 291 745 l 282 779 q 300 785 321 789 q 342 792 363 792 l 363 792 q 407 792 433 775 q 458 757 470 730 q 481 703 481 676 l 481 676 q 481 631 460 591 q 439 551 405 507 l 405 507 l 397 496 q 366 455 340 411 q 314 366 299 315 q 283 264 283 202 l 283 202 q 283 131 298 92 q 313 52 337 37 q 361 22 390 22 l 390 22 q 438 22 466 65 q 494 107 494 207 l 494 207 q 494 251 487 295 q 479 339 464 378 q 449 417 427 448 q 404 479 374 499 l 374 499 q 353 513 329 519 q 305 525 277 525 l 277 525 q 213 525 169 493 q 125 461 103 407 q 80 353 80 285 l 80 285 q 80 221 94 172 q 108 123 134 87 q 159 50 191 20 l 191 20 l 166 -6 q 136 21 107 60 q 78 99 60 155 q 41 210 41 286 l 41 286 q 41 345 57 395 q 73 445 104 482 q 134 519 178 540 q 222 560 277 560 l 277 560 q 310 560 338 552 q 366 544 390 529 l 390 529 q 392 528 395 526 q 398 524 400 522 l 400 522 q 445 492 474 443 q 503 393 518 333 q 532 273 532 208 l 532 208 q 532 94 493 41 q 454 -12 390 -12 z"},"ൽ":{"ha":920,"x_min":42,"x_max":879,"o":"m 567 560 l 567 560 q 600 560 629 555 q 658 550 684 541 q 710 532 733 517 l 733 517 l 743 512 q 811 467 845 389 q 879 310 879 208 l 879 208 q 879 94 840 41 q 801 -12 736 -12 l 736 -12 q 694 -12 662 10 q 629 31 610 78 q 591 125 591 202 l 591 202 q 591 269 608 323 q 625 377 652 422 q 678 467 708 507 l 708 507 l 717 517 q 748 558 769 597 q 789 636 789 673 l 789 673 q 789 709 770 733 q 751 757 707 757 l 707 757 q 688 757 671 754 q 653 750 638 745 l 638 745 l 629 779 q 647 785 668 789 q 688 792 710 792 l 710 792 q 754 792 780 775 q 805 757 816 730 q 827 703 827 676 l 827 676 q 827 631 806 590 q 784 549 748 502 l 748 502 l 739 489 q 709 451 685 408 q 660 365 645 315 q 629 264 629 202 l 629 202 q 629 131 644 92 q 659 52 684 37 q 708 22 736 22 l 736 22 q 784 22 812 65 q 840 107 840 207 l 840 207 q 840 271 827 325 q 813 378 787 419 q 760 460 720 486 l 720 486 l 707 492 q 678 509 643 517 q 607 525 567 525 l 567 525 q 525 525 488 516 q 450 507 419 489 l 419 489 l 408 482 q 351 443 320 373 q 289 302 289 206 l 289 206 q 289 136 303 96 q 316 55 340 39 q 364 22 395 22 l 395 22 q 427 22 451 39 q 474 56 488 97 q 501 137 501 207 l 501 207 q 501 257 489 311 q 476 364 450 411 q 424 457 385 486 l 385 486 l 377 493 q 354 510 329 518 q 303 525 274 525 l 274 525 q 209 525 166 493 q 122 460 101 406 q 80 351 80 285 l 80 285 q 80 220 95 172 q 109 123 135 86 q 160 49 191 20 l 191 20 l 166 -7 q 136 21 108 60 q 79 98 61 154 q 42 210 42 286 l 42 286 q 42 344 57 394 q 72 444 102 481 q 131 518 174 539 q 217 560 273 560 l 273 560 q 311 560 344 549 q 376 537 405 514 l 405 514 l 417 504 q 475 455 508 377 q 540 298 540 207 l 540 207 q 540 128 522 80 q 503 32 471 10 q 438 -12 395 -12 l 395 -12 q 353 -12 320 10 q 287 32 269 80 q 251 128 251 206 l 251 206 q 251 272 266 328 q 280 383 309 427 q 337 471 379 502 l 379 502 l 390 510 q 425 534 470 547 q 515 560 567 560 z"},"ൾ":{"ha":809,"x_min":43,"x_max":768,"o":"m 598 792 l 598 792 q 643 792 669 775 q 694 757 705 730 q 716 703 716 676 l 716 676 q 716 631 695 591 q 674 551 640 507 l 640 507 l 632 496 q 601 455 575 411 q 549 366 534 315 q 518 264 518 202 l 518 202 q 518 131 533 92 q 547 53 572 38 q 597 22 625 22 l 625 22 q 673 22 701 65 q 729 107 729 207 l 729 207 q 729 251 722 295 q 714 339 699 378 q 684 417 662 448 q 640 479 610 499 l 610 499 q 589 513 567 519 q 544 525 518 525 l 518 525 q 487 525 463 517 q 438 509 421 493 l 421 493 q 392 468 379 426 q 366 384 366 311 l 366 311 l 366 216 q 366 173 363 139 q 359 104 350 78 q 340 51 321 31 l 321 31 q 304 11 279 0 q 253 -12 217 -12 l 217 -12 q 163 -12 124 20 q 84 51 64 110 q 43 169 43 249 l 43 249 q 43 326 60 382 q 76 437 104 479 q 131 521 162 556 l 162 556 l 190 530 q 160 497 135 458 q 110 419 96 368 q 81 317 81 249 l 81 249 q 81 181 97 130 q 113 79 143 51 q 173 23 216 23 l 216 23 q 245 23 263 32 q 281 40 294 55 l 294 55 q 315 80 322 122 q 329 164 329 232 l 329 232 l 329 319 q 329 392 344 439 q 359 486 394 517 l 394 517 q 417 537 448 549 q 479 560 517 560 l 517 560 q 547 560 574 552 q 600 544 625 529 l 625 529 l 635 523 q 680 492 709 443 q 738 394 753 334 q 768 273 768 208 l 768 208 q 768 94 729 41 q 690 -12 625 -12 l 625 -12 q 583 -12 550 10 q 517 31 499 78 q 480 125 480 202 l 480 202 q 480 271 498 327 q 516 382 544 428 q 572 474 602 514 l 602 514 l 611 526 q 641 566 660 601 q 678 636 678 673 l 678 673 q 678 709 659 733 q 640 757 596 757 l 596 757 q 577 757 560 754 q 542 750 526 745 l 526 745 l 518 779 q 535 785 556 789 q 577 792 598 792 z"},"ൿ":{"ha":922,"x_min":34,"x_max":888,"o":"m 411 560 l 411 560 q 470 560 507 527 q 544 494 562 431 q 580 368 580 276 l 580 276 q 580 171 559 108 q 538 44 500 16 q 461 -12 410 -12 l 410 -12 q 370 -12 341 4 q 312 19 292 47 l 292 47 q 264 86 253 146 q 241 205 241 275 l 241 275 q 241 418 285 489 q 328 560 411 560 z m 411 525 l 411 525 q 345 525 312 465 q 278 405 278 275 l 278 275 q 278 182 294 127 q 309 71 339 47 q 369 22 409 22 l 409 22 q 452 22 482 47 q 511 71 527 127 q 543 183 543 276 l 543 276 q 543 366 528 421 q 512 476 483 501 q 454 525 411 525 z m 176 -12 l 176 -12 q 112 -12 73 28 q 34 67 34 143 l 34 143 q 34 182 48 210 q 61 237 83 255 l 83 255 q 106 275 135 287 q 163 298 201 303 q 238 307 285 307 l 285 307 l 674 307 q 731 307 769 297 q 807 287 835 264 l 835 264 q 859 243 874 212 q 888 180 888 138 l 888 138 q 888 65 856 27 q 823 -12 763 -12 l 763 -12 q 707 -12 672 30 q 637 71 637 146 l 637 146 q 637 177 645 212 q 653 246 667 286 l 667 286 q 668 289 670 292 q 671 295 672 298 l 672 298 q 683 328 697 362 q 711 396 729 438 l 729 438 q 755 498 770 539 q 784 579 790 610 q 796 640 796 668 l 796 668 q 796 707 778 732 q 759 757 714 757 l 714 757 q 695 757 678 754 q 660 750 645 745 l 645 745 l 636 779 q 654 785 675 789 q 696 792 717 792 l 717 792 q 761 792 786 774 q 811 756 823 729 q 834 702 834 672 l 834 672 q 834 649 831 626 q 828 602 820 573 q 811 544 797 509 q 783 473 762 424 l 762 424 q 746 387 733 355 q 719 323 710 298 l 710 298 q 708 294 707 290 q 706 286 704 283 l 704 283 q 689 242 682 210 q 675 177 675 146 l 675 146 q 675 102 687 75 q 699 48 720 36 q 740 23 765 23 l 765 23 q 808 23 829 52 q 850 80 850 137 l 850 137 q 850 171 840 197 q 829 222 809 238 l 809 238 q 788 256 757 265 q 725 273 674 273 l 674 273 l 282 273 q 218 273 176 264 q 134 255 107 229 l 107 229 q 91 214 82 193 q 72 172 72 142 l 72 142 q 72 97 87 71 q 102 45 126 34 q 150 23 178 23 l 178 23 q 211 23 239 33 q 267 43 301 71 l 301 71 l 323 44 q 298 25 276 13 q 253 0 230 -6 q 206 -12 176 -12 z"},"!":{"ha":215,"x_min":75,"x_max":139,"o":"m 123 179 l 92 179 l 86 714 l 129 714 l 123 179 z m 107 -9 l 107 -9 q 89 -9 82 2 q 75 12 75 29 l 75 29 q 75 45 82 56 q 89 67 107 67 l 107 67 q 126 67 133 56 q 139 45 139 29 l 139 29 q 139 12 133 2 q 126 -9 107 -9 z"},"\"":{"ha":342,"x_min":78,"x_max":265,"o":"m 113 542 l 84 542 l 78 800 l 120 800 l 113 542 z m 258 542 l 229 542 l 222 800 l 265 800 l 258 542 z"},"#":{"ha":544,"x_min":27,"x_max":517,"o":"m 128 0 l 94 0 l 136 223 l 27 223 l 27 257 l 143 257 l 180 458 l 67 458 l 67 492 l 187 492 l 229 714 l 264 714 l 221 492 l 373 492 l 415 714 l 450 714 l 408 492 l 517 492 l 517 458 l 401 458 l 364 257 l 477 257 l 477 223 l 358 223 l 315 0 l 280 0 l 323 223 l 171 223 l 128 0 z m 215 458 l 177 257 l 329 257 l 367 458 l 215 458 z"},"%":{"ha":665,"x_min":52,"x_max":613,"o":"m 209 0 l 173 0 l 456 714 l 492 714 l 209 0 z m 165 276 l 165 276 q 110 276 81 333 q 52 389 52 501 l 52 501 q 52 614 81 669 q 110 724 165 724 l 165 724 q 222 724 250 669 q 278 613 278 501 l 278 501 q 278 387 249 332 q 220 276 165 276 z m 165 310 l 165 310 q 204 310 224 357 q 243 404 243 501 l 243 501 q 243 598 224 645 q 205 692 165 692 l 165 692 q 127 692 107 645 q 87 598 87 501 l 87 501 q 87 403 107 357 q 127 310 165 310 z m 500 -10 l 500 -10 q 445 -10 416 47 q 387 103 387 216 l 387 216 q 387 328 416 383 q 445 438 500 438 l 500 438 q 557 438 585 383 q 613 328 613 215 l 613 215 q 613 102 584 46 q 554 -10 500 -10 z m 500 25 l 500 25 q 539 25 559 72 q 578 118 578 215 l 578 215 q 578 312 559 359 q 540 406 500 406 l 500 406 q 462 406 442 360 q 422 313 422 215 l 422 215 q 422 118 442 72 q 462 25 500 25 z"},"'":{"ha":197,"x_min":78,"x_max":120,"o":"m 113 542 l 84 542 l 78 800 l 120 800 l 113 542 z"},"(":{"ha":280,"x_min":57,"x_max":251,"o":"m 57 276 l 57 276 q 57 380 75 474 q 93 568 127 651 q 160 733 208 800 l 208 800 l 251 800 q 199 728 164 644 q 129 560 112 468 q 95 376 95 277 l 95 277 q 95 179 112 87 q 129 -5 164 -88 q 199 -171 251 -244 l 251 -244 l 208 -244 q 160 -176 126 -94 q 92 -13 75 81 q 57 174 57 276 z"},")":{"ha":280,"x_min":29,"x_max":223,"o":"m 223 280 l 223 280 q 223 177 206 83 q 188 -12 154 -94 q 120 -176 72 -244 l 72 -244 l 29 -244 q 82 -171 117 -87 q 151 -4 168 89 q 185 181 185 279 l 185 279 q 185 379 168 470 q 151 561 117 644 q 82 727 30 800 l 30 800 l 72 800 q 121 732 155 651 q 188 569 206 476 q 223 383 223 280 z"},"*":{"ha":505,"x_min":44,"x_max":461,"o":"m 232 800 l 273 800 l 267 607 l 451 668 l 461 629 l 275 582 l 392 427 l 357 405 l 252 568 l 149 405 l 114 427 l 230 582 l 44 629 l 54 668 l 238 607 l 232 800 z"},"+":{"ha":455,"x_min":39,"x_max":416,"o":"m 245 124 l 210 124 l 210 336 l 39 336 l 39 370 l 210 370 l 210 582 l 245 582 l 245 370 l 416 370 l 416 336 l 245 336 l 245 124 z"},",":{"ha":215,"x_min":38,"x_max":137,"o":"m 93 116 l 131 116 l 137 106 q 131 66 121 25 q 111 -16 98 -55 q 84 -94 69 -129 l 69 -129 l 38 -129 q 52 -93 63 -50 q 74 -7 82 37 q 90 80 93 116 l 93 116 z"},"-":{"ha":309,"x_min":39,"x_max":271,"o":"m 271 251 l 39 251 l 39 287 l 271 287 l 271 251 z"},".":{"ha":216,"x_min":76,"x_max":140,"o":"m 107 -9 l 107 -9 q 90 -9 83 2 q 76 12 76 29 l 76 29 q 76 46 83 57 q 90 67 107 67 l 107 67 q 127 67 134 57 q 140 46 140 29 l 140 29 q 140 12 134 2 q 127 -9 107 -9 z"},"/":{"ha":350,"x_min":24,"x_max":326,"o":"m 62 -244 l 24 -244 l 288 800 l 326 800 l 62 -244 z"},":":{"ha":216,"x_min":76,"x_max":140,"o":"m 107 -9 l 107 -9 q 90 -9 83 2 q 76 12 76 29 l 76 29 q 76 46 83 57 q 90 67 107 67 l 107 67 q 127 67 134 57 q 140 46 140 29 l 140 29 q 140 12 134 2 q 127 -9 107 -9 z m 107 465 l 107 465 q 90 465 83 476 q 76 486 76 503 l 76 503 q 76 520 83 531 q 90 541 107 541 l 107 541 q 127 541 134 531 q 140 520 140 503 l 140 503 q 140 486 134 476 q 127 465 107 465 z"},";":{"ha":216,"x_min":38,"x_max":140,"o":"m 93 116 l 131 116 l 137 106 q 132 66 122 25 q 111 -16 98 -55 q 84 -94 69 -129 l 69 -129 l 38 -129 q 52 -93 63 -49 q 74 -6 82 37 q 90 80 93 116 l 93 116 z m 107 465 l 107 465 q 90 465 83 476 q 76 486 76 503 l 76 503 q 76 520 83 531 q 90 541 107 541 l 107 541 q 127 541 134 531 q 140 520 140 503 l 140 503 q 140 486 134 476 q 127 465 107 465 z"},"<":{"ha":455,"x_min":39,"x_max":416,"o":"m 416 179 l 416 140 l 39 346 l 39 375 l 416 567 l 416 529 l 81 360 l 416 179 z"},"=":{"ha":455,"x_min":40,"x_max":415,"o":"m 415 231 l 40 231 l 40 266 l 415 266 l 415 231 z m 415 439 l 40 439 l 40 474 l 415 474 l 415 439 z"},">":{"ha":455,"x_min":39,"x_max":416,"o":"m 416 346 l 39 140 l 39 179 l 374 360 l 39 529 l 39 567 l 416 374 l 416 346 z"},"?":{"ha":342,"x_min":34,"x_max":305,"o":"m 156 724 l 156 724 q 224 724 265 683 q 305 641 305 561 l 305 561 q 305 516 294 483 q 282 449 262 421 q 241 392 213 361 l 213 361 q 188 332 175 307 q 162 282 158 256 q 153 229 153 194 l 153 194 l 153 177 l 119 177 l 119 197 q 119 239 124 269 q 129 299 144 325 q 158 351 183 380 l 183 380 q 209 409 228 435 q 246 460 257 490 q 267 520 267 560 l 267 560 q 267 624 237 656 q 207 688 154 688 l 154 688 q 126 688 99 680 q 72 672 49 659 l 49 659 l 34 692 q 60 705 91 715 q 121 724 156 724 z m 136 -9 l 136 -9 q 119 -9 112 2 q 105 12 105 29 l 105 29 q 105 46 112 57 q 119 67 136 67 l 136 67 q 156 67 163 57 q 169 46 169 29 l 169 29 q 169 12 162 2 q 155 -9 136 -9 z"},"[":{"ha":311,"x_min":85,"x_max":271,"o":"m 271 -244 l 85 -244 l 85 799 l 271 799 l 271 765 l 122 765 l 122 -209 l 271 -209 l 271 -244 z"},"\\":{"ha":350,"x_min":24,"x_max":326,"o":"m 326 -245 l 288 -245 l 24 800 l 62 800 l 326 -245 z"},"]":{"ha":313,"x_min":42,"x_max":228,"o":"m 228 -244 l 42 -244 l 42 -209 l 190 -209 l 190 765 l 42 765 l 42 800 l 228 800 l 228 -244 z"},"^":{"ha":455,"x_min":26,"x_max":428,"o":"m 65 340 l 26 340 l 213 718 l 242 718 l 428 340 l 388 340 l 228 674 l 65 340 z"},"_":{"ha":383,"x_min":-2,"x_max":385,"o":"m 385 -123 l -2 -123 l -2 -90 l 385 -90 l 385 -123 z"},"{":{"ha":348,"x_min":30,"x_max":309,"o":"m 309 -210 l 309 -244 q 252 -244 215 -230 q 178 -216 161 -185 q 143 -155 143 -105 l 143 -105 l 143 150 q 143 212 117 237 q 91 261 30 261 l 30 261 l 30 295 q 91 295 117 321 q 143 347 143 409 l 143 409 l 143 659 q 143 705 163 736 q 182 767 219 784 q 256 800 309 800 l 309 800 l 309 766 q 242 765 212 739 q 181 713 181 654 l 181 654 l 181 406 q 181 354 162 321 q 143 288 97 279 l 97 279 l 97 277 q 142 266 162 238 q 181 209 181 153 l 181 153 l 181 -101 q 181 -142 193 -166 q 205 -190 233 -199 q 261 -209 309 -210 l 309 -210 z"},"|":{"ha":520,"x_min":242,"x_max":278,"o":"m 278 -244 l 242 -244 l 242 800 l 278 800 l 278 -244 z"},"}":{"ha":348,"x_min":39,"x_max":318,"o":"m 39 766 l 39 800 q 97 800 134 786 q 170 772 188 742 q 205 711 205 661 l 205 661 l 205 406 q 205 344 231 320 q 257 295 318 295 l 318 295 l 318 260 q 257 260 231 235 q 205 210 205 147 l 205 147 l 205 -103 q 205 -148 186 -179 q 166 -211 129 -227 q 92 -244 39 -244 l 39 -244 l 39 -210 q 106 -209 137 -183 q 167 -157 167 -98 l 167 -98 l 167 150 q 167 202 187 235 q 206 268 251 276 l 251 276 l 251 279 q 206 289 187 318 q 167 347 167 403 l 167 403 l 167 656 q 167 699 155 723 q 143 746 116 756 q 88 765 39 766 l 39 766 z"},"~":{"ha":455,"x_min":37,"x_max":418,"o":"m 222 337 l 222 337 q 198 351 179 358 q 160 365 138 365 l 138 365 q 111 365 87 352 q 63 338 37 311 l 37 311 l 37 353 q 58 373 83 387 q 107 400 138 400 l 138 400 q 165 400 188 392 q 211 384 235 371 l 235 371 q 262 356 281 349 q 299 341 324 341 l 324 341 q 349 341 372 354 q 395 367 418 393 l 418 393 l 418 352 q 400 332 376 320 q 351 307 323 307 l 323 307 q 295 307 273 315 q 250 322 222 337 z"}," ":{"ha":247,"x_min":0,"x_max":0,"o":""},"­":{"ha":309,"x_min":39,"x_max":271,"o":"m 271 251 l 39 251 l 39 287 l 271 287 l 271 251 z"},"–":{"ha":500,"x_min":40,"x_max":460,"o":"m 460 252 l 40 252 l 40 288 l 460 288 l 460 252 z"},"—":{"ha":1000,"x_min":40,"x_max":960,"o":"m 960 252 l 40 252 l 40 288 l 960 288 l 960 252 z"},"‘":{"ha":189,"x_min":44,"x_max":143,"o":"m 89 555 l 50 555 l 44 564 q 51 605 61 646 q 71 687 85 727 q 98 766 113 800 l 113 800 l 143 800 q 130 764 119 721 q 107 677 100 634 q 93 591 89 555 l 89 555 z"},"’":{"ha":189,"x_min":45,"x_max":144,"o":"m 99 800 l 137 800 l 144 791 q 138 750 128 709 q 117 668 104 629 q 90 590 75 555 l 75 555 l 45 555 q 55 582 64 614 q 72 645 79 678 q 86 711 91 742 q 96 773 99 800 l 99 800 z"},"“":{"ha":332,"x_min":45,"x_max":287,"o":"m 232 555 l 194 555 l 188 564 q 195 605 205 646 q 215 687 229 727 q 242 766 257 800 l 257 800 l 287 800 q 274 764 263 721 q 251 677 244 634 q 237 591 232 555 l 232 555 z m 89 555 l 51 555 l 45 564 q 51 605 61 646 q 71 687 85 727 q 98 766 113 800 l 113 800 l 144 800 q 130 764 119 721 q 107 677 100 634 q 93 591 89 555 l 89 555 z"},"”":{"ha":332,"x_min":45,"x_max":287,"o":"m 243 800 l 281 800 l 287 791 q 281 750 271 709 q 260 668 247 629 q 234 590 219 555 l 219 555 l 188 555 q 202 591 213 635 q 224 678 232 721 q 240 764 243 800 l 243 800 z m 99 800 l 137 800 l 144 791 q 138 750 128 709 q 117 668 104 629 q 90 590 75 555 l 75 555 l 45 555 q 55 582 64 614 q 72 645 79 678 q 86 711 91 742 q 96 773 99 800 l 99 800 z"},"…":{"ha":635,"x_min":76,"x_max":559,"o":"m 107 -9 l 107 -9 q 90 -9 83 2 q 76 12 76 29 l 76 29 q 76 46 83 57 q 90 67 107 67 l 107 67 q 127 67 134 57 q 140 46 140 29 l 140 29 q 140 12 134 2 q 127 -9 107 -9 z m 316 -9 l 316 -9 q 299 -9 292 2 q 285 12 285 29 l 285 29 q 285 46 292 57 q 299 67 316 67 l 316 67 q 336 67 343 57 q 349 46 349 29 l 349 29 q 349 12 343 2 q 336 -9 316 -9 z m 526 -9 l 526 -9 q 509 -9 502 2 q 495 12 495 29 l 495 29 q 495 46 502 57 q 509 67 526 67 l 526 67 q 546 67 553 57 q 559 46 559 29 l 559 29 q 559 12 553 2 q 546 -9 526 -9 z"},"×":{"ha":455,"x_min":47,"x_max":408,"o":"m 227 377 l 384 534 l 408 510 l 251 353 l 407 197 l 383 173 l 227 329 l 71 173 l 47 197 l 203 353 l 47 509 l 71 533 l 227 377 z"},"÷":{"ha":455,"x_min":39,"x_max":415,"o":"m 415 336 l 39 336 l 39 370 l 415 370 l 415 336 z m 227 136 l 227 136 q 210 136 204 147 q 197 158 197 175 l 197 175 q 197 193 204 204 q 211 215 227 215 l 227 215 q 245 215 252 204 q 258 193 258 176 l 258 176 q 258 158 252 147 q 245 136 227 136 z m 227 490 l 227 490 q 210 490 204 501 q 197 512 197 530 l 197 530 q 197 547 204 558 q 210 569 227 569 l 227 569 q 245 569 252 558 q 258 547 258 529 l 258 529 q 258 512 252 501 q 245 490 227 490 z"},"−":{"ha":455,"x_min":39,"x_max":415,"o":"m 415 336 l 39 336 l 39 371 l 415 371 l 415 336 z"},"₹":{"ha":455,"x_min":59,"x_max":405,"o":"m 300 0 l 255 0 l 63 307 l 67 340 l 83 340 q 128 340 156 351 q 183 361 200 380 l 200 380 q 219 402 227 435 q 234 467 234 509 l 234 509 q 234 552 227 584 q 220 616 199 639 l 199 639 q 183 659 157 670 q 130 681 87 681 l 87 681 l 59 681 l 59 714 l 405 714 l 405 681 l 193 681 q 230 664 251 626 q 272 587 272 510 l 272 510 q 272 445 254 401 q 235 357 197 334 q 158 310 95 306 l 95 306 l 101 315 l 300 0 z m 405 495 l 59 495 l 59 529 l 405 529 l 405 495 z"},"꠰":{"ha":185,"x_min":74,"x_max":111,"o":"m 74 0 l 74 548 l 111 548 l 111 0 l 74 0 z"},"꠱":{"ha":341,"x_min":74,"x_max":267,"o":"m 74 0 l 74 548 l 111 548 l 111 0 l 74 0 z m 230 0 l 230 548 l 267 548 l 267 0 l 230 0 z"},"꠲":{"ha":498,"x_min":74,"x_max":424,"o":"m 74 0 l 74 548 l 111 548 l 111 0 l 74 0 z m 230 0 l 230 548 l 267 548 l 267 0 l 230 0 z m 387 0 l 387 548 l 424 548 l 424 0 l 387 0 z"},"॑":{"ha":0,"x_min":-296,"x_max":-261,"o":"m -296 653 l -296 864 l -261 864 l -261 653 l -296 653 z"},"॒":{"ha":0,"x_min":-454,"x_max":-103,"o":"m -103 -128 l -103 -162 l -454 -162 l -454 -128 l -103 -128 z"},"।":{"ha":272,"x_min":156,"x_max":193,"o":"m 193 -49 l 156 -49 l 156 597 l 193 597 l 193 -49 z"},"॥":{"ha":446,"x_min":156,"x_max":367,"o":"m 367 -49 l 330 -49 l 330 597 l 367 597 l 367 -49 z m 193 -49 l 156 -49 l 156 597 l 193 597 l 193 -49 z"},"᳚":{"ha":0,"x_min":-348,"x_max":-209,"o":"m -348 653 l -348 864 l -314 864 l -314 653 l -348 653 z m -243 653 l -243 864 l -209 864 l -209 653 l -243 653 z"},"̇":{"ha":0,"x_min":-309,"x_max":-247,"o":"m -309 701 l -309 701 q -309 716 -302 727 q -295 737 -279 737 l -279 737 q -260 737 -253 727 q -247 716 -247 701 l -247 701 q -247 685 -253 675 q -260 665 -279 665 l -279 665 q -295 665 -302 675 q -309 685 -309 701 z"},"̣":{"ha":0,"x_min":-309,"x_max":-247,"o":"m -309 -135 l -309 -135 q -309 -120 -302 -109 q -295 -99 -279 -99 l -279 -99 q -260 -99 -253 -109 q -247 -120 -247 -135 l -247 -135 q -247 -151 -253 -161 q -260 -171 -279 -171 l -279 -171 q -295 -171 -302 -161 q -309 -151 -309 -135 z"},"‐":{"ha":309,"x_min":39,"x_max":271,"o":"m 271 251 l 39 251 l 39 287 l 271 287 l 271 251 z"},"​":{"ha":0,"x_min":0,"x_max":0,"o":""},"‌":{"ha":0,"x_min":0,"x_max":0,"o":""},"‍":{"ha":0,"x_min":-161,"x_max":161,"o":"m 29 -244 l -29 -244 l -29 565 l -121 474 l -161 514 l -40 631 l -161 748 l -121 788 l 0 669 l 121 788 l 161 748 l 40 631 l 161 514 l 121 474 l 29 565 l 29 -244 z"},"◌":{"ha":562,"x_min":57,"x_max":504,"o":"m 89 231 l 89 231 q 57 231 57 264 l 57 264 q 57 295 89 295 l 89 295 q 121 295 121 264 l 121 264 q 121 231 89 231 z m 138 95 l 138 95 q 106 95 106 127 l 106 127 q 106 158 138 158 l 138 158 q 169 158 169 127 l 169 127 q 169 95 138 95 z m 281 40 l 281 40 q 249 40 249 72 l 249 72 q 249 104 281 104 l 281 104 q 312 104 312 72 l 312 72 q 312 40 281 40 z m 138 369 l 138 369 q 106 369 106 401 l 106 401 q 106 432 138 432 l 138 432 q 169 432 169 401 l 169 401 q 169 369 138 369 z m 423 95 l 423 95 q 391 95 391 127 l 391 127 q 391 158 423 158 l 423 158 q 455 158 455 127 l 455 127 q 455 95 423 95 z m 281 424 l 281 424 q 249 424 249 456 l 249 456 q 249 487 281 487 l 281 487 q 312 487 312 456 l 312 456 q 312 424 281 424 z m 472 231 l 472 231 q 441 231 441 264 l 441 264 q 441 295 472 295 l 472 295 q 504 295 504 264 l 504 264 q 504 231 472 231 z m 423 369 l 423 369 q 391 369 391 401 l 391 401 q 391 432 423 432 l 423 432 q 455 432 455 401 l 455 401 q 455 369 423 369 z"},"«":{"ha":417,"x_min":36,"x_max":382,"o":"m 36 268 l 36 282 l 182 464 l 207 449 l 82 275 l 207 103 l 182 88 l 36 268 z m 210 268 l 210 282 l 356 464 l 381 449 l 256 275 l 382 103 l 356 88 l 210 268 z"},"»":{"ha":411,"x_min":36,"x_max":376,"o":"m 376 282 l 376 269 l 230 88 l 204 103 l 329 276 l 204 449 l 230 464 l 376 282 z m 208 282 l 208 269 l 61 88 l 36 103 l 161 276 l 36 449 l 61 464 l 208 282 z"},"̈":{"ha":0,"x_min":-108,"x_max":107,"o":"m -108 668 l -108 668 q -108 684 -100 694 q -93 704 -80 704 l -80 704 q -66 704 -58 694 q -51 684 -51 668 l -51 668 q -51 652 -58 643 q -66 633 -80 633 l -80 633 q -93 633 -100 643 q -108 653 -108 668 z m 49 669 l 49 669 q 49 685 57 695 q 65 704 78 704 l 78 704 q 92 704 100 695 q 107 685 107 669 l 107 669 q 107 653 100 643 q 92 633 77 633 l 77 633 q 65 633 57 643 q 49 653 49 669 z"},"̀":{"ha":0,"x_min":-416,"x_max":-256,"o":"m -416 764 l -371 764 q -355 740 -336 714 q -317 687 -296 662 q -275 637 -256 616 l -256 616 l -256 606 l -281 606 q -297 621 -315 640 q -334 658 -352 679 q -371 699 -387 719 q -404 739 -416 757 l -416 757 l -416 764 z"},"́":{"ha":0,"x_min":-242,"x_max":-85,"o":"m -84 764 l -84 757 q -96 740 -112 720 q -129 699 -147 679 q -166 658 -184 640 q -202 621 -218 606 l -218 606 l -242 606 l -242 616 q -220 641 -200 666 q -180 691 -161 716 q -143 740 -128 764 l -128 764 l -84 764 z"},"̋":{"ha":0,"x_min":-95,"x_max":175,"o":"m 175 766 l 175 759 q 168 745 155 726 q 141 706 124 684 q 107 661 90 641 q 73 621 59 606 l 59 606 l 36 606 l 36 614 q 53 635 72 664 q 91 692 108 720 q 125 748 134 766 l 134 766 l 175 766 z m 45 766 l 45 759 q 37 745 24 726 q 10 706 -6 684 q -23 662 -40 642 q -57 621 -72 606 l -72 606 l -95 606 l -95 614 q -78 636 -59 665 q -40 693 -23 721 q -7 748 3 766 l 3 766 l 45 766 z"},"̄":{"ha":0,"x_min":-119,"x_max":107,"o":"m -119 647 l 107 647 l 107 615 l -119 615 l -119 647 z"},"˙":{"ha":141,"x_min":40,"x_max":101,"o":"m 70 726 l 70 726 q 87 726 94 715 q 101 704 101 689 l 101 689 q 101 671 93 661 q 85 650 70 650 l 70 650 q 55 650 48 661 q 40 672 40 688 l 40 688 q 40 704 47 715 q 54 726 70 726 z"},"°":{"ha":380,"x_min":59,"x_max":321,"o":"m 190 463 l 190 463 q 153 463 123 479 q 93 495 76 525 q 59 554 59 594 l 59 594 q 59 634 77 663 q 94 692 124 708 q 153 723 189 723 l 189 723 q 226 723 256 707 q 286 691 304 663 q 321 634 321 593 l 321 593 q 321 554 304 525 q 287 495 257 479 q 227 463 190 463 z m 189 492 l 189 492 q 233 492 261 521 q 289 549 289 594 l 289 594 q 289 639 262 667 q 234 694 189 694 l 189 694 q 144 694 118 666 q 91 638 91 594 l 91 594 q 91 548 119 520 q 147 492 189 492 z"},"A":{"ha":451,"x_min":0,"x_max":451,"o":"m 451 0 l 412 0 l 337 267 l 116 267 l 40 0 l 0 0 l 204 715 l 250 715 l 451 0 z m 327 303 l 249 591 q 245 607 242 621 q 238 635 234 650 q 230 664 227 679 l 227 679 q 223 665 220 651 q 216 636 212 622 q 208 607 204 591 l 204 591 l 125 303 l 327 303 z"},"Á":{"ha":451,"x_min":0,"x_max":451,"o":"m 451 0 l 412 0 l 337 267 l 116 267 l 40 0 l 0 0 l 204 715 l 250 715 l 451 0 z m 327 303 l 249 591 q 245 607 242 621 q 238 635 234 650 q 230 664 227 679 l 227 679 q 223 665 220 651 q 216 636 212 622 q 208 607 204 591 l 204 591 l 125 303 l 327 303 z m 340 949 l 340 942 q 328 925 312 905 q 295 884 277 864 q 258 843 240 825 q 222 806 206 791 l 206 791 l 182 791 l 182 801 q 204 826 224 851 q 244 876 263 901 q 281 925 296 949 l 296 949 l 340 949 z"},"Ă":{"ha":451,"x_min":0,"x_max":451,"o":"m 451 0 l 412 0 l 337 267 l 116 267 l 40 0 l 0 0 l 204 715 l 250 715 l 451 0 z m 327 303 l 249 591 q 245 607 242 621 q 238 635 234 650 q 230 664 227 679 l 227 679 q 223 665 220 651 q 216 636 212 622 q 208 607 204 591 l 204 591 l 125 303 l 327 303 z m 309 905 l 338 905 q 337 871 323 846 q 308 821 284 807 q 259 793 226 793 l 226 793 q 178 793 148 822 q 118 850 115 905 l 115 905 l 145 905 q 146 881 156 863 q 166 845 184 836 q 202 826 227 826 l 227 826 q 252 826 270 836 q 288 845 298 863 q 307 881 309 905 l 309 905 z"},"Â":{"ha":451,"x_min":0,"x_max":451,"o":"m 451 0 l 412 0 l 337 267 l 116 267 l 40 0 l 0 0 l 204 715 l 250 715 l 451 0 z m 327 303 l 249 591 q 245 607 242 621 q 238 635 234 650 q 230 664 227 679 l 227 679 q 223 665 220 651 q 216 636 212 622 q 208 607 204 591 l 204 591 l 125 303 l 327 303 z m 207 949 l 245 949 q 258 927 277 897 q 295 867 314 840 q 332 813 343 798 l 343 798 l 343 791 l 320 791 q 297 816 272 849 q 247 882 226 911 l 226 911 q 206 883 181 849 q 155 815 133 791 l 133 791 l 109 791 l 109 798 q 123 817 142 844 q 160 871 178 899 q 195 927 207 949 l 207 949 z"},"Ä":{"ha":451,"x_min":0,"x_max":451,"o":"m 451 0 l 412 0 l 337 267 l 116 267 l 40 0 l 0 0 l 204 715 l 250 715 l 451 0 z m 327 303 l 249 591 q 245 607 242 621 q 238 635 234 650 q 230 664 227 679 l 227 679 q 223 665 220 651 q 216 636 212 622 q 208 607 204 591 l 204 591 l 125 303 l 327 303 z m 119 853 l 119 853 q 119 869 127 879 q 134 889 147 889 l 147 889 q 161 889 169 879 q 176 869 176 853 l 176 853 q 176 837 169 828 q 161 818 147 818 l 147 818 q 134 818 127 828 q 119 838 119 853 z m 276 854 l 276 854 q 276 870 284 880 q 292 889 305 889 l 305 889 q 319 889 327 880 q 334 870 334 854 l 334 854 q 334 838 327 828 q 319 818 304 818 l 304 818 q 292 818 284 828 q 276 838 276 854 z"},"À":{"ha":451,"x_min":0,"x_max":451,"o":"m 451 0 l 412 0 l 337 267 l 116 267 l 40 0 l 0 0 l 204 715 l 250 715 l 451 0 z m 327 303 l 249 591 q 245 607 242 621 q 238 635 234 650 q 230 664 227 679 l 227 679 q 223 665 220 651 q 216 636 212 622 q 208 607 204 591 l 204 591 l 125 303 l 327 303 z m 142 949 l 187 949 q 203 925 222 899 q 241 872 262 847 q 283 822 302 801 l 302 801 l 302 791 l 277 791 q 261 806 243 825 q 224 843 206 864 q 187 884 171 904 q 154 924 142 942 l 142 942 l 142 949 z"},"Ā":{"ha":451,"x_min":0,"x_max":451,"o":"m 451 0 l 412 0 l 337 267 l 116 267 l 40 0 l 0 0 l 204 715 l 250 715 l 451 0 z m 327 303 l 249 591 q 245 607 242 621 q 238 635 234 650 q 230 664 227 679 l 227 679 q 223 665 220 651 q 216 636 212 622 q 208 607 204 591 l 204 591 l 125 303 l 327 303 z m 113 832 l 339 832 l 339 800 l 113 800 l 113 832 z"},"Ą":{"ha":451,"x_min":0,"x_max":451,"o":"m 451 0 l 412 0 l 337 267 l 116 267 l 40 0 l 0 0 l 204 715 l 250 715 l 451 0 z m 327 303 l 249 591 q 245 607 242 621 q 238 635 234 650 q 230 664 227 679 l 227 679 q 223 665 220 651 q 216 636 212 622 q 208 607 204 591 l 204 591 l 125 303 l 327 303 z m 365 -131 l 365 -131 q 365 -158 378 -172 q 390 -187 413 -187 l 413 -187 q 424 -187 435 -185 q 446 -183 451 -181 l 451 -181 l 451 -211 q 444 -214 433 -216 q 422 -218 409 -218 l 409 -218 q 373 -218 352 -197 q 330 -176 330 -137 l 330 -137 q 330 -111 341 -85 q 351 -60 371 -36 q 390 -12 417 10 l 417 10 l 442 0 q 405 -33 385 -64 q 365 -96 365 -131 z"},"Å":{"ha":451,"x_min":0,"x_max":451,"o":"m 451 0 l 412 0 l 337 267 l 116 267 l 40 0 l 0 0 l 204 715 l 250 715 l 451 0 z m 327 303 l 249 591 q 245 607 242 621 q 238 635 234 650 q 230 664 227 679 l 227 679 q 223 665 220 651 q 216 636 212 622 q 208 607 204 591 l 204 591 l 125 303 l 327 303 z m 227 692 l 227 692 q 187 692 160 717 q 132 741 132 784 l 132 784 q 132 827 159 852 q 186 877 226 877 l 226 877 q 266 877 293 852 q 320 826 320 784 l 320 784 q 320 742 294 717 q 268 692 227 692 z m 227 720 l 227 720 q 256 720 274 738 q 291 756 291 784 l 291 784 q 291 812 273 831 q 255 849 226 849 l 226 849 q 196 849 179 831 q 161 812 161 784 l 161 784 q 161 758 178 739 q 195 720 227 720 z"},"Ã":{"ha":451,"x_min":0,"x_max":451,"o":"m 451 0 l 412 0 l 337 267 l 116 267 l 40 0 l 0 0 l 204 715 l 250 715 l 451 0 z m 327 303 l 249 591 q 245 607 242 621 q 238 635 234 650 q 230 664 227 679 l 227 679 q 223 665 220 651 q 216 636 212 622 q 208 607 204 591 l 204 591 l 125 303 l 327 303 z m 111 800 l 82 800 q 84 824 91 843 q 97 861 107 873 q 117 885 131 892 q 144 898 160 898 l 160 898 q 182 898 199 888 q 215 877 230 865 q 244 852 259 842 q 273 832 290 832 l 290 832 q 310 832 324 849 q 338 865 341 898 l 341 898 l 369 898 q 367 849 345 825 q 322 800 290 800 l 290 800 q 269 800 252 810 q 235 820 220 833 q 205 845 191 856 q 177 866 160 866 l 160 866 q 143 866 129 851 q 114 835 111 800 l 111 800 z"},"Æ":{"ha":642,"x_min":-1,"x_max":602,"o":"m 602 36 l 602 0 l 282 0 l 282 266 l 128 266 l 42 0 l -1 0 l 237 714 l 602 714 l 602 678 l 320 678 l 320 393 l 587 393 l 587 357 l 320 357 l 320 36 l 602 36 z m 262 678 l 139 302 l 282 302 l 282 678 l 262 678 z"},"B":{"ha":494,"x_min":84,"x_max":450,"o":"m 84 714 l 243 714 q 340 714 387 673 q 434 631 434 546 l 434 546 q 434 502 421 467 q 407 431 382 408 q 357 385 320 377 l 320 377 l 320 375 q 366 366 395 343 q 423 319 437 284 q 450 248 450 200 l 450 200 q 450 136 427 91 q 403 46 360 23 q 316 0 255 0 l 255 0 l 84 0 l 84 714 z m 123 392 l 242 392 q 319 392 357 430 q 394 468 394 544 l 394 544 q 394 614 358 647 q 321 679 234 679 l 234 679 l 123 679 l 123 392 z m 244 358 l 123 358 l 123 35 l 251 35 q 326 35 368 76 q 410 117 410 201 l 410 201 q 410 259 390 293 q 369 327 332 343 q 295 358 244 358 l 244 358 z"},"C":{"ha":480,"x_min":56,"x_max":454,"o":"m 322 689 l 322 689 q 263 689 221 662 q 178 635 151 589 q 123 543 110 484 q 96 424 96 358 l 96 358 q 96 258 123 183 q 149 108 199 67 q 249 26 320 26 l 320 26 q 360 26 392 35 q 423 43 446 54 l 446 54 l 446 18 q 422 6 390 -2 q 357 -10 318 -10 l 318 -10 q 236 -10 178 35 q 119 80 88 163 q 56 245 56 358 l 56 358 q 56 432 72 499 q 88 565 121 616 q 154 666 204 695 q 254 724 322 724 l 322 724 q 358 724 391 716 q 424 708 454 692 l 454 692 l 438 658 q 409 675 380 682 q 350 689 322 689 z"},"Ć":{"ha":480,"x_min":56,"x_max":454,"o":"m 322 689 l 322 689 q 263 689 221 662 q 178 635 151 589 q 123 543 110 484 q 96 424 96 358 l 96 358 q 96 258 123 183 q 149 108 199 67 q 249 26 320 26 l 320 26 q 360 26 392 35 q 423 43 446 54 l 446 54 l 446 18 q 422 6 390 -2 q 357 -10 318 -10 l 318 -10 q 236 -10 178 35 q 119 80 88 163 q 56 245 56 358 l 56 358 q 56 432 72 499 q 88 565 121 616 q 154 666 204 695 q 254 724 322 724 l 322 724 q 358 724 391 716 q 424 708 454 692 l 454 692 l 438 658 q 409 675 380 682 q 350 689 322 689 z m 419 949 l 419 942 q 407 925 391 905 q 374 884 356 864 q 337 843 319 825 q 301 806 285 791 l 285 791 l 261 791 l 261 801 q 283 826 303 851 q 323 876 342 901 q 360 925 375 949 l 375 949 l 419 949 z"},"Č":{"ha":480,"x_min":56,"x_max":454,"o":"m 322 689 l 322 689 q 263 689 221 662 q 178 635 151 589 q 123 543 110 484 q 96 424 96 358 l 96 358 q 96 258 123 183 q 149 108 199 67 q 249 26 320 26 l 320 26 q 360 26 392 35 q 423 43 446 54 l 446 54 l 446 18 q 422 6 390 -2 q 357 -10 318 -10 l 318 -10 q 236 -10 178 35 q 119 80 88 163 q 56 245 56 358 l 56 358 q 56 432 72 499 q 88 565 121 616 q 154 666 204 695 q 254 724 322 724 l 322 724 q 358 724 391 716 q 424 708 454 692 l 454 692 l 438 658 q 409 675 380 682 q 350 689 322 689 z m 322 791 l 287 791 q 275 814 258 843 q 240 871 222 897 q 204 923 190 941 l 190 941 l 190 949 l 214 949 q 236 925 261 893 q 285 860 304 829 l 304 829 q 326 861 348 890 q 370 918 396 949 l 396 949 l 420 949 l 420 941 q 405 921 387 895 q 368 868 351 841 q 334 814 322 791 l 322 791 z"},"Ç":{"ha":480,"x_min":56,"x_max":454,"o":"m 322 689 l 322 689 q 263 689 221 662 q 178 635 151 589 q 123 543 110 484 q 96 424 96 358 l 96 358 q 96 258 123 183 q 149 108 199 67 q 249 26 320 26 l 320 26 q 360 26 392 35 q 423 43 446 54 l 446 54 l 446 18 q 422 6 390 -2 q 357 -10 318 -10 l 318 -10 q 236 -10 178 35 q 119 80 88 163 q 56 245 56 358 l 56 358 q 56 432 72 499 q 88 565 121 616 q 154 666 204 695 q 254 724 322 724 l 322 724 q 358 724 391 716 q 424 708 454 692 l 454 692 l 438 658 q 409 675 380 682 q 350 689 322 689 z m 380 -143 l 380 -143 q 380 -188 349 -214 q 318 -240 266 -240 l 266 -240 q 253 -240 240 -238 q 226 -237 215 -234 l 215 -234 l 215 -204 q 226 -207 239 -208 q 251 -210 264 -210 l 264 -210 q 299 -210 323 -193 q 346 -176 346 -144 l 346 -144 q 346 -111 321 -97 q 296 -84 253 -82 l 253 -82 l 290 0 l 321 0 l 294 -60 q 322 -63 341 -74 q 360 -86 370 -103 q 380 -120 380 -143 z"},"Ċ":{"ha":480,"x_min":56,"x_max":454,"o":"m 322 689 l 322 689 q 263 689 221 662 q 178 635 151 589 q 123 543 110 484 q 96 424 96 358 l 96 358 q 96 258 123 183 q 149 108 199 67 q 249 26 320 26 l 320 26 q 360 26 392 35 q 423 43 446 54 l 446 54 l 446 18 q 422 6 390 -2 q 357 -10 318 -10 l 318 -10 q 236 -10 178 35 q 119 80 88 163 q 56 245 56 358 l 56 358 q 56 432 72 499 q 88 565 121 616 q 154 666 204 695 q 254 724 322 724 l 322 724 q 358 724 391 716 q 424 708 454 692 l 454 692 l 438 658 q 409 675 380 682 q 350 689 322 689 z m 305 911 l 305 911 q 322 911 329 900 q 336 889 336 874 l 336 874 q 336 856 328 846 q 320 835 305 835 l 305 835 q 290 835 283 846 q 275 857 275 873 l 275 873 q 275 889 282 900 q 289 911 305 911 z"},"D":{"ha":547,"x_min":84,"x_max":490,"o":"m 490 364 l 490 364 q 490 244 461 163 q 431 82 370 41 q 309 0 216 0 l 216 0 l 84 0 l 84 714 l 224 714 q 315 714 374 675 q 432 635 461 557 q 490 479 490 364 z m 451 362 l 451 362 q 451 464 427 535 q 403 605 353 642 q 302 679 219 679 l 219 679 l 123 679 l 123 35 l 214 35 q 337 35 394 118 q 451 200 451 362 z"},"Ð":{"ha":550,"x_min":26,"x_max":494,"o":"m 89 714 l 228 714 q 318 714 377 675 q 436 635 465 558 q 494 480 494 364 l 494 364 q 494 244 465 163 q 435 82 374 41 q 313 0 219 0 l 219 0 l 89 0 l 89 351 l 26 351 l 26 385 l 89 385 l 89 714 z m 223 679 l 223 679 l 127 679 l 127 385 l 278 385 l 278 351 l 127 351 l 127 35 l 218 35 q 341 35 398 118 q 455 200 455 362 l 455 362 q 455 464 431 535 q 407 605 357 642 q 306 679 223 679 z"},"Ď":{"ha":547,"x_min":84,"x_max":490,"o":"m 490 364 l 490 364 q 490 244 461 163 q 431 82 370 41 q 309 0 216 0 l 216 0 l 84 0 l 84 714 l 224 714 q 315 714 374 675 q 432 635 461 557 q 490 479 490 364 z m 451 362 l 451 362 q 451 464 427 535 q 403 605 353 642 q 302 679 219 679 l 219 679 l 123 679 l 123 35 l 214 35 q 337 35 394 118 q 451 200 451 362 z m 290 791 l 255 791 q 243 814 226 843 q 208 871 190 897 q 172 923 158 941 l 158 941 l 158 949 l 182 949 q 204 925 229 893 q 253 860 272 829 l 272 829 q 294 861 316 890 q 338 918 364 949 l 364 949 l 388 949 l 388 941 q 373 921 355 895 q 336 868 319 841 q 302 814 290 791 l 290 791 z"},"Đ":{"ha":550,"x_min":26,"x_max":494,"o":"m 89 714 l 228 714 q 318 714 377 675 q 436 635 465 558 q 494 480 494 364 l 494 364 q 494 244 465 163 q 435 82 374 41 q 313 0 219 0 l 219 0 l 89 0 l 89 351 l 26 351 l 26 385 l 89 385 l 89 714 z m 223 679 l 223 679 l 127 679 l 127 385 l 278 385 l 278 351 l 127 351 l 127 35 l 218 35 q 341 35 398 118 q 455 200 455 362 l 455 362 q 455 464 431 535 q 407 605 357 642 q 306 679 223 679 z"},"E":{"ha":435,"x_min":84,"x_max":383,"o":"m 383 36 l 383 0 l 84 0 l 84 714 l 383 714 l 383 679 l 123 679 l 123 393 l 369 393 l 369 357 l 123 357 l 123 36 l 383 36 z"},"É":{"ha":435,"x_min":84,"x_max":383,"o":"m 383 36 l 383 0 l 84 0 l 84 714 l 383 714 l 383 679 l 123 679 l 123 393 l 369 393 l 369 357 l 123 357 l 123 36 l 383 36 z m 357 949 l 357 942 q 345 925 329 905 q 312 884 294 864 q 275 843 257 825 q 239 806 223 791 l 223 791 l 199 791 l 199 801 q 221 826 241 851 q 261 876 280 901 q 298 925 313 949 l 313 949 l 357 949 z"},"Ě":{"ha":435,"x_min":84,"x_max":383,"o":"m 383 36 l 383 0 l 84 0 l 84 714 l 383 714 l 383 679 l 123 679 l 123 393 l 369 393 l 369 357 l 123 357 l 123 36 l 383 36 z m 260 791 l 225 791 q 213 814 196 843 q 178 871 160 897 q 142 923 128 941 l 128 941 l 128 949 l 152 949 q 174 925 199 893 q 223 860 242 829 l 242 829 q 264 861 286 890 q 308 918 334 949 l 334 949 l 358 949 l 358 941 q 343 921 325 895 q 306 868 289 841 q 272 814 260 791 l 260 791 z"},"Ê":{"ha":435,"x_min":84,"x_max":383,"o":"m 383 36 l 383 0 l 84 0 l 84 714 l 383 714 l 383 679 l 123 679 l 123 393 l 369 393 l 369 357 l 123 357 l 123 36 l 383 36 z m 224 949 l 262 949 q 275 927 294 897 q 312 867 331 840 q 349 813 360 798 l 360 798 l 360 791 l 337 791 q 314 816 289 849 q 264 882 243 911 l 243 911 q 223 883 198 849 q 172 815 150 791 l 150 791 l 126 791 l 126 798 q 140 817 159 844 q 177 871 195 899 q 212 927 224 949 l 224 949 z"},"Ë":{"ha":435,"x_min":84,"x_max":383,"o":"m 383 36 l 383 0 l 84 0 l 84 714 l 383 714 l 383 679 l 123 679 l 123 393 l 369 393 l 369 357 l 123 357 l 123 36 l 383 36 z m 136 853 l 136 853 q 136 869 144 879 q 151 889 164 889 l 164 889 q 178 889 186 879 q 193 869 193 853 l 193 853 q 193 837 186 828 q 178 818 164 818 l 164 818 q 151 818 144 828 q 136 838 136 853 z m 293 854 l 293 854 q 293 870 301 880 q 309 889 322 889 l 322 889 q 336 889 344 880 q 351 870 351 854 l 351 854 q 351 838 344 828 q 336 818 321 818 l 321 818 q 309 818 301 828 q 293 838 293 854 z"},"Ė":{"ha":435,"x_min":84,"x_max":383,"o":"m 383 36 l 383 0 l 84 0 l 84 714 l 383 714 l 383 679 l 123 679 l 123 393 l 369 393 l 369 357 l 123 357 l 123 36 l 383 36 z m 243 911 l 243 911 q 260 911 267 900 q 274 889 274 874 l 274 874 q 274 856 266 846 q 258 835 243 835 l 243 835 q 228 835 221 846 q 213 857 213 873 l 213 873 q 213 889 220 900 q 227 911 243 911 z"},"È":{"ha":435,"x_min":84,"x_max":383,"o":"m 383 36 l 383 0 l 84 0 l 84 714 l 383 714 l 383 679 l 123 679 l 123 393 l 369 393 l 369 357 l 123 357 l 123 36 l 383 36 z m 158 949 l 203 949 q 219 925 238 899 q 257 872 278 847 q 299 822 318 801 l 318 801 l 318 791 l 293 791 q 277 806 259 825 q 240 843 222 864 q 203 884 187 904 q 170 924 158 942 l 158 942 l 158 949 z"},"Ē":{"ha":435,"x_min":84,"x_max":383,"o":"m 383 36 l 383 0 l 84 0 l 84 714 l 383 714 l 383 679 l 123 679 l 123 393 l 369 393 l 369 357 l 123 357 l 123 36 l 383 36 z m 130 832 l 356 832 l 356 800 l 130 800 l 130 832 z"},"Ę":{"ha":435,"x_min":84,"x_max":383,"o":"m 383 36 l 383 0 l 84 0 l 84 714 l 383 714 l 383 679 l 123 679 l 123 393 l 369 393 l 369 357 l 123 357 l 123 36 l 383 36 z m 273 -131 l 273 -131 q 273 -158 286 -172 q 298 -187 321 -187 l 321 -187 q 332 -187 343 -185 q 354 -183 359 -181 l 359 -181 l 359 -211 q 352 -214 341 -216 q 330 -218 317 -218 l 317 -218 q 281 -218 260 -197 q 238 -176 238 -137 l 238 -137 q 238 -111 249 -85 q 259 -60 279 -36 q 298 -12 325 10 l 325 10 l 350 0 q 313 -33 293 -64 q 273 -96 273 -131 z"},"F":{"ha":400,"x_min":84,"x_max":384,"o":"m 123 324 l 123 0 l 84 0 l 84 714 l 384 714 l 384 679 l 123 679 l 123 360 l 370 360 l 370 324 l 123 324 z"},"G":{"ha":584,"x_min":56,"x_max":521,"o":"m 323 321 l 323 356 l 521 356 l 521 27 q 479 9 432 0 q 384 -10 339 -10 l 339 -10 q 244 -10 181 36 q 118 82 87 165 q 56 247 56 355 l 56 355 q 56 464 89 547 q 122 630 187 677 q 252 724 348 724 l 348 724 q 392 724 433 714 q 474 704 514 680 l 514 680 l 497 647 q 459 671 422 680 q 385 689 348 689 l 348 689 q 265 689 209 647 q 152 605 124 530 q 95 454 95 355 l 95 355 q 95 254 123 180 q 150 106 205 66 q 260 25 343 25 l 343 25 q 382 25 418 33 q 454 40 484 51 l 484 51 l 484 321 l 323 321 z"},"Ğ":{"ha":584,"x_min":56,"x_max":521,"o":"m 323 321 l 323 356 l 521 356 l 521 27 q 479 9 432 0 q 384 -10 339 -10 l 339 -10 q 244 -10 181 36 q 118 82 87 165 q 56 247 56 355 l 56 355 q 56 464 89 547 q 122 630 187 677 q 252 724 348 724 l 348 724 q 392 724 433 714 q 474 704 514 680 l 514 680 l 497 647 q 459 671 422 680 q 385 689 348 689 l 348 689 q 265 689 209 647 q 152 605 124 530 q 95 454 95 355 l 95 355 q 95 254 123 180 q 150 106 205 66 q 260 25 343 25 l 343 25 q 382 25 418 33 q 454 40 484 51 l 484 51 l 484 321 l 323 321 z m 411 905 l 440 905 q 439 871 425 846 q 410 821 386 807 q 361 793 328 793 l 328 793 q 280 793 250 822 q 220 850 217 905 l 217 905 l 247 905 q 248 881 258 863 q 268 845 286 836 q 304 826 329 826 l 329 826 q 354 826 372 836 q 390 845 400 863 q 409 881 411 905 l 411 905 z"},"Ģ":{"ha":584,"x_min":56,"x_max":521,"o":"m 323 321 l 323 356 l 521 356 l 521 27 q 479 9 432 0 q 384 -10 339 -10 l 339 -10 q 244 -10 181 36 q 118 82 87 165 q 56 247 56 355 l 56 355 q 56 464 89 547 q 122 630 187 677 q 252 724 348 724 l 348 724 q 392 724 433 714 q 474 704 514 680 l 514 680 l 497 647 q 459 671 422 680 q 385 689 348 689 l 348 689 q 265 689 209 647 q 152 605 124 530 q 95 454 95 355 l 95 355 q 95 254 123 180 q 150 106 205 66 q 260 25 343 25 l 343 25 q 382 25 418 33 q 454 40 484 51 l 484 51 l 484 321 l 323 321 z m 368 -61 l 368 -70 q 362 -94 353 -120 q 343 -146 332 -172 q 320 -198 306 -221 l 306 -221 l 285 -221 l 285 -212 q 292 -194 301 -166 q 310 -139 318 -110 q 325 -81 327 -61 l 327 -61 l 368 -61 z"},"Ġ":{"ha":584,"x_min":56,"x_max":521,"o":"m 323 321 l 323 356 l 521 356 l 521 27 q 479 9 432 0 q 384 -10 339 -10 l 339 -10 q 244 -10 181 36 q 118 82 87 165 q 56 247 56 355 l 56 355 q 56 464 89 547 q 122 630 187 677 q 252 724 348 724 l 348 724 q 392 724 433 714 q 474 704 514 680 l 514 680 l 497 647 q 459 671 422 680 q 385 689 348 689 l 348 689 q 265 689 209 647 q 152 605 124 530 q 95 454 95 355 l 95 355 q 95 254 123 180 q 150 106 205 66 q 260 25 343 25 l 343 25 q 382 25 418 33 q 454 40 484 51 l 484 51 l 484 321 l 323 321 z m 328 911 l 328 911 q 345 911 352 900 q 359 889 359 874 l 359 874 q 359 856 351 846 q 343 835 328 835 l 328 835 q 313 835 306 846 q 298 857 298 873 l 298 873 q 298 889 305 900 q 312 911 328 911 z"},"H":{"ha":561,"x_min":84,"x_max":476,"o":"m 476 714 l 476 0 l 438 0 l 438 357 l 123 357 l 123 0 l 84 0 l 84 714 l 123 714 l 123 393 l 438 393 l 438 714 l 476 714 z"},"Ħ":{"ha":563,"x_min":0,"x_max":563,"o":"m 122 0 l 84 0 l 84 543 l 0 543 l 0 577 l 84 577 l 84 714 l 122 714 l 122 577 l 438 577 l 438 714 l 476 714 l 476 577 l 563 577 l 563 543 l 476 543 l 476 0 l 438 0 l 438 357 l 122 357 l 122 0 z m 123 543 l 123 393 l 438 393 l 438 543 l 123 543 z"},"I":{"ha":251,"x_min":43,"x_max":208,"o":"m 208 25 l 208 0 l 43 0 l 43 25 l 107 31 l 107 682 l 43 689 l 43 714 l 208 714 l 208 689 l 145 682 l 145 31 l 208 25 z"},"Ĳ":{"ha":464,"x_min":43,"x_max":382,"o":"m 208 25 l 208 0 l 43 0 l 43 25 l 107 31 l 107 682 l 43 689 l 43 714 l 208 714 l 208 689 l 145 682 l 145 31 l 208 25 z m 261 -178 l 261 -178 q 241 -178 225 -175 q 209 -172 196 -166 l 196 -166 l 196 -130 q 210 -135 226 -138 q 242 -142 259 -142 l 259 -142 q 292 -142 311 -126 q 329 -111 337 -81 q 344 -52 344 -11 l 344 -11 l 344 714 l 382 714 l 382 -16 q 382 -69 370 -105 q 357 -142 331 -160 q 304 -178 261 -178 z"},"Í":{"ha":251,"x_min":43,"x_max":239,"o":"m 208 25 l 208 0 l 43 0 l 43 25 l 107 31 l 107 682 l 43 689 l 43 714 l 208 714 l 208 689 l 145 682 l 145 31 l 208 25 z m 240 949 l 240 942 q 228 925 212 905 q 195 884 177 864 q 158 843 140 825 q 122 806 106 791 l 106 791 l 82 791 l 82 801 q 104 826 124 851 q 144 876 163 901 q 181 925 196 949 l 196 949 l 240 949 z"},"Î":{"ha":251,"x_min":9,"x_max":243,"o":"m 208 25 l 208 0 l 43 0 l 43 25 l 107 31 l 107 682 l 43 689 l 43 714 l 208 714 l 208 689 l 145 682 l 145 31 l 208 25 z m 107 949 l 145 949 q 158 927 177 897 q 195 867 214 840 q 232 813 243 798 l 243 798 l 243 791 l 220 791 q 197 816 172 849 q 147 882 126 911 l 126 911 q 106 883 81 849 q 55 815 33 791 l 33 791 l 9 791 l 9 798 q 23 817 42 844 q 60 871 78 899 q 95 927 107 949 l 107 949 z"}}}
